<svg width="40" height="40" viewBox="0 0 40 40" fill="none" xmlns="http://www.w3.org/2000/svg">
<path d="M12.3116 12.3117C7.18414 17.4433 5.183 24.5124 6.3001 31.1607C6.51977 32.4604 7.53775 33.4787 8.83702 33.6984C15.4861 34.8185 22.5557 32.8195 27.6884 27.6878C32.8159 22.5589 34.817 15.4871 33.6999 8.84146C33.4802 7.5418 32.4622 6.52351 31.163 6.30378C24.5139 5.1783 17.4416 7.18004 12.3116 12.3117Z" stroke="white" stroke-width="2" stroke-miterlimit="10" stroke-linecap="round" stroke-linejoin="round"/>
<path d="M7.20801 32.795L12.7828 27.2158" stroke="white" stroke-width="2" stroke-miterlimit="10" stroke-linecap="round" stroke-linejoin="round"/>
<path d="M27.0889 12.9065L32.7922 7.2041" stroke="white" stroke-width="2" stroke-miterlimit="10" stroke-linecap="round" stroke-linejoin="round"/>
<path d="M14.752 25.2466L25.1005 14.9404" stroke="white" stroke-width="2" stroke-miterlimit="10" stroke-linecap="round" stroke-linejoin="round"/>
<path d="M12.2852 22.9365L17.1072 27.76" stroke="white" stroke-width="2" stroke-miterlimit="10" stroke-linecap="round" stroke-linejoin="round"/>
<path d="M15.7676 19.4531L20.5896 24.2766" stroke="white" stroke-width="2" stroke-miterlimit="10" stroke-linecap="round" stroke-linejoin="round"/>
<path d="M19.25 15.9697L24.072 20.7932" stroke="white" stroke-width="2" stroke-miterlimit="10" stroke-linecap="round" stroke-linejoin="round"/>
<path d="M22.7324 12.4863L27.5544 17.3098" stroke="white" stroke-width="2" stroke-miterlimit="10" stroke-linecap="round" stroke-linejoin="round"/>
</svg>
