<svg width="24" height="24" viewBox="0 0 24 24" fill="none" xmlns="http://www.w3.org/2000/svg">
<path d="M19.8001 13.5132C19.8001 13.5132 18.6713 12.2625 15.9887 12.6069C13.6432 12.909 12.7637 14.4195 12.7637 14.4195" stroke="#ffffff" stroke-width="2" stroke-miterlimit="10" stroke-linecap="round" stroke-linejoin="round"/>
<path d="M13.3501 14.7203C13.3501 14.7203 11.591 13.9651 10.125 14.4182C8.65912 14.8714 8.07275 16.2309 8.07275 16.2309" stroke="#ffffff" stroke-width="2" stroke-miterlimit="10" stroke-linecap="round" stroke-linejoin="round"/>
<path d="M8.65902 14.4181C8.65902 14.4181 8.14302 12.0465 8.65902 10.1886C9.10173 8.59343 10.5764 7.46959 10.7113 7.46959C10.7113 7.46959 12.7636 7.46959 13.0568 7.16748C13.35 6.86538 14.2295 6.56327 14.2295 5.95906C14.2295 5.35484 14.2295 5.05273 13.6431 5.05273" stroke="#ffffff" stroke-width="2" stroke-miterlimit="10" stroke-linecap="round" stroke-linejoin="round"/>
<path d="M19.5068 18.9504C19.5068 18.9504 16.2817 19.8568 11.884 19.8568C9.47697 19.8568 7.15202 19.8296 5.72715 19.2525C4.86226 18.9021 4.55442 18.3462 4.26124 17.742C3.96805 17.1378 4.7274 12.4068 6.89989 8.37668C7.60059 7.07762 8.16644 6.63352 8.6326 6.14109C9.1398 5.60334 9.52681 5.06861 9.83172 4.7514C10.1249 4.44929 11.0044 3.54297 11.2976 3.54297C11.5908 3.54297 13.3499 3.54297 13.6431 3.84508C13.9363 4.14718 13.6431 5.0535 13.3499 5.35561C13.0567 5.65772 12.1772 5.95983 11.884 5.35561" stroke="#ffffff" stroke-width="2" stroke-miterlimit="10" stroke-linecap="round" stroke-linejoin="round"/>
</svg>
