<svg width="13" height="13" viewBox="0 0 13 13" fill="none" xmlns="http://www.w3.org/2000/svg">
<path d="M5.85954 1.31665C6.12912 0.690663 7.01668 0.690664 7.28626 1.31666L8.49053 4.1131C8.60298 4.3742 8.84909 4.55302 9.13217 4.57927L12.1639 4.86045C12.8425 4.9234 13.1168 5.76752 12.6048 6.21735L10.3173 8.22683C10.1037 8.41446 10.0097 8.70378 10.0722 8.98111L10.7417 11.9513C10.8915 12.6162 10.1735 13.1379 9.58743 12.7899L6.96945 11.2354C6.725 11.0903 6.42079 11.0903 6.17635 11.2354L3.55836 12.7899C2.97232 13.1379 2.25427 12.6162 2.40412 11.9513L3.07355 8.98111C3.13605 8.70378 3.04205 8.41446 2.82847 8.22683L0.541034 6.21735C0.028986 5.76752 0.303259 4.9234 0.981917 4.86045L4.01363 4.57927C4.29671 4.55302 4.54282 4.3742 4.65526 4.1131L5.85954 1.31665Z" fill="#3D4656"/>
</svg>
