<svg width="24" height="24" viewBox="0 0 24 24" fill="none" xmlns="http://www.w3.org/2000/svg">
<path d="M3.49121 7.89062C4.44402 9.48215 5.89868 10.7122 7.60602 11.3948C8.92206 11.9195 10.3872 12.1195 11.8893 11.9089" stroke="#ffffff" stroke-width="2" stroke-miterlimit="10"/>
<path d="M2.82617 12.8691C4.37208 14.5484 6.35491 15.6662 8.44127 16.0575C10.0468 16.3593 11.7156 16.2294 13.2931 15.596" stroke="#ffffff" stroke-width="2" stroke-miterlimit="10"/>
<path d="M12.279 21.2117C13.237 19.6237 13.6424 17.7619 13.4441 15.9335C13.2914 14.5262 12.7808 13.1365 11.8894 11.9082" stroke="#ffffff" stroke-width="2" stroke-miterlimit="10"/>
<path d="M16.9868 19.4644C17.7448 17.3114 17.801 15.0355 17.1693 13.0106C16.6815 11.4507 15.7866 10.0381 14.4863 8.94141" stroke="#ffffff" stroke-width="2" stroke-miterlimit="10"/>
<path d="M19.419 6.40039C17.5678 6.49865 15.799 7.20932 14.3987 8.40077C13.3196 9.31849 12.458 10.5205 11.9421 11.9471" stroke="#ffffff" stroke-width="2" stroke-miterlimit="10"/>
<path d="M15.3305 3.48633C13.123 4.06889 11.2086 5.29895 9.88734 6.96067C8.86961 8.23986 8.20457 9.77524 8.02734 11.4668" stroke="#ffffff" stroke-width="2" stroke-miterlimit="10"/>
<path d="M12 21.2992C17.1362 21.2992 21.2999 17.1355 21.2999 11.9992C21.2999 6.86297 17.1362 2.69922 12 2.69922C6.8637 2.69922 2.69995 6.86297 2.69995 11.9992C2.69995 17.1355 6.8637 21.2992 12 21.2992Z" stroke="#ffffff" stroke-width="2" stroke-miterlimit="10"/>
</svg>
