<svg width="24" height="24" viewBox="0 0 24 24" fill="none" xmlns="http://www.w3.org/2000/svg">
<path d="M15.6217 11.69L16.3288 10.9829L15.6217 11.69ZM17.1646 19.0549L17.8717 18.3478L17.1646 19.0549ZM5.12132 6.22466L6.22466 5.12132L4.81045 3.7071L3.70711 4.81045L5.12132 6.22466ZM12.3971 14.9146L5.12132 7.63887L3.70711 9.05309L10.9829 16.3288L12.3971 14.9146ZM17.8717 18.3478L14.4386 14.9146L13.0244 16.3288L16.4575 19.762L17.8717 18.3478ZM14.9146 14.4386L18.3478 17.8717L19.762 16.4575L16.3288 13.0244L14.9146 14.4386ZM7.63887 5.12132L14.9146 12.3971L16.3288 10.9829L9.05309 3.70711L7.63887 5.12132ZM16.3288 14.4386C17.2831 13.4843 17.2831 11.9371 16.3288 10.9829L14.9146 12.3971C15.0879 12.5703 15.0879 12.8511 14.9146 13.0244L16.3288 14.4386ZM16.4575 19.762C17.37 20.6745 18.8495 20.6745 19.762 19.762L18.3478 18.3478C18.2163 18.4792 18.0031 18.4792 17.8717 18.3478L16.4575 19.762ZM10.9829 16.3288C11.9371 17.2831 13.4843 17.2831 14.4386 16.3288L13.0244 14.9146C12.8511 15.0879 12.5703 15.0879 12.3971 14.9146L10.9829 16.3288ZM6.22466 5.12132C6.61519 4.7308 7.24835 4.73079 7.63887 5.12132L9.05309 3.70711C7.88152 2.53553 5.98202 2.53553 4.81045 3.7071L6.22466 5.12132ZM19.762 19.762C20.6745 18.8495 20.6745 17.37 19.762 16.4575L18.3478 17.8717C18.4792 18.0032 18.4792 18.2163 18.3478 18.3478L19.762 19.762ZM3.70711 4.81045C2.53553 5.98202 2.53553 7.88151 3.70711 9.05309L5.12132 7.63887C4.7308 7.24835 4.7308 6.61519 5.12132 6.22466L3.70711 4.81045Z" fill="#6E7480"/>
<circle cx="17.5" cy="5.5" r="2.5" fill="#6E7480"/>
</svg>
