<svg width="24" height="24" viewBox="0 0 24 24" fill="none" xmlns="http://www.w3.org/2000/svg">
<path d="M17.8405 19.2558L17.4675 19.9404C17.4084 20.0477 17.322 20.1373 17.2183 20.1975L16.4995 20.6177C16.2258 20.7779 15.8787 20.7191 15.6698 20.4752L12.7198 17.03C12.5368 16.8169 12.5037 16.5113 12.6362 16.263L12.8408 15.8796C12.8984 15.7709 12.9848 15.6798 13.0885 15.6181L13.5552 15.3404C13.8015 15.1935 14.1112 15.2243 14.3259 15.4153L17.6979 18.4184C17.9327 18.627 17.9918 18.9766 17.8405 19.2558Z" stroke="#ffffff" stroke-width="2" stroke-miterlimit="10"/>
<path d="M8.2688 17.7778L15.0461 10.8652" stroke="#ffffff" stroke-width="2" stroke-miterlimit="10"/>
<path d="M16.439 6.2203C17.4732 6.2203 18.3116 5.36518 18.3116 4.31034C18.3116 3.25551 17.4732 2.40039 16.439 2.40039C15.4048 2.40039 14.5664 3.25551 14.5664 4.31034C14.5664 5.36518 15.4048 6.2203 16.439 6.2203Z" stroke="#ffffff" stroke-width="2" stroke-miterlimit="10"/>
<path d="M12.8407 17.1714C10.5216 18.6935 7.23743 18.2748 5.01914 16.0137C2.49837 13.4426 2.31255 9.46404 4.6043 7.12655C6.89604 4.78906 10.7968 4.97859 13.3175 7.54968C15.5344 9.81077 15.9449 13.162 14.4526 15.5274" stroke="#ffffff" stroke-width="2" stroke-miterlimit="10"/>
</svg>
