<svg width="76" height="21" viewBox="0 0 76 21" fill="none" xmlns="http://www.w3.org/2000/svg">
<path d="M3.76961 21C2.85883 21 2.04925 20.5722 1.34087 19.7167C0.632485 18.8417 0.185529 17.7819 0 16.5375H13.2569C13.8135 16.5375 14.0918 16.5375 14.0918 16.5375C14.0918 16.5375 14.0918 16.2167 14.0918 15.575V13.7667C14.0918 13.125 14.0918 12.8042 14.0918 12.8042C14.0918 12.8042 13.8135 12.8042 13.2569 12.8042H3.76961C2.75763 12.8042 1.88902 12.3861 1.16377 11.55C0.438521 10.7139 0.0758968 9.7125 0.0758968 8.54583V4.22917C0.0758968 3.0625 0.438521 2.07083 1.16377 1.25417C1.88902 0.418055 2.75763 0 3.76961 0H14.2942C15.3061 0 16.1663 0.418055 16.8747 1.25417C17.6 2.07083 17.9626 3.0625 17.9626 4.22917V16.7708C17.9626 17.9181 17.6 18.9097 16.8747 19.7458C16.1663 20.5819 15.3061 21 14.2942 21H3.76961ZM4.80689 8.3125H14.0918V5.425C14.0918 4.78333 14.0918 4.4625 14.0918 4.4625C14.0918 4.4625 13.8135 4.4625 13.2569 4.4625H4.80689C4.2503 4.4625 3.97201 4.4625 3.97201 4.4625C3.97201 4.4625 3.97201 4.78333 3.97201 5.425V7.35C3.97201 7.99167 3.97201 8.3125 3.97201 8.3125C3.97201 8.3125 4.2503 8.3125 4.80689 8.3125Z" fill="#FF3333"/>
<path d="M24.7949 21L19.8236 5.25H21.4554L25.4591 17.8937L29.4437 5.25H31.3032L35.3068 17.8937L39.2725 5.25H40.9423L35.971 21H34.6238L30.3735 7.54687L26.1232 21H24.7949ZM42.5117 21V5.25H44.0676V21H42.5117ZM46.6455 21V5.25H48.7516L58.7702 18.9875V5.25H60.3071V21H58.201L48.1824 7.2625V21H46.6455ZM62.3382 21V18.5719L74.2542 7.02187H62.3382V5.25H75.9999V7.67812L64.0839 19.2281H75.9999V21H62.3382Z" fill="#FFCC99"/>
</svg>
