<svg width="133" height="33" viewBox="0 0 133 33" fill="none" xmlns="http://www.w3.org/2000/svg">
<path d="M47.6446 4.21284H40.0185C39.4333 4.21284 39.1501 4.49455 39.1501 5.07674V23.4438C39.1501 24.026 39.4333 24.3077 40.0185 24.3077H47.6635C48.7017 24.3077 49.6078 23.9509 50.344 23.2185C51.0802 22.4861 51.4388 21.6034 51.4388 20.5517V7.9689C51.4388 6.95476 51.0802 6.07209 50.344 5.32088C49.5889 4.58845 48.7017 4.21284 47.6446 4.21284ZM46.3421 18.6924C46.3421 19.0868 46.1534 19.2746 45.757 19.2746H44.7943C44.3979 19.2746 44.2091 19.0868 44.2091 18.6924V9.84693C44.2091 9.45254 44.3979 9.26474 44.7943 9.26474H45.757C46.1345 9.26474 46.3421 9.45254 46.3421 9.84693V18.6924Z" fill="#00CC99"/>
<path d="M63.9165 4.21279H57.1586C56.1204 4.21279 55.2143 4.58805 54.4782 5.3198C53.742 6.05154 53.3833 6.93339 53.3833 7.96534V20.5551C53.3833 21.5871 53.742 22.4877 54.4782 23.2194C55.2143 23.9512 56.1015 24.3077 57.1586 24.3077H63.9165C64.5017 24.3077 64.7848 24.0262 64.7848 23.4446V20.1236C64.7848 19.542 64.5017 19.2605 63.9165 19.2605H59.0463C58.6499 19.2605 58.4611 19.0729 58.4611 18.6789V17.4968C58.4611 17.1216 58.6499 16.9152 59.0463 16.9152H63.9165C64.5017 16.9152 64.7848 16.6337 64.7848 16.0521V12.7311C64.7848 12.1494 64.5017 11.868 63.9165 11.868H59.0463C58.6499 11.868 58.4611 11.6804 58.4611 11.2863V9.84162C58.4611 9.4476 58.6499 9.25997 59.0463 9.25997H63.9165C64.5017 9.25997 64.7848 8.97853 64.7848 8.39688V5.07588C64.7848 4.49423 64.5017 4.21279 63.9165 4.21279Z" fill="#00CC99"/>
<path d="M78.1682 4.21279H70.5231C69.4849 4.21279 68.5788 4.5884 67.8426 5.32083C67.1065 6.05326 66.7478 6.93593 66.7478 7.96885V13.0207C66.7478 14.0537 67.1065 14.9551 67.8426 15.6875C68.5788 16.42 69.466 16.7768 70.5231 16.7768H73.3735C73.751 16.7768 73.9587 16.9646 73.9587 17.3214V18.6736C73.9587 19.068 73.7699 19.2558 73.3735 19.2558H67.6161C67.031 19.2558 66.7478 19.5375 66.7478 20.1197V23.4438C66.7478 24.026 67.031 24.3077 67.6161 24.3077H75.2612C76.2994 24.3077 77.2055 23.9509 77.9417 23.2184C78.6778 22.486 79.0365 21.6033 79.0365 20.5516V15.481C79.0365 14.448 78.6778 13.5466 77.9417 12.8142C77.2055 12.0817 76.3183 11.7249 75.2612 11.7249H72.3353C72.0144 11.6873 71.8445 11.4995 71.8445 11.1803V9.84688C71.8445 9.45249 72.0333 9.26469 72.4297 9.26469H78.1871C78.7722 9.26469 79.0554 8.98298 79.0554 8.40079V5.07669C79.0365 4.4945 78.7534 4.21279 78.1682 4.21279Z" fill="#00CC99"/>
<path d="M85.2093 4.21279H81.8681C81.2829 4.21279 80.9998 4.4945 80.9998 5.07669V23.4438C80.9998 24.026 81.2829 24.3077 81.8681 24.3077H85.2093C85.7944 24.3077 86.0776 24.026 86.0776 23.4438V5.07669C86.0776 4.4945 85.7944 4.21279 85.2093 4.21279Z" fill="#00CC99"/>
<path d="M97.2622 4.91496H89.6171C89.0319 4.91496 88.7488 5.19273 88.7488 5.76678V23.8772C88.7488 24.4512 89.0319 24.729 89.6171 24.729H97.2622C98.3004 24.729 99.2064 24.3772 99.9426 23.655C100.679 22.9328 101.037 22.0624 101.037 21.0254V8.61852C101.037 7.61856 100.679 6.74823 99.9426 6.00751C99.1876 5.28532 98.3004 4.91496 97.2622 4.91496ZM95.9408 19.1922C95.9408 19.5811 95.752 19.7662 95.3556 19.7662H94.3929C93.9965 19.7662 93.8077 19.5811 93.8077 19.1922V10.4703C93.8077 10.0814 93.9965 9.89625 94.3929 9.89625H95.3556C95.752 9.89625 95.9408 10.0814 95.9408 10.4703V19.1922Z" fill="#FF3366"/>
<path d="M107.191 4.91492H103.85C103.265 4.91492 102.982 5.19269 102.982 5.76674V23.8771C102.982 24.4512 103.265 24.729 103.85 24.729H107.191C107.777 24.729 108.06 24.4512 108.06 23.8771V5.76674C108.079 5.19269 107.777 4.91492 107.191 4.91492Z" fill="#FF3366"/>
<path d="M118.574 4.91492H113.798C112.76 4.91492 111.854 5.28493 111.118 6.00645C110.382 6.72797 110.023 7.5975 110.023 8.61503V21.0289C110.023 22.0464 110.382 22.9344 111.118 23.6559C111.854 24.3775 112.741 24.729 113.798 24.729H118.555C119.14 24.729 119.424 24.4515 119.424 23.8779V20.6034C119.424 20.0298 119.14 19.7523 118.555 19.7523H115.686C115.29 19.7523 115.101 19.5673 115.101 19.1788V10.4651C115.101 10.0766 115.29 9.89156 115.686 9.89156H118.555C119.14 9.89156 119.424 9.61405 119.424 9.04054V5.76595C119.442 5.19243 119.14 4.91492 118.574 4.91492Z" fill="#FF3366"/>
<path d="M126.691 9.89156H131.561C132.146 9.89156 132.429 9.61405 132.429 9.04054V5.76595C132.429 5.19243 132.146 4.91492 131.561 4.91492H124.803C123.765 4.91492 122.859 5.28493 122.123 6.00645C121.386 6.72797 121.028 7.5975 121.028 8.61503V21.0289C121.028 22.0464 121.386 22.9344 122.123 23.6559C122.859 24.3775 123.746 24.729 124.803 24.729H131.561C132.146 24.729 132.429 24.4515 132.429 23.8779V20.6034C132.429 20.0298 132.146 19.7523 131.561 19.7523H126.691C126.294 19.7523 126.106 19.5673 126.106 19.1788V18.0133C126.106 17.6433 126.294 17.4398 126.691 17.4398H131.561C132.146 17.4398 132.429 17.1623 132.429 16.5887V13.3142C132.429 12.7406 132.146 12.4631 131.561 12.4631H126.691C126.294 12.4631 126.106 12.2781 126.106 11.8896V10.4651C126.106 10.0766 126.294 9.89156 126.691 9.89156Z" fill="#FF3366"/>
<path d="M34.6197 10.6708C34.6197 9.62042 34.261 8.7951 33.5248 8.17611L29.9949 5.21248L28.1639 3.67439L24.6339 0.72951C23.8977 0.110523 23.0105 -0.114563 21.9912 0.0542514C21.3116 0.166795 20.7076 0.429395 20.1602 0.842053C19.9337 1.01087 16.9323 2.86783 15.8185 3.82445C15.4976 4.1058 15.1956 4.42468 14.9502 4.78106L10.5142 11.9463C9.79689 12.7904 9.43823 13.7282 9.43823 14.7786C9.43823 15.829 9.79689 16.6544 10.5331 17.2734L14.063 20.237L15.894 21.7751L19.424 24.7387C20.1602 25.3577 21.0474 25.5828 22.0667 25.414C23.1049 25.2452 23.9733 24.7387 24.7094 23.8759L30.4291 17.9861C30.6367 17.7986 30.8066 17.5735 30.9387 17.3484C31.6183 16.1854 33.9401 12.978 34.0723 12.7529C34.4498 12.0776 34.6197 11.4024 34.6197 10.6708Z" fill="#FF3366"/>
<path d="M25.1739 17.7216C25.6435 17.1666 25.3708 16.1708 24.5649 15.4975C23.759 14.8242 22.7249 14.7284 22.2553 15.2834C21.7857 15.8384 22.0584 16.8342 22.8643 17.5075C23.6702 18.1808 24.7043 18.2766 25.1739 17.7216Z" fill="white"/>
<path d="M16.1067 16.8768C16.5763 16.3218 16.3037 15.326 15.4978 14.6527C14.6918 13.9794 13.6578 13.8836 13.1882 14.4386C12.7186 14.9936 12.9912 15.9894 13.7972 16.6627C14.6031 17.336 15.6371 17.4318 16.1067 16.8768Z" fill="white"/>
<path d="M21.8091 21.6612C22.2787 21.1061 22.0061 20.1104 21.2001 19.4371C20.3942 18.7638 19.3602 18.6679 18.8906 19.223C18.421 19.778 18.6936 20.7737 19.4996 21.447C20.3055 22.1203 21.3395 22.2162 21.8091 21.6612Z" fill="white"/>
<path d="M19.471 12.9374C19.9406 12.3824 19.6679 11.3866 18.862 10.7133C18.0561 10.04 17.0221 9.94418 16.5524 10.4992C16.0828 11.0542 16.3555 12.05 17.1614 12.7233C17.9673 13.3966 19.0014 13.4924 19.471 12.9374Z" fill="white"/>
<path d="M33.2796 8.45747L29.7497 5.49384L27.9186 3.95575L24.3887 1.01087C23.879 0.579452 23.2938 0.373123 22.6332 0.373123C22.4444 0.373123 22.2556 0.39188 22.048 0.429395C21.4251 0.523181 20.8776 0.767024 20.368 1.14217C20.3113 1.17968 20.1414 1.29223 19.7828 1.51731C19.594 1.62985 19.3864 1.77991 19.1599 1.92997C18.99 2.04251 18.6313 2.28636 18.1405 2.64274C17.612 3.01789 17.2911 3.61812 17.2533 4.25586C17.2156 4.89361 17.4798 5.51259 17.9706 5.94401L28.7681 15.5102C29.1645 15.8478 29.6553 16.0541 30.1838 16.0541C30.9011 16.0541 31.5618 15.6977 31.9582 15.1163C32.1281 14.8724 32.2791 14.6473 32.4113 14.4598C32.6378 14.1409 32.8643 13.822 33.0531 13.5407C33.3928 13.0717 33.7138 12.6216 33.7515 12.5465C34.0724 11.9651 34.2423 11.3461 34.2423 10.6708C34.2423 9.73296 33.9403 9.00143 33.2796 8.45747Z" fill="url(#paint0_linear_2309_92879)"/>
<path d="M27.6644 8.98586C27.9865 8.60526 27.5942 7.75092 26.7882 7.07764C25.9823 6.40435 25.0679 6.16707 24.7459 6.54767C24.4239 6.92826 24.8162 7.7826 25.6221 8.45588C26.428 9.12917 27.3424 9.36645 27.6644 8.98586Z" fill="white"/>
<path d="M29.3688 12.6973C29.6908 12.3167 29.2985 11.4624 28.4926 10.7891C27.6866 10.1158 26.7723 9.87851 26.4502 10.2591C26.1282 10.6397 26.5205 11.494 27.3265 12.1673C28.1324 12.8406 29.0468 13.0779 29.3688 12.6973Z" fill="white"/>
<path d="M25.9577 5.24772C26.2797 4.86713 25.8874 4.01279 25.0814 3.3395C24.2755 2.66622 23.3611 2.42894 23.0391 2.80953C22.7171 3.19013 23.1094 4.04447 23.9153 4.71775C24.7213 5.39104 25.6356 5.62832 25.9577 5.24772Z" fill="white"/>
<path d="M8.17359 16.2229L0 30.047L10.6653 19.2428L9.62709 18.3613C8.92866 17.7798 8.45674 17.067 8.17359 16.2229Z" fill="#00CC99"/>
<path d="M7.1731 29.8594L15.3278 23.1444L12.9494 21.1374L7.1731 29.8594Z" fill="#00CC99"/>
<path d="M18.0274 25.395L13.4026 32.2977L20.7645 26.8768C19.9339 26.7268 19.1977 26.3891 18.5182 25.8264L18.0274 25.395Z" fill="#00CC99"/>
<defs>
<linearGradient id="paint0_linear_2309_92879" x1="17.0646" y1="8.21254" x2="34.4361" y2="8.21254" gradientUnits="userSpaceOnUse">
<stop stop-color="#FF95AF"/>
<stop offset="0.723958" stop-color="#FF3366"/>
</linearGradient>
</defs>
</svg>
