<svg width="93" height="19" viewBox="0 0 93 19" fill="none" xmlns="http://www.w3.org/2000/svg">
<g clip-path="url(#clip0_2401_63376)">
<path d="M15.6261 2.35547H25.8343V4.63718H18.3079V7.97199H23.3255V10.2537H18.3079V14.0273H26.0939V16.309H15.6261V2.35547Z" fill="#BFF2E6"/>
<path d="M25.3153 6.3916H27.9971L30.4194 13.3245L32.6687 6.3916H35.264L31.6306 16.3083H29.2083L25.3153 6.3916Z" fill="#BFF2E6"/>
<path d="M34.8314 11.3941C35.1775 8.49805 37.7728 6.47962 40.6276 6.83065C42.9634 7.18168 44.7801 9.0246 45.1261 11.3941C45.2127 14.2023 43.0499 16.484 40.2816 16.484C40.1951 16.484 40.022 16.484 39.9355 16.484C37.2537 16.6596 35.0044 14.5534 34.8314 11.8329C34.8314 11.6573 34.8314 11.5696 34.8314 11.3941ZM42.4443 11.4818C42.4443 9.55115 41.4927 8.41029 40.022 8.41029C38.5514 8.41029 37.5132 9.55115 37.5132 11.3941V11.4818C37.5132 13.3247 38.4649 14.3778 39.9355 14.3778C41.4062 14.3778 42.4443 13.3247 42.4443 11.4818Z" fill="#BFF2E6"/>
<path d="M46.3373 2.17969H49.0191V16.3087H46.3373V2.17969Z" fill="#BFF2E6"/>
<path d="M50.4898 12.3592V6.3916H53.0851V12.1836C53.0851 13.5 53.6907 14.2898 54.9018 14.2898C56.286 14.2898 56.8916 13.149 56.8916 11.4816V6.3916H59.4869V16.3083H56.8916V14.9041C56.3725 15.9572 55.3344 16.5715 54.1232 16.4838C51.874 16.4838 50.4898 14.9041 50.4898 12.3592Z" fill="#BFF2E6"/>
<path d="M61.9957 13.6755V8.49778H60.6115V6.39158H61.9957V4.54866L64.591 3.14453V6.47934H66.4942V8.58553H64.5045V13.5C64.5045 13.9388 64.764 14.2021 65.1966 14.2021H66.3212V16.396H64.3315C62.4282 16.2205 61.9957 15.3429 61.9957 13.6755Z" fill="#BFF2E6"/>
<path d="M67.7054 2.44238H70.4737V4.98737H67.7054V2.44238ZM67.7054 6.3915H70.3872V16.3082H67.7054V6.3915Z" fill="#BFF2E6"/>
<path d="M71.5118 11.3941C71.8579 8.49805 74.4532 6.47962 77.308 6.83065C79.6438 7.18168 81.4605 9.0246 81.8066 11.3941C81.8931 14.2023 79.7303 16.484 76.962 16.484C76.8755 16.484 76.7025 16.484 76.616 16.484C73.9341 16.6596 71.6849 14.5534 71.5118 11.8329C71.5118 11.6573 71.5118 11.5696 71.5118 11.3941ZM79.2113 11.4818C79.2113 9.55115 78.2597 8.41029 76.789 8.41029C75.3183 8.41029 74.2802 9.46339 74.2802 11.3941V11.4818C74.2802 13.3247 75.1453 14.3778 76.7025 14.3778C78.2597 14.3778 79.2113 13.3247 79.2113 11.4818Z" fill="#BFF2E6"/>
<path d="M83.0177 6.39199H85.613V7.97164C86.1321 6.83078 87.2567 6.04096 88.5544 6.12872C90.7171 6.12872 92.0148 7.53285 92.0148 10.3411V16.3087H89.4195V10.5166C89.4195 9.1125 88.9004 8.41043 87.6893 8.41043C86.4781 8.41043 85.6995 9.37577 85.6995 11.3064V16.3087H83.1042L83.0177 6.39199Z" fill="#BFF2E6"/>
<path d="M11.8196 18.1515C11.3871 18.1515 11.041 17.8005 11.041 17.3617C11.041 16.9229 11.3871 16.5719 11.8196 16.5719C12.2522 16.5719 12.5982 16.9229 12.5982 17.3617C12.6847 17.8005 12.3387 18.1515 11.8196 18.1515ZM11.8196 16.3086C11.3006 16.3086 10.7815 16.7474 10.868 17.3617C10.868 17.8882 11.3006 18.4148 11.9061 18.327C12.4252 18.327 12.8578 17.8882 12.8578 17.2739C12.8578 16.7474 12.4252 16.3086 11.8196 16.3086Z" fill="#BFF2E6"/>
<path d="M10.176 8.84889C11.0411 8.84889 11.9927 8.84889 12.8578 8.76113C12.7713 7.00597 12.1657 5.33857 11.1276 3.84668C11.2141 4.19771 11.2141 4.54874 11.2141 4.89978C11.2141 6.30391 10.868 7.70804 10.176 8.84889Z" fill="#BFF2E6"/>
<path d="M9.82993 9.37598C8.35925 11.6577 5.76394 13.0618 3.08212 13.0618C2.9091 13.0618 2.64957 13.0618 2.47655 13.0618C1.78446 14.2027 1.2654 15.3435 0.746338 16.4844C4.72581 18.6783 9.65691 17.1864 11.8197 13.2373C12.4252 12.0965 12.7713 10.7801 12.8578 9.46373C11.8197 9.37598 10.8681 9.37598 9.82993 9.37598Z" fill="#BFF2E6"/>
<path d="M0.746338 1.82855C2.1305 4.98784 3.25514 8.67368 10.176 8.8492C10.8681 7.62058 11.2141 6.30421 11.2141 4.98784C11.2141 4.63681 11.2141 4.28577 11.1276 3.93474C8.61878 0.77545 4.29326 -0.102132 0.746338 1.82855Z" fill="#BFF2E6"/>
<path d="M9.82994 9.37598C5.67745 9.55149 3.68771 11.1311 2.47656 12.9741C2.64958 12.9741 2.90911 12.9741 3.08214 12.9741C5.76396 12.9741 8.35927 11.6577 9.82994 9.37598Z" fill="#BFF2E6"/>
<path d="M11.4736 17.1864H11.3006V17.0986H11.7332V17.1864H11.5601V17.6252H11.3871L11.4736 17.1864Z" fill="#BFF2E6"/>
<path d="M11.8196 17.0986H11.9927L12.0792 17.4497L12.1657 17.0986H12.3387V17.6252H12.1657V17.1864L11.9927 17.6252H11.9062L11.9927 17.1864V17.6252H11.9062V17.0986H11.8196Z" fill="#BFF2E6"/>
</g>
<defs>
<clipPath id="clip0_2401_63376">
<rect width="91.2684" height="17.5516" fill="white" transform="translate(0.746338 0.775391)"/>
</clipPath>
</defs>
</svg>
