<svg width="62" height="29" viewBox="0 0 62 29" fill="none" xmlns="http://www.w3.org/2000/svg">
<path d="M59.6896 0.269748C59.7391 0.286238 59.7886 0.310973 59.8381 0.319218C61.084 0.554201 62.0164 1.68789 61.9999 2.94114C61.9834 4.20263 61.0263 5.30334 59.7721 5.50122C58.3405 5.73208 56.979 4.73443 56.7356 3.27506C56.5128 1.93524 57.5318 0.554201 58.9181 0.315095C58.9717 0.30685 59.0212 0.282115 59.0707 0.265625C59.277 0.269748 59.4833 0.269748 59.6896 0.269748Z" fill="#BFF2E6"/>
<path d="M0.363037 24.593C0.763223 23.7438 1.38619 23.4263 2.37222 23.5789C2.61976 23.616 2.86729 23.6943 3.10658 23.7726C3.16847 23.7932 3.23035 23.888 3.2386 23.9581C3.25923 24.1107 3.24273 24.2714 3.24273 24.424C2.93743 24.3333 2.65689 24.2096 2.36397 24.1725C2.07105 24.1395 1.7575 24.1519 1.47283 24.222C1.13453 24.3044 0.977756 24.5848 1.00251 24.9063C1.02314 25.2155 1.19229 25.4134 1.53884 25.5C1.84001 25.5742 2.14531 25.6236 2.44235 25.7061C3.39538 25.9699 3.78731 26.9593 3.2551 27.7261C3.04057 28.0353 2.73527 28.2043 2.37634 28.2909C2.32271 28.3033 2.2732 28.3239 2.2237 28.3404C2.01741 28.3404 1.81113 28.3404 1.60485 28.3404C1.55947 28.328 1.51409 28.3115 1.47283 28.2992C1.15928 28.2002 0.845736 28.1095 0.536314 28.0023C0.48268 27.9817 0.41667 27.9034 0.408419 27.8457C0.391917 27.6808 0.404293 27.5118 0.404293 27.318C0.503309 27.3633 0.569319 27.3963 0.635329 27.4293C1.15103 27.656 1.67499 27.8292 2.24845 27.722C2.53312 27.6684 2.73115 27.5035 2.80541 27.2149C2.91268 26.7862 2.69402 26.4193 2.2402 26.2915C2.02154 26.2296 1.79876 26.1884 1.57597 26.1431C0.977756 26.0318 0.523937 25.7556 0.363037 25.1289C0.363037 24.9517 0.363037 24.7703 0.363037 24.593Z" fill="#BFF2E6"/>
<path d="M34.1932 28.3437C33.8508 28.2406 33.5207 28.1293 33.2649 27.8572C32.7822 27.3419 32.6956 26.3772 33.0875 25.7176C33.4424 25.1199 34.1478 24.8519 34.8616 25.0457C35.4557 25.2064 35.8641 25.73 35.9219 26.4185C35.9342 26.5669 35.9219 26.7194 35.9219 26.8884C35.1174 26.8884 34.3129 26.8884 33.5166 26.8884C33.4836 27.3089 33.8384 27.7047 34.2922 27.7624C34.7461 27.8201 35.1627 27.7129 35.5464 27.4656C35.6124 27.4243 35.6785 27.379 35.7816 27.313C35.7816 27.5109 35.7898 27.6717 35.7775 27.8325C35.7733 27.8861 35.7115 27.9603 35.6578 27.9809C35.3649 28.1087 35.0679 28.22 34.7708 28.3395C34.5769 28.3437 34.3871 28.3437 34.1932 28.3437ZM35.2618 26.3607C35.2741 25.8578 34.9028 25.528 34.3582 25.5404C33.8962 25.5527 33.5042 25.9402 33.5414 26.3607C34.1148 26.3607 34.6883 26.3607 35.2618 26.3607Z" fill="#BFF2E6"/>
<path d="M10.6771 28.3445C10.6605 28.3321 10.644 28.3156 10.6275 28.3156C10.0335 28.2208 9.64564 27.755 9.7199 27.1036C9.78179 26.5759 10.2604 26.2008 10.8998 26.2131C11.1969 26.2214 11.4939 26.2915 11.791 26.3327C11.89 25.8421 11.659 25.5371 11.1432 25.5206C10.7059 25.5041 10.3057 25.6442 9.89731 25.8751C9.89731 25.6772 9.89318 25.5041 9.90143 25.3351C9.90556 25.2938 9.95507 25.2444 10.0004 25.2237C10.5079 25.0011 11.036 24.9104 11.5847 25.0465C12.0756 25.166 12.3933 25.5247 12.4057 26.0276C12.4263 26.7532 12.4098 27.4829 12.4098 28.2249C12.2242 28.2249 12.0426 28.2249 11.8487 28.2249C11.8405 28.1672 11.8322 28.1013 11.8281 28.06C11.5971 28.1549 11.366 28.2497 11.135 28.3486C10.9782 28.3445 10.8297 28.3445 10.6771 28.3445ZM11.8116 27.2726C11.8116 26.9057 11.8034 26.8686 11.4733 26.7903C11.2588 26.7408 11.0277 26.7243 10.8091 26.745C10.5368 26.7697 10.3594 26.9593 10.3429 27.1861C10.3222 27.4581 10.4584 27.6766 10.7266 27.7715C10.9906 27.8663 11.2505 27.8333 11.5063 27.7179C11.7043 27.623 11.8817 27.5117 11.8116 27.2726Z" fill="#BFF2E6"/>
<path d="M27.1795 28.3443C26.8329 28.2371 26.4988 28.1175 26.2347 27.8413C25.7149 27.293 25.6283 26.3613 26.0573 25.7058C26.4781 25.0669 27.3321 24.8071 28.0789 25.0957C28.7844 25.3678 29.2052 26.1099 29.0896 26.8849C28.9783 27.6517 28.5327 28.1381 27.7777 28.303C27.7529 28.3072 27.7323 28.3278 27.7117 28.3401C27.5384 28.3443 27.3569 28.3443 27.1795 28.3443ZM28.4749 26.5633C28.4749 26.1181 28.1696 25.6935 27.6993 25.5822C27.2249 25.4709 26.7628 25.6729 26.5483 26.0851C26.3049 26.5551 26.408 27.2147 26.7793 27.5239C27.1176 27.8042 27.5013 27.8496 27.8932 27.6682C28.3099 27.4744 28.4667 27.1034 28.4749 26.5633Z" fill="#BFF2E6"/>
<path d="M16.7418 28.3438C16.1724 28.1047 16.061 27.9398 16.061 27.3008C16.061 26.7525 16.061 26.2042 16.061 25.6312C15.8754 25.6312 15.698 25.6312 15.5123 25.6312C15.5123 25.4416 15.5123 25.2767 15.5123 25.087C15.7062 25.087 15.896 25.087 16.1023 25.087C16.1023 24.8273 16.1105 24.5882 16.0982 24.3491C16.094 24.2172 16.1312 24.1306 16.2549 24.0688C16.3828 24.0069 16.5025 23.9286 16.6551 23.8379C16.6551 24.2625 16.6551 24.6624 16.6551 25.0829C16.9192 25.0829 17.1626 25.0829 17.4225 25.0829C17.4225 25.2684 17.4225 25.4333 17.4225 25.6229C17.1708 25.6229 16.9274 25.6229 16.6593 25.6229C16.6593 26.0311 16.6593 26.4186 16.6593 26.8102C16.6593 26.9834 16.6551 27.1524 16.6593 27.3255C16.6675 27.676 16.8532 27.8409 17.2038 27.8038C17.2698 27.7955 17.34 27.7831 17.4019 27.7708C17.4968 28.1418 17.4596 28.2531 17.1956 28.3479C17.0429 28.3438 16.8944 28.3438 16.7418 28.3438Z" fill="#BFF2E6"/>
<path d="M46.7392 7.5213C46.7392 7.27808 46.7392 7.08844 46.7392 6.89056C48.0305 6.89056 49.3053 6.89056 50.609 6.89056C50.609 6.97301 50.609 7.05546 50.609 7.13379C50.609 9.78457 50.6049 12.4353 50.6049 15.0902C50.6049 16.2157 50.6296 17.3453 50.5966 18.4707C50.5636 19.6621 50.279 20.7793 49.5033 21.7275C48.7649 22.6303 47.7788 23.1168 46.6608 23.3518C44.2968 23.8465 42.0483 23.4796 39.9113 22.3789C39.705 22.2717 39.6225 22.148 39.6266 21.9048C39.6431 20.8329 39.6348 19.7611 39.6348 18.6892C39.6348 18.6191 39.6348 18.5449 39.6348 18.479C40.134 18.7469 40.6044 19.0272 41.0994 19.2581C42.2216 19.7734 43.3974 20.0867 44.6475 20.0208C44.9528 20.0043 45.2622 19.9507 45.5551 19.86C46.2441 19.6497 46.6402 19.1715 46.6938 18.4542C46.7309 17.9719 46.702 17.4854 46.702 17.0072C46.4256 17.168 46.1492 17.3494 45.8604 17.4937C43.8141 18.5078 41.1242 17.8729 39.7627 16.0343C39.0985 15.1356 38.7355 14.1173 38.6199 13.0084C38.4962 11.817 38.6034 10.6462 39.0985 9.54134C39.9071 7.73155 41.314 6.72566 43.2902 6.5319C44.3834 6.42471 45.4107 6.60611 46.339 7.22448C46.4628 7.30693 46.5783 7.40175 46.7392 7.5213ZM46.7351 12.2169C46.7351 11.8046 46.7392 11.3923 46.7268 10.9801C46.7227 10.8894 46.6773 10.7822 46.6113 10.7163C46.1368 10.2587 45.5634 9.98657 44.9074 9.92061C44.0616 9.83404 43.3479 10.0814 42.9023 10.8441C42.5063 11.5243 42.4733 12.2663 42.6754 13.0125C42.8693 13.7339 43.286 14.2864 44.0369 14.476C45.06 14.7316 45.9264 14.3729 46.6649 13.668C46.7144 13.6226 46.7309 13.5237 46.7309 13.4454C46.7392 13.0414 46.7351 12.6291 46.7351 12.2169Z" fill="#BFF2E6"/>
<path d="M0.449585 2.05078C4.26992 2.05078 8.06962 2.05078 11.8858 2.05078C11.8858 3.25456 11.8858 4.45421 11.8858 5.68272C9.40633 5.68272 6.93508 5.68272 4.45145 5.68272C4.45145 6.61029 4.45145 7.50487 4.45145 8.42419C6.68341 8.42419 8.91125 8.42419 11.1556 8.42419C11.1556 9.64446 11.1556 10.8441 11.1556 12.0603C8.93188 12.0603 6.69991 12.0603 4.45557 12.0603C4.45557 12.9507 4.45557 13.8164 4.45557 14.7152C6.93508 14.7152 9.41045 14.7152 11.8982 14.7152C11.8982 15.9766 11.8982 17.2134 11.8982 18.4666C8.082 18.4666 4.27404 18.4666 0.449585 18.4666C0.449585 12.9961 0.449585 7.53373 0.449585 2.05078Z" fill="#BFF2E6"/>
<path d="M29.6673 6.87836C29.6673 6.98967 29.6673 7.08037 29.6673 7.16694C29.6631 9.31889 29.659 11.4667 29.6631 13.6187C29.6631 13.8495 29.692 14.0886 29.7621 14.3071C30.0138 15.1316 30.8678 15.5315 31.7837 15.2677C32.2912 15.1193 32.6831 14.806 32.9925 14.3855C33.0462 14.3113 33.0544 14.1917 33.0544 14.0928C33.0544 11.7842 33.0544 9.47555 33.0503 7.16694C33.0503 7.08037 33.0503 6.99379 33.0503 6.89073C34.3499 6.89073 35.6247 6.89073 36.916 6.89073C36.916 10.7535 36.916 14.6122 36.916 18.475C35.6412 18.475 34.3787 18.475 33.0957 18.475C33.0957 18.2194 33.0957 17.9679 33.0957 17.6587C32.9966 17.7412 32.9389 17.7907 32.8811 17.8401C30.971 19.4891 27.8107 19.1016 26.4575 17.0486C25.9542 16.2818 25.7603 15.4326 25.7933 14.5215C25.7974 14.4391 25.7974 14.3566 25.7974 14.2742C25.7974 11.8913 25.7974 9.50441 25.785 7.12159C25.785 6.92371 25.8387 6.87012 26.0367 6.87012C27.163 6.87836 28.2934 6.87424 29.4197 6.87424C29.494 6.87836 29.5682 6.87836 29.6673 6.87836Z" fill="#BFF2E6"/>
<path d="M18.5406 15.2301C20.3847 15.2301 22.1959 15.2301 24.0235 15.2301C24.0235 16.3143 24.0235 17.382 24.0235 18.4704C20.459 18.4704 16.8986 18.4704 13.3217 18.4704C13.3175 18.4003 13.3134 18.3302 13.3134 18.2642C13.3134 17.3367 13.3093 16.4091 13.3175 15.4815C13.3175 15.3826 13.3712 15.2548 13.4454 15.1847C14.5428 14.1046 15.6444 13.0327 16.7459 11.9609C17.34 11.3837 17.9424 10.8066 18.5406 10.2294C18.586 10.1882 18.6231 10.1387 18.6974 10.0604C16.9192 10.0604 15.1782 10.0604 13.4248 10.0604C13.4248 8.99268 13.4248 7.94968 13.4248 6.89844C16.911 6.89844 20.4012 6.89844 23.9039 6.89844C23.908 6.96028 23.9163 7.01799 23.9163 7.07571C23.9163 7.99091 23.9204 8.90198 23.9122 9.81718C23.9122 9.90788 23.8709 10.0192 23.809 10.081C22.5301 11.3384 21.247 12.5875 19.9639 13.8408C19.5266 14.2695 19.0893 14.6941 18.6479 15.1187C18.619 15.1435 18.5942 15.1723 18.5406 15.2301Z" fill="#BFF2E6"/>
<path d="M56.4633 18.4747C55.1679 18.4747 53.8889 18.4747 52.6058 18.4747C52.6058 14.6119 52.6058 10.7615 52.6058 6.89453C53.8889 6.89453 55.1679 6.89453 56.4633 6.89453C56.4633 10.7491 56.4633 14.6036 56.4633 18.4747Z" fill="#BFF2E6"/>
<path d="M20.2237 23.6524C20.4218 23.6524 20.6074 23.64 20.7889 23.6606C20.8508 23.6689 20.9168 23.7513 20.954 23.8131C21.4614 24.6294 21.9606 25.4498 22.4639 26.2702C22.497 26.3279 22.5382 26.3815 22.5836 26.4557C22.9796 25.8167 23.3675 25.1901 23.7511 24.5676C23.9038 24.3243 24.0606 24.0811 24.2008 23.8296C24.2792 23.6895 24.37 23.6318 24.5268 23.6482C24.6547 23.6606 24.7825 23.6524 24.9269 23.6524C24.9269 25.1859 24.9269 26.703 24.9269 28.2284C24.733 28.2284 24.5433 28.2284 24.3329 28.2284C24.3329 27.0947 24.3329 25.9651 24.3329 24.8355C24.3164 24.8314 24.2999 24.8232 24.2875 24.819C23.7264 25.726 23.1612 26.633 22.5712 27.5811C21.9895 26.633 21.4325 25.7342 20.8756 24.8314C20.8632 24.8355 20.8508 24.8355 20.8384 24.8397C20.8384 25.9651 20.8384 27.0906 20.8384 28.2284C20.6198 28.2284 20.4218 28.2284 20.2196 28.2284C20.2237 26.7072 20.2237 25.1983 20.2237 23.6524Z" fill="#BFF2E6"/>
<path d="M4.86003 28.2291C4.65788 28.2291 4.47635 28.2291 4.27832 28.2291C4.27832 27.182 4.27832 26.1431 4.27832 25.096C4.4681 25.096 4.64963 25.096 4.84353 25.096C4.85178 25.1743 4.85591 25.2485 4.86416 25.3228C5.75117 24.8487 6.08535 24.861 6.69181 25.3887C6.96411 25.1578 7.28178 25.0136 7.65309 24.9888C8.3627 24.9352 8.9114 25.3846 8.93616 26.0978C8.96091 26.7821 8.94028 27.4706 8.94028 28.159C8.94028 28.1796 8.93203 28.1961 8.92378 28.2291C8.734 28.2291 8.54835 28.2291 8.33794 28.2291C8.33794 27.7633 8.33794 27.3139 8.33794 26.8604C8.33794 26.6749 8.34207 26.4894 8.33794 26.3039C8.32144 25.6608 7.77273 25.3557 7.21164 25.6814C7.00949 25.801 6.88159 25.937 6.8981 26.2173C6.9311 26.8811 6.91047 27.5448 6.91047 28.225C6.70419 28.225 6.51441 28.225 6.31226 28.225C6.31226 27.8169 6.31226 27.4211 6.31226 27.0212C6.31226 26.8027 6.31226 26.5801 6.31226 26.3616C6.31226 25.9535 6.16373 25.6814 5.88732 25.5907C5.57377 25.4835 5.1117 25.6402 4.91367 25.9288C4.87654 25.9824 4.86829 26.0689 4.86829 26.1431C4.86416 26.7615 4.86829 27.3799 4.86829 27.9983C4.86003 28.0725 4.86003 28.1467 4.86003 28.2291Z" fill="#BFF2E6"/>
<path d="M30.9918 27.495C31.2393 26.8642 31.4745 26.2706 31.7097 25.6728C31.7179 25.6522 31.722 25.6316 31.7303 25.6151C31.9448 25.0627 31.9448 25.0627 32.576 25.0957C32.5554 25.1534 32.543 25.2111 32.5224 25.2606C32.1387 26.1923 31.755 27.1239 31.3796 28.0597C31.3219 28.204 31.2476 28.2494 31.0908 28.2453C30.67 28.237 30.67 28.2411 30.5091 27.8577C30.1543 27.0044 29.7954 26.151 29.4406 25.2977C29.4158 25.2358 29.3911 25.174 29.3622 25.0915C29.5726 25.0915 29.7665 25.0792 29.9521 25.0998C30.0058 25.1039 30.0759 25.1905 30.1007 25.2523C30.3688 25.9284 30.6329 26.6045 30.8969 27.2806C30.9217 27.3424 30.9506 27.4001 30.9918 27.495Z" fill="#BFF2E6"/>
<path d="M13.3258 25.095C13.5238 25.095 13.7012 25.095 13.8992 25.095C13.8992 25.2351 13.8992 25.3629 13.8992 25.5649C14.2004 25.1032 14.5717 24.9301 15.0668 25.0084C15.0668 25.2228 15.0668 25.4289 15.0668 25.6598C14.9637 25.6598 14.8646 25.6639 14.7615 25.6598C14.3448 25.6309 13.8704 26.0225 13.9034 26.5131C13.9364 27.0037 13.9116 27.5025 13.9116 27.9972C13.9116 28.0714 13.9116 28.1456 13.9116 28.2322C13.7012 28.2322 13.5156 28.2322 13.3217 28.2322C13.3258 27.181 13.3258 26.1462 13.3258 25.095Z" fill="#BFF2E6"/>
</svg>
