<svg width="91" height="20" viewBox="0 0 91 20" fill="none" xmlns="http://www.w3.org/2000/svg">
<path d="M28.542 15.5962H26.1876V12.3001H23.1348V15.5962H20.7741V7.20243H23.1348V10.3745H26.1937V7.20243H28.5482V15.5962H28.542ZM32.2931 14.149L31.8729 15.5962H29.4257L32.0583 7.20834H35.6178L38.2936 15.5962H35.8959L35.4324 14.149H32.2869H32.2931ZM33.8751 8.8741L32.7937 12.5246H34.9813L33.869 8.8741H33.8751ZM39.1773 7.20243H43.9604C44.7576 7.20834 45.3941 7.35601 45.87 7.63364C46.3396 7.91717 46.5807 8.49015 46.5807 9.35256C46.5807 9.84284 46.5127 10.2622 46.3705 10.6166C46.2408 10.9711 45.8514 11.2073 45.2087 11.3078V11.3668C45.8082 11.4259 46.2099 11.6031 46.4138 11.9103C46.6177 12.2056 46.7228 12.6368 46.7228 13.1921C46.7228 14.1372 46.525 14.7692 46.1357 15.1C45.7464 15.4308 45.0357 15.5962 43.9975 15.5962H39.1773V7.20243ZM43.0335 10.5635C43.0699 10.572 43.1073 10.576 43.1447 10.5753H43.2312C43.5155 10.5694 43.7565 10.528 43.9481 10.469C44.1458 10.4099 44.2447 10.2032 44.2447 9.86056C44.2447 9.5534 44.1891 9.34666 44.084 9.23442C43.9728 9.11629 43.7627 9.06312 43.4413 9.06312H41.538V10.5635H43.0335ZM43.1015 13.7473C43.4722 13.7532 43.7812 13.7237 44.0161 13.6528C44.2633 13.5819 44.3807 13.3398 44.3807 12.9263C44.3807 12.5364 44.288 12.3001 44.0964 12.2292C43.911 12.1584 43.6267 12.1229 43.2621 12.1229H41.5318V13.7473H43.1015ZM49.8559 14.149L49.4357 15.5962H46.9885L49.6211 7.20834H53.1868L55.8626 15.5962H53.4649L53.0014 14.149H49.8559ZM51.4379 8.8741L50.3565 12.5246H52.5441L51.4317 8.8741H51.4379ZM65.2434 15.5962H61.2637L58.7918 9.13991H58.6682L58.7733 15.5962H56.4682V7.20243H60.4356L62.9075 13.5819H63.0002L62.9075 7.20243H65.2372V15.5962H65.2434ZM68.7597 10.5635H72.4984V12.1229H68.7597V13.7473H72.8383V15.5962H66.4052V7.20243H72.758V9.05131H68.7535V10.5635H68.7597ZM73.9445 7.20243H78.3692C79.4939 7.20834 80.2972 7.39146 80.7793 7.75178C81.2613 8.1062 81.5023 8.84457 81.5023 9.97279C81.5023 10.5989 81.4343 11.1069 81.286 11.4968C81.1439 11.8926 80.6618 12.1702 79.8461 12.3356V12.4124C80.3899 12.4478 80.7916 12.6014 81.0512 12.8849C81.3294 13.2214 81.468 13.6441 81.4405 14.0722V15.5962H79.0428V14.4739C79.0428 14.1431 78.9748 13.8714 78.8388 13.6764C78.7029 13.4815 78.4433 13.3811 78.054 13.3811H76.3051V15.5962H73.9507V7.20243H73.9445ZM78.1714 11.4554C78.604 11.4673 78.8635 11.3727 78.9562 11.1778C79.0601 10.9139 79.1063 10.6325 79.0922 10.3508C79.0922 9.93735 79.0489 9.6361 78.9501 9.44117C78.8512 9.24624 78.5546 9.15173 78.054 9.15173L76.3051 9.13991V11.4554H78.1714ZM82.4231 10.9593C82.4247 10.4471 82.466 9.93571 82.5467 9.42935C82.7073 8.49015 83.1585 7.88173 83.8877 7.60411C84.6169 7.32648 85.4017 7.17881 86.2421 7.16699H86.5079C88.0219 7.16699 89.0848 7.40918 89.6904 7.89945C90.296 8.38973 90.5988 9.39982 90.5988 10.912C90.5988 12.4655 90.4196 13.6469 90.0674 14.4562C89.709 15.2595 88.5472 15.6612 86.5697 15.6612C86.2748 15.6596 85.9802 15.6498 85.686 15.6316C85.0247 15.608 84.3944 15.4781 83.8073 15.2418C83.2203 15.0055 82.8186 14.5389 82.6085 13.8359C82.5202 13.5534 82.4663 13.262 82.4478 12.9676C82.4292 12.6723 82.4231 12.3769 82.4231 12.0816V11.4554V10.9593ZM84.8332 11.42V11.9221C84.8332 12.5128 84.895 12.9676 85.0309 13.2807C85.1669 13.5938 85.5933 13.7473 86.3225 13.7473C87.1258 13.7473 87.6388 13.6233 87.855 13.3752C88.0713 13.1271 88.1764 12.6486 88.1764 11.9339V11.6326L88.1949 11.3196V11.0183V10.7112C88.1949 10.15 88.1084 9.74242 87.9416 9.48252C87.7747 9.22261 87.373 9.09266 86.7427 9.09266C85.8281 9.09266 85.2905 9.2108 85.1174 9.44707C84.9444 9.68335 84.8517 10.3213 84.8332 11.3786V11.4318V11.42Z" fill="#BFF2E6"/>
<path fill-rule="evenodd" clip-rule="evenodd" d="M7.67314 2.67185C7.92032 2.67185 8.11808 2.48283 8.11808 2.25246V1.03563C8.11808 0.923615 8.07152 0.816189 7.98866 0.736984C7.9058 0.657778 7.79341 0.613281 7.67623 0.613281C7.55904 0.613281 7.44665 0.657778 7.36379 0.736984C7.28093 0.816189 7.23438 0.923615 7.23438 1.03563V2.25246C7.23438 2.48874 7.43213 2.67185 7.67314 2.67185Z" fill="#BFF2E6"/>
<path fill-rule="evenodd" clip-rule="evenodd" d="M5.91798 3.78804C6.16517 3.78804 6.35674 3.59902 6.35674 3.36865V2.15182C6.35674 2.04059 6.31051 1.93391 6.22823 1.85526C6.14595 1.77661 6.03434 1.73242 5.91798 1.73242C5.80161 1.73242 5.69001 1.77661 5.60773 1.85526C5.52544 1.93391 5.47922 2.04059 5.47922 2.15182V3.36865C5.47922 3.59902 5.67697 3.78213 5.91798 3.78213V3.78804Z" fill="#BFF2E6"/>
<path fill-rule="evenodd" clip-rule="evenodd" d="M5.91798 0.976435C6.16517 0.976435 6.35674 0.793319 6.35674 0.562948C6.35674 0.451718 6.31051 0.345044 6.22823 0.266392C6.14595 0.187741 6.03434 0.143555 5.91798 0.143555C5.80161 0.143555 5.69001 0.187741 5.60773 0.266392C5.52544 0.345044 5.47922 0.451718 5.47922 0.562948C5.47922 0.793319 5.67697 0.976435 5.91798 0.976435Z" fill="#BFF2E6"/>
<path fill-rule="evenodd" clip-rule="evenodd" d="M9.43426 4.10724C9.67527 4.10724 9.86684 3.91822 9.86684 3.68785V3.69967C9.86684 3.64459 9.85549 3.59005 9.83344 3.53917C9.81139 3.48829 9.77907 3.44205 9.73833 3.40311C9.69759 3.36417 9.64922 3.33327 9.59599 3.3122C9.54275 3.29112 9.4857 3.28027 9.42808 3.28027C9.37046 3.28027 9.31341 3.29112 9.26017 3.3122C9.20694 3.33327 9.15857 3.36417 9.11783 3.40311C9.07709 3.44205 9.04477 3.48829 9.02272 3.53917C9.00067 3.59005 8.98932 3.64459 8.98932 3.69967V3.68785C8.98932 3.92413 9.18707 4.10724 9.43426 4.10724Z" fill="#BFF2E6"/>
<path fill-rule="evenodd" clip-rule="evenodd" d="M12.9382 7.22021C12.7034 7.22021 12.5056 7.40333 12.5056 7.6337V7.84635C12.5023 7.95758 12.453 8.06301 12.3684 8.13944C12.2838 8.21588 12.1709 8.25706 12.0545 8.25393C11.9381 8.25079 11.8278 8.2036 11.7479 8.12273C11.6679 8.04187 11.6248 7.93395 11.6281 7.82272V6.77719C11.6281 6.66518 11.5815 6.55775 11.4987 6.47854C11.4158 6.39934 11.3034 6.35484 11.1862 6.35484C11.069 6.35484 10.9567 6.39934 10.8738 6.47854C10.7909 6.55775 10.7444 6.66518 10.7444 6.77719V6.79491C10.7517 6.85376 10.7459 6.91343 10.7274 6.96999C10.7089 7.02655 10.678 7.07871 10.6368 7.12303C10.5957 7.16735 10.5451 7.20283 10.4886 7.22713C10.432 7.25143 10.3707 7.26399 10.3087 7.26399C10.2467 7.26399 10.1854 7.25143 10.1288 7.22713C10.0723 7.20283 10.0218 7.16735 9.9806 7.12303C9.93943 7.07871 9.90856 7.02655 9.89002 6.96999C9.87148 6.91343 9.8657 6.85376 9.87304 6.79491V5.04055C9.87304 4.98547 9.86169 4.93093 9.83964 4.88005C9.81759 4.82917 9.78528 4.78293 9.74453 4.74399C9.70379 4.70505 9.65542 4.67415 9.60219 4.65308C9.54896 4.632 9.4919 4.62115 9.43428 4.62115C9.37666 4.62115 9.31961 4.632 9.26638 4.65308C9.21314 4.67415 9.16477 4.70505 9.12403 4.74399C9.08329 4.78293 9.05097 4.82917 9.02892 4.88005C9.00687 4.93093 8.99552 4.98547 8.99552 5.04055V5.71394C8.99552 5.95022 8.77305 6.12742 8.55676 6.12742C8.30957 6.12742 8.118 5.95022 8.118 5.71394V3.82371C8.118 3.7117 8.07145 3.60428 7.98858 3.52507C7.90572 3.44586 7.79334 3.40137 7.67615 3.40137C7.55896 3.40137 7.44658 3.44586 7.36371 3.52507C7.28085 3.60428 7.2343 3.7117 7.2343 3.82371V5.46585C7.2343 5.57708 7.18807 5.68375 7.10579 5.7624C7.02351 5.84105 6.9119 5.88524 6.79554 5.88524C6.67917 5.88524 6.56757 5.84105 6.48529 5.7624C6.403 5.68375 6.35678 5.57708 6.35678 5.46585V4.87515C6.35678 4.76392 6.31055 4.65725 6.22827 4.5786C6.14598 4.49994 6.03438 4.45576 5.91802 4.45576C5.80165 4.45576 5.69005 4.49994 5.60777 4.5786C5.52548 4.65725 5.47926 4.76392 5.47926 4.87515V6.13924C5.47926 6.25047 5.43303 6.35714 5.35075 6.43579C5.26846 6.51445 5.15686 6.55863 5.04049 6.55863C4.92413 6.55863 4.81253 6.51445 4.73024 6.43579C4.64796 6.35714 4.60173 6.25047 4.60173 6.13924V4.38487C4.60173 4.27364 4.55551 4.16697 4.47322 4.08832C4.39094 4.00967 4.27934 3.96548 4.16297 3.96548C4.04661 3.96548 3.93501 4.00967 3.85272 4.08832C3.77044 4.16697 3.72421 4.27364 3.72421 4.38487V7.07254C3.72421 7.18377 3.67799 7.29044 3.5957 7.36909C3.51342 7.44774 3.40182 7.49193 3.28545 7.49193C3.16909 7.49193 3.05748 7.44774 2.9752 7.36909C2.89292 7.29044 2.84669 7.18377 2.84669 7.07254V6.3637C2.84669 6.25247 2.80046 6.1458 2.71818 6.06715C2.6359 5.98849 2.5243 5.94431 2.40793 5.94431C2.29156 5.94431 2.17996 5.98849 2.09768 6.06715C2.0154 6.1458 1.96917 6.25247 1.96917 6.3637V8.33662C1.96917 8.44785 1.92294 8.55453 1.84066 8.63318C1.75838 8.71183 1.64678 8.75602 1.53041 8.75602C1.41404 8.75602 1.30244 8.71183 1.22016 8.63318C1.13787 8.55453 1.09165 8.44785 1.09165 8.33662V7.68686C1.09165 7.57563 1.04542 7.46895 0.963138 7.3903C0.880854 7.31165 0.769254 7.26747 0.652887 7.26747C0.536521 7.26747 0.42492 7.31165 0.342637 7.3903C0.260353 7.46895 0.214127 7.57563 0.214127 7.68686L0.207947 8.33662V15.6022L6.79554 19.2409L13.3708 15.6022V11.0066V7.6396C13.3708 7.40333 13.1792 7.22021 12.9382 7.22021ZM9.89776 14.344H7.82755V12.8495H5.75734V14.3499H3.69331V9.64206H5.75734V11.2251H7.82755V9.64206H9.89776V14.3558V14.344Z" fill="#BFF2E6"/>
</svg>
