<svg width="70" height="30" viewBox="0 0 70 30" fill="none" xmlns="http://www.w3.org/2000/svg">
<path d="M53.0523 7.08973C53.0523 7.22712 53.1759 7.29581 53.2034 7.44693C53.3132 7.96898 53.4918 8.4773 53.6566 8.97187C53.8626 9.57635 54.1098 10.1534 54.2884 10.7716C54.3845 11.0738 54.4944 11.3761 54.7553 11.6234C55.1811 11.6234 55.6068 11.6234 56.0738 11.6234C56.0738 10.7304 56.0738 9.83738 56.0738 8.95813C56.0738 8.72458 56.0051 8.4773 56.1974 8.25748C56.2661 8.18879 56.2524 7.9415 56.1837 7.87281C56.0463 7.73543 56.0601 7.58431 56.0738 7.43319C56.1425 6.23796 55.909 5.04274 56.2112 3.84751C56.2936 3.53153 56.0463 3.27051 56.0601 2.94079C56.0738 2.63855 56.3622 2.37752 56.17 2.06154C55.6755 2.06154 55.1811 2.06154 54.6592 2.06154C54.8515 3.47658 54.4944 4.83666 54.563 6.22423C54.563 6.23796 54.5356 6.2517 54.4944 6.29292C54.3982 5.9632 54.2197 5.70217 54.1236 5.35872C54.0549 5.08395 54.0961 4.78171 53.9725 4.53442C53.8626 4.30087 53.739 4.08106 53.7253 3.8063C53.6978 3.54527 53.4918 3.32546 53.4231 3.03696C53.3819 2.8721 53.3544 2.70724 53.327 2.52864C53.327 2.48743 53.2858 2.45995 53.272 2.45995C53.0935 2.37752 52.9287 2.48743 52.7913 2.37752C52.7639 2.29509 52.9424 2.28135 52.86 2.17145C52.7089 2.17145 52.5578 2.17145 52.3244 2.17145C52.2832 2.24014 52.2145 2.36378 52.1458 2.48743C51.8437 2.59733 51.6651 2.25388 51.3904 2.30883C51.3904 3.20182 51.3904 4.06732 51.3904 4.93283C51.3904 5.08395 51.4316 5.29003 51.363 5.39993C51.157 5.6747 51.1982 6.00441 51.2806 6.23796C51.4454 6.70506 51.363 7.17216 51.3904 7.62553C51.4042 7.84534 51.3904 8.07889 51.3904 8.33991C51.6926 8.33991 51.9535 8.33991 52.2832 8.33991C51.981 8.54599 51.7201 8.64215 51.4179 8.60094C51.4179 9.60383 51.4179 10.593 51.4179 11.6096C51.6926 11.486 51.7201 11.8706 51.9535 11.8981C52.1733 11.6783 52.4617 11.7882 52.7089 11.747C52.7776 11.6783 52.8325 11.6234 52.9012 11.5547C52.9012 10.9639 52.9012 10.3732 52.9012 9.76869C52.9012 9.24664 52.9699 8.69711 52.5716 8.24375C52.8325 7.98272 52.7501 7.69422 52.7639 7.40571C52.7776 7.29581 52.6677 7.11721 52.9012 7.08973C52.9699 7.08973 53.0111 7.08973 53.0523 7.08973ZM56.6369 14.4397C56.7468 14.5908 56.8841 14.7145 56.9803 14.9068C57.406 15.7723 57.9829 16.5554 58.4636 17.3797C58.9717 18.2177 59.5486 19.0145 59.9331 19.935C60.0842 20.2784 60.2902 20.6082 60.4825 20.9379C60.5374 21.4462 60.3177 21.8858 60.0567 22.2705C59.37 23.2596 58.8207 24.3312 58.1751 25.3478C57.6807 26.1172 57.2138 26.914 56.7331 27.6971C56.5957 27.9306 56.4721 28.1917 56.3348 28.4664C56.4858 28.5076 56.5133 28.7 56.7605 28.6588C57.1313 28.384 57.5708 28.5626 57.9829 28.7274C58.1202 28.7824 58.2988 28.8511 58.3537 28.7961C58.5872 28.5763 58.8893 28.6725 59.1503 28.5626C59.3975 28.4527 59.7271 28.5351 60.0018 28.5351C60.8671 27.807 61.2928 26.8178 61.8697 25.9111C62.1169 25.5127 62.268 25.0456 62.7349 24.7846C63.2705 25.4577 63.7925 26.1034 64.2869 26.7766C64.7951 27.4498 65.2758 28.1504 65.7427 28.8099C66.0998 28.8099 66.402 28.7824 66.7041 28.8099C67.2947 28.8648 67.8715 28.7824 68.4346 28.645C68.7917 28.5626 69.2037 28.5214 69.4372 28.1642C69.4235 28.0405 69.4098 27.9444 69.3686 27.8345C69.2449 27.5322 68.9565 27.3674 68.778 27.1201C68.2835 26.4194 67.8166 25.6776 67.3084 24.9769C66.814 24.29 66.3745 23.5893 66.0174 22.8337C65.9625 22.7101 65.8801 22.6139 65.8114 22.504C65.317 21.6248 64.6577 20.8554 64.1907 19.9487C63.9435 19.4541 63.6414 18.9733 63.3255 18.5199C62.5976 17.4896 61.9795 16.3905 61.4439 15.2502C61.1692 14.6595 60.8259 14.0962 60.2765 13.6978C60.1254 13.739 59.9743 13.6566 59.8233 13.7665C59.631 13.9039 59.37 13.8902 59.1915 13.794C58.8893 13.6154 58.5185 13.6429 58.285 13.739C58.0378 13.8352 57.8043 13.8215 57.5708 13.8352C57.3374 13.8489 57.1176 13.8352 56.8841 13.8352C56.8155 13.9039 56.7468 13.9726 56.6781 14.0413C56.6369 14.1512 56.6369 14.2886 56.6369 14.4397ZM39.2768 20.8967C39.3867 20.6356 39.6202 20.6768 39.7163 20.512C39.7987 20.3609 40.0872 20.3059 40.1146 20.2097C40.1833 20.0174 40.3206 19.9212 40.4305 19.7976C40.5679 19.6465 40.6503 19.4679 40.6915 19.2893C40.8288 18.5612 41.0211 17.833 40.9936 17.0637C40.9799 16.6928 40.87 16.3493 40.6777 16.102C40.4168 15.7723 40.2245 15.3876 39.8811 15.1266C39.8125 15.0716 39.7575 14.9755 39.6889 14.9343C39.3455 14.7694 39.0022 14.5908 38.6588 14.4534C38.3292 14.316 38.0133 14.0688 37.6287 14.1237C37.2167 14.1787 36.8459 13.9726 36.4476 13.9726C35.651 13.9726 34.8544 13.9726 34.0578 13.9726C33.9205 14.1374 33.6733 14.11 33.6046 14.2611C33.6046 14.8793 33.6046 15.4426 33.6046 16.0333C34.3188 16.0333 35.0055 16.0471 35.6785 16.0196C35.8982 16.0058 36.0905 16.0883 36.2278 16.1844C36.6948 16.5142 37.203 16.8027 37.409 17.3797C37.409 17.5033 37.409 17.6132 37.409 17.7231C37.4365 18.7398 36.9695 19.4404 36.0356 19.7976C35.5549 19.9899 35.0604 20.1548 34.5385 20.1411C34.2226 20.1411 33.9068 20.1411 33.5634 20.1411C33.5909 20.8967 33.5359 21.6248 33.5909 22.3941C33.7282 22.2018 33.7419 22.0369 33.8793 21.9545C34.305 21.8446 34.7308 21.9408 35.1154 22.0919C35.3076 22.1606 35.4862 22.1881 35.6785 22.2155C36.5437 22.298 37.2854 22.5727 37.6837 23.4108C37.6837 23.7679 37.7111 24.1114 37.6837 24.4549C37.5875 25.2654 37.2304 25.7875 36.4476 26.076C35.8295 26.3095 35.2115 26.3507 34.566 26.337C34.2638 26.337 33.9342 26.282 33.7419 26.5293C33.6458 26.9003 33.5359 27.2437 33.5771 27.6009C33.6183 27.9581 33.5771 28.3153 33.5909 28.6725C34.1814 28.6725 34.7033 28.6862 35.239 28.6725C35.9532 28.6313 36.6673 28.7549 37.3815 28.5626C37.7111 28.4802 38.082 28.4802 38.3841 28.3153C38.7137 28.1367 39.0983 28.1642 39.4142 27.9718C40.0048 27.6284 40.4992 27.1613 40.8563 26.598C41.3095 25.8562 41.4881 25.0181 41.5705 24.1389C41.6117 23.6718 41.337 23.2734 41.4194 22.8612C40.8975 21.9682 40.2794 21.2401 39.2768 20.8967ZM51.1982 15.8822C51.2943 16.4729 51.2943 25.6501 51.1982 26.1584C50.6213 26.337 50.072 25.8974 49.5088 26.076C49.344 26.7766 49.2616 27.4773 49.193 28.2054C49.4539 28.1779 49.2754 28.4389 49.3852 28.4939C50.3466 28.5901 51.2943 28.4527 52.242 28.6175C52.9836 28.7549 53.7802 28.645 54.5218 28.645C54.8789 28.0955 54.9888 27.7246 54.9888 27.0651C54.7691 26.8178 54.6455 26.5431 54.7416 26.2134C54.8789 25.7325 54.9888 25.2379 54.9888 24.7434C55.0025 22.3666 54.9888 19.9899 54.9888 17.5995C54.9888 16.9813 54.9613 16.363 55.0025 15.7448C55.0437 15.1403 54.7416 14.5633 54.8515 14.0138C54.6592 13.7665 54.357 13.7665 54.2472 13.5055C53.8077 13.5879 53.3682 13.4917 52.9149 13.6291C52.5166 13.7528 52.0497 13.6566 51.6239 13.6566C51.2943 13.9451 50.9509 14.0001 50.5389 13.8077C50.223 13.6566 49.8659 13.6017 49.4814 13.7116C49.5638 14.4259 49.3166 15.1678 49.6737 15.8685C50.1956 15.8822 50.7037 15.8822 51.1982 15.8822ZM43.713 13.9039C43.8503 14.3435 43.5345 14.7419 43.5894 15.1953C43.6443 15.7723 43.5757 16.3493 43.6993 16.9263C43.7954 17.3797 43.8091 17.888 43.6169 18.3826C43.507 18.6573 43.5619 19.0145 43.6031 19.3305C43.6443 19.674 43.4383 19.9625 43.452 20.3059C43.4795 21.0615 43.4658 21.8171 43.4658 22.5727C43.4658 22.7101 43.4246 22.875 43.4933 22.9711C43.7267 23.2871 43.4795 23.6443 43.6306 23.9465C43.8091 24.3037 43.6443 24.606 43.6169 24.9494C43.5757 25.5814 43.4658 26.2546 43.7405 26.859C43.6306 27.0789 43.5345 27.2712 43.4246 27.4773C43.7405 27.752 43.919 28.0818 43.8641 28.4802C44.0289 28.5626 44.18 28.4664 44.2898 28.6038C44.4134 28.7412 44.6469 28.7137 44.7293 28.6588C44.9628 28.4664 45.1963 28.5351 45.4435 28.5351C46.556 28.5214 47.6685 28.5351 48.8221 28.5351C48.7947 27.6833 48.8496 26.8728 48.7809 26.0348C48.1217 26.1447 47.5036 25.9523 46.9131 26.1584C46.8169 26.0622 46.762 25.9935 46.7483 25.8562C46.6659 25.3066 46.9131 24.7983 46.8993 24.2625C46.8719 23.2047 46.8993 22.1468 46.7895 21.089C46.6659 19.9762 46.762 18.8497 46.762 17.7231C46.762 17.4484 46.6796 17.1461 46.8856 16.8714C46.9405 16.7889 46.9405 16.5829 46.8307 16.4317C46.6796 16.2119 46.7071 15.9646 46.968 15.7586C47.5311 15.7173 48.1354 15.8547 48.6573 15.5525C48.6573 14.9205 48.6573 14.316 48.6573 13.6703C48.3552 13.7665 48.053 13.5742 47.7921 13.8215C47.7234 13.8902 47.4624 13.8902 47.4075 13.8215C47.2015 13.6154 46.9817 13.6978 46.762 13.6978C45.8693 13.6841 44.9765 13.6978 44.0838 13.6978C44.0014 13.8352 43.8229 13.7803 43.713 13.9039ZM33.1239 28.5076C33.1239 23.6993 33.1239 18.9046 33.1239 14.0962C32.0938 14.0962 31.0912 14.0962 30.0886 14.0962C30.0749 14.0962 30.0474 14.11 30.0337 14.1237C30.02 14.1374 30.0062 14.1512 29.9925 14.1787C29.9925 18.0941 29.9925 21.9957 29.9925 25.9111C29.9925 26.7766 29.8964 27.6559 30.1848 28.5076C31.1462 28.5076 32.1213 28.5076 33.1239 28.5076ZM60.4688 6.69133C61.1829 8.31244 61.6362 10.0022 62.2542 11.6096C62.7486 11.6096 63.1744 11.6096 63.5864 11.6096C63.7513 11.3348 63.7787 11.0601 63.7787 10.7716C63.765 8.02393 63.7787 5.29003 63.765 2.54238C63.765 2.36378 63.8337 2.18519 63.7238 2.0478C63.2293 2.0478 62.7486 2.0478 62.2542 2.0478C62.2542 3.57275 62.2542 5.08395 62.2542 6.58142C62.2542 6.59516 62.2405 6.62263 62.2405 6.63637C62.2267 6.65011 62.213 6.66385 62.1855 6.69133C61.9795 6.03189 61.7735 5.38619 61.5812 4.7405C61.4164 4.19097 61.128 3.66892 61.1555 3.06443C61.1555 2.94079 61.0319 2.78967 60.9357 2.67976C60.7435 2.44621 60.51 2.24014 60.1941 2.14397C59.9194 2.36378 59.6035 2.25388 59.164 2.30883C59.1503 2.25388 59.0953 2.1165 59.0541 1.97911C58.9992 2.06154 58.9717 2.07528 58.9717 2.10276C58.9717 2.74845 58.9717 3.38041 58.9717 4.02611C58.9717 4.19097 58.9992 4.35583 58.8893 4.53442C58.7108 4.82293 58.9855 5.12517 58.958 5.41367C58.9305 5.70217 58.7383 5.97694 58.9168 6.29292C59.0541 6.52647 59.0404 6.84245 58.958 7.00731C58.8207 7.25459 58.8619 7.48814 58.8481 7.72169C58.8069 8.60094 59.0679 9.45271 58.9855 10.3457C58.9443 10.8677 58.9717 11.3898 58.9717 11.9119C59.4662 11.9668 59.8645 11.6646 60.304 11.8019C60.4001 11.4035 60.7572 11.1425 60.5924 10.7304C60.51 10.6205 60.3726 10.5655 60.3452 10.4144C60.3726 10.2633 60.4962 10.1671 60.4962 9.9885C60.4688 9.48019 60.4825 8.98561 60.4825 8.47729C60.4688 7.85907 60.4688 7.28207 60.4688 6.69133ZM65.6191 2.00659C65.5504 2.08902 65.4543 2.10276 65.3856 2.14397C64.6165 2.55612 64.1633 3.14686 64.177 4.08106C64.2045 5.72965 64.1907 7.37824 64.177 9.02682C64.177 9.60383 64.2319 10.1534 64.438 10.7029C64.589 11.0876 64.7676 11.4585 65.1384 11.5959C65.468 11.7195 65.7839 12.1042 66.2097 11.7607C66.2646 11.7195 66.4157 11.747 66.5256 11.8157C66.814 11.9805 67.1573 11.9531 67.432 11.8432C67.6106 11.7745 67.7754 11.747 67.9402 11.7607C68.2973 11.7745 68.5994 11.692 68.8329 11.431C68.9153 11.1837 68.7917 10.9639 68.6956 10.7578C68.9565 10.5518 68.9291 10.2083 68.8329 10.0572C68.6406 9.76869 68.6681 9.45271 68.7368 9.21916C68.8879 8.72458 68.8466 8.24375 68.8466 7.76291C68.8466 7.52936 68.9703 7.35076 68.984 7.25459C68.778 7.02104 68.6269 6.84245 68.4758 6.66385C67.7616 6.97983 67.0063 6.74628 66.2509 6.85618C66.2509 7.32328 66.4569 7.74917 66.402 8.21627C66.6629 8.21627 66.8552 8.21627 67.0337 8.21627C67.1024 8.28496 67.1573 8.33991 67.2123 8.39487C67.2123 8.88944 67.2123 9.39776 67.2123 9.90607C66.9788 10.1946 66.7041 10.4419 66.3333 10.5518C65.9213 10.1259 65.6878 9.67252 65.7015 9.06804C65.729 8.20253 65.7152 7.32328 65.7015 6.45778C65.7015 6.18301 65.7839 5.88077 65.5779 5.61974C65.5092 5.53731 65.523 5.30376 65.6054 5.23507C65.7702 5.07021 65.7015 4.89162 65.7015 4.72676C65.7015 4.13601 65.935 3.69639 66.4569 3.39415C66.9239 3.82004 67.2672 4.30087 67.226 4.98779C67.2123 5.13891 67.3496 5.30376 67.4046 5.45488C67.7204 5.68843 68.0638 5.55105 68.4621 5.59227C68.2835 5.23507 68.6406 5.37246 68.7368 5.22134C68.6132 4.89162 68.8467 4.60311 68.8741 4.2734C68.9016 3.92994 68.7093 3.64144 68.6956 3.31172C68.6818 2.982 68.2973 2.81714 68.1599 2.5149C68.0226 2.21266 67.6243 2.13023 67.3634 1.85547C66.8277 2.07528 66.2509 1.99285 65.6191 2.00659ZM63.092 17.7506C63.1469 17.8056 63.2294 17.8468 63.2706 17.9292C63.8062 18.7535 64.3418 19.5915 64.8637 20.4296C64.9461 20.5669 65.0011 20.7181 65.2071 20.6906C65.4406 20.2922 65.6878 19.8938 65.8801 19.4679C66.347 18.465 66.9101 17.5171 67.6655 16.7065C67.8029 16.5691 67.9265 16.363 67.8853 16.0883C68.5857 15.5113 68.9703 14.7557 69.1351 13.8215C68.6544 13.8215 68.2423 13.794 67.8441 13.8352C67.4732 13.8627 67.1161 13.7803 66.7178 13.9314C66.3608 14.0688 65.9075 13.9726 65.4955 13.9726C65.2895 13.9726 65.0972 14.0825 64.9873 14.2199C64.6989 14.5359 64.4242 14.893 64.1907 15.264C63.8062 15.8547 63.4628 16.4729 63.092 17.1049C63.092 17.2698 63.092 17.5033 63.092 17.7506ZM38.3429 3.32546C38.3704 2.8721 38.7275 2.35005 38.0957 2.00659C37.1206 2.50117 37.1206 2.50117 36.5849 3.46284C36.4751 4.75424 36.6811 6.01815 36.4476 7.28207C36.2828 8.18879 36.6261 9.10925 36.5712 10.0297C36.5437 10.4968 36.7635 10.8677 37.0519 11.1975C37.1755 11.3486 37.3128 11.4997 37.409 11.6096C37.5601 11.6096 37.6425 11.5821 37.6974 11.6096C37.8897 11.7195 38.0682 11.8432 38.288 11.6234C38.3566 11.5547 38.5489 11.6096 38.6863 11.5959C39.3043 11.5959 39.9224 11.5959 40.5404 11.5959C40.5816 11.5959 40.6228 11.5684 40.6777 11.5547C40.7464 11.3898 40.925 11.3486 41.1584 11.2387C40.9112 10.6891 40.9524 10.0847 40.9662 9.48019C40.9662 8.64215 40.9662 7.80412 40.9662 6.91114C40.1146 7.03478 39.318 6.62263 38.4253 6.85618C38.8785 7.26833 38.4528 7.73543 38.5215 8.18879C38.8099 8.18879 39.0571 8.18879 39.2631 8.18879C39.6339 8.80701 39.4004 9.41149 39.2768 10.0709C39.1807 10.2907 38.8511 10.3457 38.6451 10.5518C38.5627 10.854 38.7 11.17 38.5215 11.6096C38.4803 11.115 38.3978 10.7716 38.233 10.4281C37.9309 9.85112 37.7935 9.20542 37.8073 8.54599C37.8073 8.09262 37.7935 7.62552 37.821 7.17216C37.8485 6.82871 37.7798 6.49899 37.6562 6.21049C37.5738 6.01815 37.5463 5.83956 37.5326 5.64722C37.5189 5.029 37.7249 4.43826 37.821 3.83377C37.9858 3.68265 38.1644 3.50406 38.3429 3.32546ZM44.386 2.37752C44.386 3.55901 44.386 4.76797 44.386 5.97694C43.9602 6.03189 43.5207 5.88077 43.2048 6.18301C43.2048 6.63637 43.2048 7.06226 43.2048 7.51562C43.5757 7.50188 43.8915 7.21338 44.2486 7.40571C44.3036 7.46067 44.3448 7.50188 44.4272 7.58431C44.1525 8.90318 44.3173 10.2495 44.2624 11.5959C44.8255 11.8981 45.3336 12.0492 45.9242 11.692C45.8418 11.5134 45.9791 11.3761 46.0478 11.2249C46.144 11.0189 45.8693 10.9227 45.9105 10.7304C45.9929 10.3182 45.7319 9.96102 45.7594 9.54888C45.8006 9.13673 45.7731 8.72458 45.7731 8.31244C45.7731 6.32039 45.7731 4.32835 45.7731 2.33631C45.8555 2.25388 45.9517 2.19892 45.8693 1.97911C45.5122 2.02033 45.1139 2.33631 44.7705 1.96537C44.6332 2.13023 44.5233 2.24014 44.386 2.37752ZM58.2713 11.747C58.2713 10.2907 58.2713 8.90318 58.2713 7.50188C58.2713 7.33702 58.2026 7.11721 58.285 7.03478C58.491 6.82871 58.4224 6.59516 58.3949 6.38908C58.3674 6.12806 58.6009 5.93572 58.546 5.68843C58.5322 5.61974 58.5734 5.53731 58.546 5.48236C58.2576 4.98779 58.5185 4.42452 58.3537 3.9162C58.1751 3.39415 58.3262 2.83088 58.285 2.29509C58.2713 2.18519 58.34 2.06154 58.2026 2.02033C57.9417 1.85547 57.8181 2.21266 57.5708 2.14397C57.3648 2.08902 57.1313 2.13023 56.9391 2.13023C56.9391 5.37246 56.9391 8.54599 56.9391 11.7333C57.3786 11.747 57.8043 11.747 58.2713 11.747ZM34.5385 2.29509C34.5385 5.39993 34.5385 8.50477 34.5385 11.5821C34.9368 11.692 35.3076 11.8569 35.7197 11.7333C35.8158 11.6371 35.912 11.5409 36.0356 11.4173C36.0356 11.2387 36.1042 11.0051 36.0218 10.8403C35.8158 10.3869 35.8982 9.91981 35.8982 9.45271C35.8845 7.24085 35.8845 5.01526 35.8982 2.80341C35.8982 2.5149 35.8707 2.24014 35.6647 2.02033C35.445 1.99285 35.4038 2.25388 35.1703 2.30883C35.0055 2.29509 34.7857 2.29509 34.5385 2.29509ZM42.8889 11.6508C42.8889 10.4419 42.8477 9.31533 42.9027 8.20253C42.9576 7.076 42.6967 5.9632 42.7516 4.83666C42.7928 3.95742 42.7653 3.06443 42.7653 2.18519C42.3258 2.18519 41.9275 2.18519 41.5293 2.18519C41.5293 3.09191 41.543 3.95742 41.5293 4.82293C41.5155 5.70217 41.6391 6.58142 41.3919 7.43319C41.3919 8.86197 41.3919 10.3045 41.3919 11.7882C41.9001 11.747 42.3533 11.5134 42.8889 11.6508ZM49.344 11.7195C49.344 10.8403 49.3028 9.9885 49.3578 9.15047C49.399 8.31244 49.138 7.50188 49.2067 6.67759C49.2479 6.19675 49.193 5.71591 49.2204 5.23507C49.2479 4.7405 48.9595 4.30087 49.0831 3.79256C48.6436 3.79256 48.259 3.79256 47.8333 3.79256C47.8333 4.67181 47.8333 5.52358 47.8333 6.38908C47.8333 6.55394 47.9019 6.77376 47.8195 6.85618C47.6135 7.08973 47.6822 7.33702 47.7097 7.55683C47.7371 7.81786 47.5174 7.98272 47.5449 8.25748C47.5723 8.5872 47.6685 8.91692 47.6822 9.2329C47.6822 10.016 47.7509 10.7853 47.8745 11.5684C48.0805 11.6646 48.314 11.7745 48.5337 11.8844C48.7535 11.6646 49.0556 11.8157 49.344 11.7195ZM31.3797 10.0984C31.105 9.46645 31.2698 8.86197 31.2286 8.25748C31.5445 7.9415 31.311 7.653 31.1599 7.37824C31.1324 7.32328 31.0775 7.26833 31.0775 7.24085C31.0638 6.99357 31.2286 6.85618 31.2286 6.63637C31.2011 5.24881 31.2148 3.86125 31.2148 2.48743C31.1462 2.41874 31.0912 2.36378 31.0226 2.29509C30.7479 2.29509 30.4595 2.29509 30.1573 2.29509C30.1024 2.35005 30.0337 2.41874 29.965 2.48743C29.965 4.52069 29.965 6.54021 29.965 8.57346C29.965 9.08178 29.8964 9.59009 30.171 10.0984C30.5419 10.0984 30.9264 10.0984 31.3797 10.0984ZM50.7175 2.21266C50.5938 2.0478 50.4016 1.89668 50.2642 2.02033C50.0445 2.19892 49.8385 2.14397 49.6187 2.14397C49.0831 2.13023 48.5612 2.18519 48.0256 2.03407C47.5998 1.92416 47.1191 2.00659 46.6659 2.00659C46.5422 2.1165 46.3637 2.24014 46.4736 2.405C46.6659 2.70724 46.5423 3.05069 46.6384 3.38041C47.7234 3.38041 48.7947 3.38041 49.8659 3.38041C50.1681 3.38041 50.484 3.40789 50.7175 3.1606C50.7175 2.84462 50.7175 2.52864 50.7175 2.21266ZM40.8288 4.96031C40.8288 4.54816 40.8288 4.13601 40.8288 3.72387C40.8288 3.61396 40.8563 3.50406 40.7876 3.39415C40.4717 2.8721 40.2245 2.28135 39.6614 2.00659C39.4004 2.00659 39.167 2.00659 39.0296 2.00659C38.8511 2.14397 38.7275 2.24014 38.6313 2.32257C38.6313 2.63855 38.6313 2.91331 38.6313 3.17434C38.7687 3.31172 38.8923 3.4491 39.0296 3.57275C39.318 3.83377 39.4829 4.14975 39.4554 4.5619C39.4279 4.80919 39.4554 5.04274 39.4554 5.34498C39.8674 5.16638 40.1696 5.60601 40.5953 5.35872C40.7739 5.34498 40.6365 5.04274 40.8288 4.96031ZM29.9788 11.6096C30.2122 11.6096 30.4595 11.6096 30.7067 11.6371C30.899 11.6508 31.0775 11.6371 31.2835 11.7333C31.5033 11.8432 31.8604 11.8569 32.0664 11.747C32.3548 11.5959 32.6295 11.6646 32.9042 11.6371C33.1102 11.6234 33.3024 11.6371 33.4947 11.6371C33.6046 11.2112 33.7969 10.8265 33.6321 10.4006C32.4372 10.4006 31.256 10.4006 30.0749 10.4006C30.0612 10.4006 30.0337 10.4144 30.02 10.4281C30.0062 10.4419 29.9925 10.4556 29.9788 10.4831C29.9788 10.8265 29.9788 11.1837 29.9788 11.6096Z" fill="#BFF2E6"/>
<path d="M14.1844 0.632812C19.4034 0.632812 24.6224 0.632812 29.8414 0.632812C29.6628 0.96253 29.3332 1.11365 29.0585 1.31972C28.5503 1.70439 28.1108 2.14402 27.5477 2.47373C27.2456 2.65233 27.0121 2.9271 26.7374 3.14691C26.0782 3.65522 25.4464 4.19101 24.7734 4.69933C24.1829 5.13895 23.6747 5.661 23.0841 6.08689C22.3287 6.63642 21.6558 7.30959 20.8454 7.80417C20.5708 7.96902 20.3373 8.23005 20.0763 8.43612C19.1699 9.16425 18.2497 9.89237 17.3432 10.6205C16.7939 11.0601 16.2308 11.486 15.6264 12.0218C17.0273 12.063 18.3596 12.0081 19.7055 12.0493C19.6506 12.3927 19.4171 12.5439 19.2385 12.6675C18.7441 13.011 18.3321 13.4506 17.8514 13.794C17.3982 14.11 17.0411 14.5359 16.5741 14.8381C16.2445 15.0579 15.9698 15.3602 15.6676 15.6212C15.3106 15.9235 14.9397 16.2257 14.5826 16.5142C13.9097 17.05 13.3054 17.6545 12.5912 18.1353C12.2753 18.3414 12.0556 18.6574 11.7259 18.8772C11.3826 19.097 11.1628 19.4817 10.7783 19.7427C12.3165 19.7427 13.8685 19.7427 15.4342 19.7427C15.4342 20.0587 15.2419 20.196 15.0633 20.2922C14.2393 20.7731 13.4976 21.3913 12.7285 21.9545C11.9869 22.5178 11.204 23.0261 10.4486 23.5619C9.54219 24.1939 8.59453 24.7571 7.72928 25.444C7.20738 25.8562 6.63054 26.2134 6.06744 26.5568C5.46313 26.9278 4.90003 27.3811 4.32319 27.7933C3.65022 28.2741 2.94977 28.7137 2.29053 29.1946C2.08452 29.3457 1.93344 29.593 1.64502 29.6067C1.43901 29.6067 1.24673 29.6067 0.972046 29.6067C1.8373 28.123 2.85363 26.8179 3.78756 25.4578C4.73522 24.084 5.64168 22.6827 6.74041 21.3088C6.21851 21.2401 5.80649 21.089 5.32579 21.1028C4.8863 21.1165 4.47427 21.1852 3.99357 21.2539C4.18585 20.6769 4.52921 20.2922 4.81762 19.8801C5.5318 18.8909 6.24598 17.9155 6.96016 16.9263C7.63314 15.9921 8.27865 15.0167 9.02029 14.1237C9.29498 13.794 9.52846 13.4231 9.80314 13.0247C8.75934 13.0247 7.71554 13.0247 6.68548 13.0247C6.63054 12.8461 6.63054 12.7362 6.68548 12.5988C7.07003 11.7745 7.60567 11.0601 8.0589 10.2908C8.47092 9.59013 8.96536 8.9307 9.36365 8.21631C9.65207 7.69426 10.0229 7.21342 10.3388 6.70511C10.792 5.97698 11.259 5.26259 11.7122 4.52073C12.3165 3.53158 12.8933 2.52869 13.5663 1.58075C13.7861 1.26477 13.9097 0.893839 14.1844 0.632812Z" fill="#BFF2E6"/>
<path d="M56.6368 14.4396C56.6368 14.3022 56.6368 14.1649 56.6368 14.0275C56.7055 13.9588 56.7742 13.8901 56.8428 13.8214C57.0626 13.8214 57.2961 13.8351 57.5295 13.8214C57.763 13.8077 57.9965 13.8214 58.2437 13.7252C58.4909 13.6291 58.848 13.6016 59.1502 13.7802C59.3287 13.8901 59.5897 13.9038 59.7819 13.7527C59.933 13.6428 60.0841 13.7252 60.2352 13.684C60.7845 14.0824 61.1279 14.6457 61.4026 15.2364C61.9382 16.3767 62.5563 17.4758 63.2842 18.5061C63.6001 18.9595 63.9022 19.4403 64.1494 19.9349C64.6164 20.8416 65.2756 21.611 65.7701 22.4902C65.8387 22.6001 65.9211 22.6963 65.9761 22.8199C66.3332 23.5755 66.7864 24.2762 67.2671 24.9631C67.7753 25.6637 68.2285 26.3919 68.7367 27.1063C68.9152 27.3535 69.2036 27.5184 69.3272 27.8206C69.3684 27.9305 69.3822 28.0267 69.3959 28.1504C69.1762 28.5076 68.7504 28.5488 68.3933 28.6312C67.8302 28.7548 67.2534 28.8373 66.6628 28.7961C66.3744 28.7686 66.0722 28.7961 65.7014 28.7961C65.2344 28.1366 64.7537 27.436 64.2456 26.7628C63.7511 26.0896 63.2292 25.4439 62.6936 24.7708C62.2266 25.0318 62.0756 25.5126 61.8283 25.8973C61.2515 26.7903 60.8257 27.7932 59.9605 28.5213C59.6995 28.5213 59.3562 28.4389 59.109 28.5488C58.848 28.6724 58.5321 28.5625 58.3124 28.7823C58.2575 28.8373 58.0789 28.7686 57.9416 28.7136C57.5295 28.5488 57.0763 28.3702 56.7192 28.6449C56.4583 28.6861 56.4445 28.4938 56.2935 28.4526C56.4308 28.1778 56.5407 27.9168 56.6917 27.6833C57.1724 26.9002 57.6394 26.1034 58.1338 25.334C58.7793 24.3174 59.3287 23.2458 60.0154 22.2567C60.2764 21.872 60.5099 21.4324 60.4412 20.9241C60.2626 20.5943 60.0429 20.2646 59.8918 19.9212C59.5073 19.0144 58.9167 18.2176 58.4223 17.3659C57.9278 16.5416 57.351 15.7585 56.939 14.893C56.884 14.7144 56.7467 14.5907 56.6368 14.4396Z" fill="#BFF2E6"/>
<path d="M39.2769 20.8967C40.2795 21.2402 40.8838 21.9683 41.3782 22.8475C41.2958 23.2597 41.5705 23.6718 41.5293 24.1252C41.4469 24.9907 41.2683 25.8425 40.8151 26.5843C40.4718 27.1613 39.9636 27.6284 39.373 27.9582C39.0571 28.1368 38.6726 28.1093 38.3429 28.3016C38.0408 28.4665 37.67 28.4527 37.3403 28.5489C36.6262 28.7412 35.912 28.6176 35.1978 28.6588C34.6759 28.6863 34.1403 28.6588 33.5497 28.6588C33.5222 28.3016 33.5634 27.9444 33.536 27.5872C33.4948 27.2163 33.6184 26.8866 33.7008 26.5156C33.9068 26.2684 34.2227 26.3096 34.5248 26.3233C35.1703 26.337 35.7884 26.2821 36.4064 26.0623C37.203 25.7738 37.5464 25.2517 37.6425 24.4412C37.6837 24.0977 37.6425 23.7543 37.6425 23.3971C37.2442 22.5453 36.5026 22.2705 35.6373 22.2018C35.445 22.1881 35.2665 22.1606 35.0742 22.0782C34.6896 21.9408 34.2639 21.8309 33.8381 21.9546C33.7008 22.037 33.687 22.2156 33.5497 22.3942C33.4948 21.6111 33.536 20.8967 33.5222 20.1411C33.8656 20.1411 34.1815 20.1411 34.4974 20.1411C35.033 20.1549 35.5274 19.9763 35.9944 19.7977C36.9283 19.4267 37.3953 18.7261 37.3678 17.7232C37.3678 17.6133 37.3678 17.4896 37.3678 17.3797C37.1481 16.8027 36.6399 16.5142 36.1867 16.1845C36.0493 16.0883 35.857 16.0059 35.6373 16.0196C34.9506 16.0471 34.2639 16.0334 33.5634 16.0334C33.5634 15.4564 33.5634 14.8931 33.5634 14.2612C33.6321 14.11 33.8793 14.1375 34.0167 13.9727C34.8132 13.9727 35.6098 13.9727 36.4064 13.9727C36.8047 13.9727 37.1755 14.1787 37.5876 14.1238C37.9584 14.0826 38.2743 14.3161 38.6176 14.4535C38.9747 14.6046 39.3181 14.7695 39.6477 14.9343C39.7301 14.9755 39.7713 15.0717 39.84 15.1267C40.1833 15.3877 40.3756 15.7861 40.6366 16.1021C40.8288 16.3494 40.9387 16.6928 40.9525 17.0638C40.9799 17.8331 40.8014 18.5475 40.6503 19.2893C40.6091 19.4679 40.5404 19.6603 40.3894 19.7977C40.2657 19.9213 40.1421 20.0175 40.0735 20.2098C40.046 20.306 39.7576 20.3609 39.6752 20.512C39.6202 20.6769 39.3868 20.6357 39.2769 20.8967Z" fill="#BFF2E6"/>
<path d="M51.1982 15.8825C50.69 15.8825 50.1956 15.8825 49.6737 15.8825C49.3166 15.1819 49.5638 14.44 49.4814 13.7256C49.8797 13.6157 50.2368 13.6707 50.539 13.8218C50.951 14.0278 51.2806 13.9729 51.624 13.6707C52.0497 13.6707 52.5167 13.7668 52.915 13.6432C53.3682 13.4921 53.794 13.602 54.2472 13.5195C54.3571 13.7943 54.673 13.7806 54.8515 14.0278C54.7416 14.5774 55.0301 15.1406 55.0026 15.7589C54.9614 16.3771 54.9889 16.9953 54.9889 17.6135C54.9889 19.9902 54.9889 22.3669 54.9889 24.7574C54.9889 25.252 54.879 25.7466 54.7416 26.2274C54.6455 26.5434 54.7691 26.8319 54.9889 27.0792C54.9889 27.7386 54.8927 28.1095 54.5219 28.6591C53.7802 28.6591 52.9974 28.769 52.242 28.6316C51.2943 28.4667 50.3467 28.6041 49.3853 28.5079C49.2754 28.453 49.4402 28.2057 49.193 28.2194C49.2617 27.4776 49.3441 26.7907 49.5089 26.09C50.072 25.9114 50.6214 26.351 51.1982 26.1724C51.2943 25.6504 51.3081 16.4732 51.1982 15.8825Z" fill="#BFF2E6"/>
<path d="M43.7128 13.9035C43.8227 13.7799 44.0012 13.8348 44.0699 13.6837C44.9626 13.6837 45.8553 13.6837 46.7481 13.6837C46.9678 13.6837 47.1876 13.6013 47.3936 13.8074C47.4622 13.8761 47.7095 13.8761 47.7781 13.8074C48.0391 13.5601 48.3412 13.7524 48.6434 13.6562C48.6434 14.3019 48.6434 14.9064 48.6434 15.5384C48.1215 15.8406 47.5172 15.7032 46.9541 15.7445C46.6931 15.9505 46.6794 16.1841 46.8167 16.4176C46.9266 16.5688 46.9266 16.7748 46.8717 16.8573C46.6657 17.132 46.7618 17.4205 46.7481 17.709C46.7343 18.8356 46.6519 19.9621 46.7755 21.0749C46.8854 22.1327 46.8579 23.1906 46.8854 24.2484C46.8991 24.7842 46.6657 25.2925 46.7343 25.8421C46.7481 25.9657 46.803 26.0481 46.8991 26.1443C47.4897 25.9382 48.1077 26.1306 48.767 26.0207C48.8357 26.8587 48.7807 27.6692 48.8082 28.521C47.6682 28.521 46.542 28.521 45.4296 28.521C45.1961 28.521 44.9489 28.4523 44.7154 28.6447C44.633 28.7133 44.3995 28.7408 44.2759 28.5897C44.166 28.4661 44.0149 28.5622 43.8501 28.4661C43.9188 28.0676 43.7403 27.7379 43.4106 27.4632C43.5205 27.2571 43.6167 27.0648 43.7265 26.8449C43.4518 26.2405 43.548 25.581 43.6029 24.9353C43.6304 24.5919 43.7952 24.2896 43.6167 23.9324C43.4656 23.6302 43.7128 23.273 43.4793 22.957C43.4106 22.8746 43.4518 22.696 43.4518 22.5586C43.4518 21.803 43.4656 21.0474 43.4381 20.2918C43.4244 19.9484 43.6441 19.6599 43.5892 19.3164C43.548 19.0004 43.493 18.6432 43.6029 18.3685C43.7952 17.8739 43.7952 17.3656 43.6853 16.9122C43.5617 16.3215 43.6304 15.7582 43.5755 15.1812C43.5342 14.7416 43.8364 14.3432 43.7128 13.9035Z" fill="#BFF2E6"/>
<path d="M33.1238 28.5081C32.135 28.5081 31.1598 28.5081 30.1847 28.5081C29.8963 27.6563 29.9924 26.7771 29.9924 25.9116C29.9787 21.9962 29.9924 18.0945 29.9924 14.1791C30.0062 14.1654 30.0199 14.1379 30.0336 14.1242C30.0474 14.1104 30.0748 14.0967 30.0886 14.0967C31.0912 14.0967 32.0937 14.0967 33.1238 14.0967C33.1238 18.9051 33.1238 23.6997 33.1238 28.5081Z" fill="#BFF2E6"/>
<path d="M60.4687 6.69085C60.4687 7.2816 60.4687 7.87234 60.4687 8.44935C60.4687 8.95766 60.455 9.45224 60.4825 9.96055C60.4962 10.1391 60.3726 10.2353 60.3314 10.3864C60.3451 10.5376 60.4962 10.5925 60.5786 10.7024C60.7434 11.1146 60.3863 11.3893 60.2902 11.774C59.8507 11.6366 59.4524 11.9389 58.958 11.8839C58.958 11.3618 58.9305 10.8398 58.9717 10.3177C59.0404 9.4385 58.7931 8.57299 58.8343 7.69374C58.8481 7.46019 58.8069 7.22664 58.9442 6.97936C59.0404 6.80076 59.0404 6.49852 58.903 6.26497C58.7245 5.94899 58.9168 5.68796 58.9442 5.38572C58.9717 5.09722 58.697 4.79498 58.8756 4.50648C58.9854 4.32788 58.958 4.16302 58.958 3.99817C58.9717 3.35247 58.958 2.72051 58.958 2.07482C58.958 2.06108 58.9854 2.0336 59.0404 1.95117C59.0816 2.08855 59.1365 2.22594 59.1502 2.28089C59.5897 2.22594 59.9056 2.34958 60.1803 2.11603C60.4825 2.2122 60.7159 2.40453 60.922 2.65182C61.0181 2.76173 61.1417 2.91285 61.1417 3.03649C61.1142 3.64097 61.4027 4.16302 61.5675 4.71255C61.7735 5.35825 61.9658 6.00394 62.1718 6.66338C62.1992 6.6359 62.213 6.62216 62.2267 6.60843C62.2404 6.59469 62.2404 6.56721 62.2404 6.55347C62.2404 5.04227 62.2404 3.5448 62.2404 2.01986C62.7349 2.01986 63.2156 2.01986 63.71 2.01986C63.8199 2.15725 63.7512 2.34958 63.7512 2.51444C63.7512 5.26208 63.7512 7.99598 63.7649 10.7436C63.7649 11.0321 63.7512 11.3069 63.5727 11.5817C63.1606 11.5817 62.7349 11.5817 62.2404 11.5817C61.6499 10.0018 61.1829 8.31196 60.4687 6.69085Z" fill="#BFF2E6"/>
<path d="M52.9148 7.08971C52.6813 7.11719 52.7912 7.29578 52.7775 7.40569C52.75 7.69419 52.8324 7.98269 52.5852 8.24372C52.9835 8.71082 52.9148 9.24661 52.9148 9.76866C52.9148 10.3594 52.9148 10.9639 52.9148 11.5546C52.8461 11.6233 52.7912 11.6783 52.7225 11.747C52.4616 11.7882 52.1869 11.6783 51.9672 11.8981C51.72 11.8706 51.7062 11.4997 51.4315 11.6096C51.4315 10.5792 51.4315 9.6038 51.4315 8.60091C51.7337 8.64213 51.9946 8.54596 52.2968 8.33989C51.9672 8.33989 51.7062 8.33989 51.4041 8.33989C51.4041 8.06512 51.4178 7.84531 51.4041 7.6255C51.3766 7.1584 51.459 6.70504 51.2942 6.23794C51.2118 6.00439 51.1706 5.67467 51.3766 5.39991C51.459 5.29 51.4041 5.09767 51.4041 4.93281C51.4041 4.0673 51.4041 3.2018 51.4041 2.30881C51.665 2.25386 51.8573 2.58358 52.1594 2.48741C52.2281 2.36376 52.2968 2.25386 52.338 2.17143C52.5715 2.17143 52.7225 2.17143 52.8736 2.17143C52.956 2.29507 52.7775 2.29507 52.8049 2.3775C52.9423 2.48741 53.1071 2.3775 53.2856 2.45993C53.2856 2.45993 53.3268 2.48741 53.3406 2.52862C53.368 2.69348 53.3955 2.87208 53.4367 3.03694C53.5054 3.3117 53.7251 3.53151 53.7388 3.80628C53.7663 4.08104 53.8762 4.30085 53.9861 4.5344C54.1097 4.78169 54.0547 5.08393 54.1371 5.3587C54.2195 5.68841 54.4118 5.96318 54.5079 6.29289C54.5491 6.25168 54.5766 6.23794 54.5766 6.2242C54.5079 4.85038 54.8788 3.47656 54.6728 2.06152C55.2084 2.06152 55.6891 2.06152 56.1835 2.06152C56.362 2.3775 56.0873 2.63853 56.0736 2.94077C56.0599 3.27049 56.3071 3.53151 56.2247 3.84749C55.9363 5.02898 56.156 6.23794 56.0874 7.43317C56.0736 7.58429 56.0599 7.73541 56.1972 7.87279C56.2659 7.94148 56.2796 8.18877 56.211 8.25746C56.0187 8.47727 56.0874 8.72456 56.0874 8.95811C56.0736 9.83735 56.0874 10.7303 56.0874 11.6233C55.6204 11.6233 55.1946 11.6233 54.7689 11.6233C54.5217 11.3898 54.3981 11.0738 54.3019 10.7716C54.1234 10.1671 53.8762 9.57633 53.6702 8.97185C53.5054 8.47727 53.3268 7.96896 53.217 7.4469C53.1895 7.30952 53.0659 7.22709 53.0659 7.08971C53.0384 6.49897 53.1208 5.89449 53.0247 5.30374C52.9011 5.30374 52.8461 5.30374 52.7912 5.3587C52.75 5.81206 52.8873 6.29289 52.6401 6.73252C52.7363 6.77373 52.8324 6.81495 52.9148 6.85616C52.9148 6.95233 52.9148 7.02102 52.9148 7.08971Z" fill="#BFF2E6"/>
<path d="M65.619 2.00672C66.2508 1.99298 66.8277 2.07541 67.3633 1.82812C67.6242 2.11663 68.0225 2.18532 68.1599 2.48756C68.2972 2.80354 68.6681 2.9684 68.6955 3.28438C68.7093 3.6141 68.9015 3.9026 68.8741 4.24605C68.8466 4.57577 68.6131 4.87801 68.7367 5.19399C68.6406 5.34511 68.2835 5.20773 68.462 5.56492C68.0637 5.52371 67.7204 5.66109 67.4045 5.42754C67.3358 5.27642 67.2122 5.11156 67.2259 4.96044C67.2672 4.27353 66.9375 3.79269 66.4568 3.36681C65.9349 3.65531 65.7014 4.10867 65.7014 4.69942C65.7014 4.86427 65.7564 5.04287 65.6053 5.20773C65.5366 5.27642 65.5229 5.50997 65.5778 5.5924C65.7839 5.86717 65.7014 6.15567 65.7014 6.43043C65.7152 7.29594 65.7289 8.17519 65.7014 9.0407C65.674 9.64518 65.9212 10.0985 66.3332 10.5244C66.7178 10.4283 66.9787 10.1672 67.2122 9.87873C67.2122 9.37042 67.2122 8.8621 67.2122 8.36752C67.1573 8.31257 67.1161 8.27136 67.0337 8.18893C66.8689 8.18893 66.6628 8.18893 66.4019 8.18893C66.4568 7.70809 66.2508 7.2822 66.2508 6.82884C67.0062 6.7052 67.7616 6.95249 68.4758 6.63651C68.6406 6.82884 68.7779 6.9937 68.9839 7.22725C68.9702 7.33716 68.8329 7.51575 68.8466 7.73557C68.8603 8.2164 68.9015 8.71098 68.7367 9.19182C68.668 9.42537 68.6406 9.74135 68.8329 10.0299C68.929 10.181 68.9565 10.5244 68.6955 10.7305C68.7917 10.9366 68.9153 11.1564 68.8329 11.4037C68.5856 11.6647 68.2835 11.7609 67.9401 11.7334C67.7753 11.7197 67.6105 11.7471 67.432 11.8158C67.1573 11.9257 66.8139 11.9395 66.5255 11.7883C66.4156 11.7197 66.2646 11.6922 66.2096 11.7334C65.7839 12.0768 65.468 11.6922 65.1383 11.5685C64.7675 11.4312 64.589 11.0602 64.4379 10.6755C64.2181 10.126 64.1769 9.57649 64.1769 8.99948C64.1907 7.35089 64.2044 5.70231 64.1769 4.05372C64.1632 3.11952 64.6164 2.52877 65.3856 2.11663C65.4542 2.11663 65.5504 2.08915 65.619 2.00672Z" fill="#BFF2E6"/>
<path d="M63.092 17.7511C63.092 17.5038 63.092 17.2702 63.092 17.0779C63.4629 16.4459 63.82 15.8277 64.1908 15.237C64.4243 14.866 64.699 14.5226 64.9874 14.1929C65.111 14.0692 65.2895 13.9456 65.4956 13.9456C65.9076 13.9456 66.3608 14.0417 66.7179 13.9044C67.1025 13.767 67.4733 13.8357 67.8441 13.8082C68.2562 13.7807 68.6682 13.7945 69.1352 13.7945C68.9703 14.7286 68.572 15.4843 67.8853 16.0613C67.9265 16.3223 67.8029 16.5421 67.6656 16.6795C66.9102 17.5038 66.3471 18.438 65.8801 19.4409C65.6878 19.8667 65.4406 20.2651 65.2071 20.6636C65.0011 20.6773 64.9462 20.5399 64.8638 20.4025C64.3419 19.5645 63.8062 18.7402 63.2706 17.9022C63.2294 17.861 63.1332 17.806 63.092 17.7511Z" fill="#BFF2E6"/>
<path d="M38.3429 3.32564C38.1644 3.50424 37.9858 3.68283 37.821 3.84769C37.7249 4.46591 37.5189 5.04292 37.5326 5.66114C37.5326 5.85347 37.5601 6.03207 37.6562 6.22441C37.7798 6.51291 37.8348 6.84263 37.821 7.18608C37.7936 7.63944 37.821 8.10654 37.8073 8.5599C37.7936 9.21934 37.9309 9.86504 38.2331 10.442C38.4116 10.7718 38.4803 11.1152 38.5215 11.6235C38.7 11.1839 38.5627 10.8679 38.6451 10.5657C38.8374 10.3596 39.167 10.3184 39.2768 10.0848C39.4004 9.42541 39.6339 8.82093 39.2631 8.20271C39.0434 8.20271 38.7961 8.20271 38.5215 8.20271C38.4528 7.74935 38.8786 7.29599 38.4253 6.8701C39.318 6.63655 40.1146 7.0487 40.9661 6.92506C40.9661 7.81804 40.9661 8.65607 40.9661 9.4941C40.9661 10.0986 40.9249 10.6893 41.1584 11.2526C40.9249 11.3625 40.7464 11.4175 40.6777 11.5686C40.609 11.5823 40.5678 11.6098 40.5404 11.6098C39.9223 11.6098 39.3043 11.6098 38.6863 11.6098C38.5489 11.6098 38.3567 11.5548 38.288 11.6373C38.0682 11.8571 37.8897 11.7334 37.6974 11.6235C37.6425 11.5961 37.5601 11.6235 37.409 11.6235C37.3129 11.5136 37.1755 11.3625 37.0519 11.2114C36.7635 10.8679 36.5438 10.5107 36.5712 10.0436C36.6262 9.12317 36.2828 8.20271 36.4476 7.29599C36.6811 6.03207 36.4888 4.76815 36.585 3.47676C37.1206 2.52882 37.1206 2.52882 38.0957 2.02051C38.7275 2.35023 38.3704 2.87228 38.3429 3.32564Z" fill="#BFF2E6"/>
<path d="M44.3858 2.3779C44.5231 2.24052 44.633 2.13061 44.7841 1.97949C45.1274 2.33669 45.5257 2.03445 45.8828 1.99323C45.9652 2.21304 45.8691 2.28173 45.7867 2.35042C45.7867 4.34247 45.7867 6.33451 45.7867 8.32656C45.7867 8.73871 45.8141 9.15085 45.7729 9.563C45.7317 9.97515 46.0064 10.3323 45.924 10.7445C45.8828 10.9368 46.1575 11.033 46.0614 11.2391C45.9927 11.3902 45.8554 11.5276 45.9378 11.7062C45.3472 12.0634 44.839 11.9122 44.2759 11.61C44.3309 10.2636 44.1523 8.9173 44.4407 7.59843C44.3583 7.516 44.3171 7.47479 44.2622 7.41983C43.9051 7.2275 43.5892 7.516 43.2184 7.52974C43.2184 7.09012 43.2184 6.65049 43.2184 6.19713C43.5343 5.88115 43.9738 6.04601 44.3995 5.99106C44.3858 4.76835 44.3858 3.55939 44.3858 2.3779Z" fill="#BFF2E6"/>
<path d="M58.2712 11.7474C57.7905 11.7474 57.3648 11.7474 56.9253 11.7474C56.9253 8.5601 56.9253 5.38657 56.9253 2.14435C57.1176 2.14435 57.351 2.10313 57.557 2.15808C57.8042 2.21304 57.9416 1.86958 58.1888 2.03444C58.3124 2.08939 58.2574 2.21304 58.2712 2.3092C58.3124 2.845 58.175 3.40826 58.3398 3.93032C58.5046 4.43863 58.2574 5.0019 58.5321 5.49647C58.5596 5.55143 58.5184 5.63386 58.5321 5.70255C58.587 5.94984 58.3536 6.14217 58.381 6.4032C58.4085 6.60927 58.4772 6.84282 58.2712 7.04889C58.1888 7.13132 58.2574 7.35114 58.2574 7.51599C58.2712 8.90356 58.2712 10.2911 58.2712 11.7474Z" fill="#BFF2E6"/>
<path d="M34.5385 2.29541C34.7857 2.29541 35.0054 2.29541 35.1702 2.29541C35.4037 2.24045 35.4449 1.97943 35.6647 2.0069C35.8707 2.22671 35.8982 2.50148 35.8982 2.78998C35.8982 5.00184 35.8844 7.22743 35.8982 9.43928C35.8982 9.90638 35.8157 10.3735 36.0218 10.8268C36.0904 10.9917 36.0355 11.2253 36.0355 11.4039C35.9119 11.5275 35.8157 11.6237 35.7196 11.7198C35.3213 11.8435 34.9505 11.6786 34.5385 11.5687C34.5385 8.50508 34.5385 5.40025 34.5385 2.29541Z" fill="#BFF2E6"/>
<path d="M42.8888 11.6512C42.3532 11.5275 41.9 11.7611 41.3781 11.7886C41.3781 10.3048 41.3781 8.86232 41.3781 7.43355C41.6253 6.56804 41.4879 5.68879 41.5154 4.82328C41.5291 3.95778 41.5154 3.09227 41.5154 2.18555C41.9137 2.18555 42.312 2.18555 42.7515 2.18555C42.7515 3.06479 42.779 3.95778 42.7378 4.83702C42.6828 5.96356 42.9438 7.07635 42.8888 8.20289C42.8476 9.31568 42.8888 10.4285 42.8888 11.6512Z" fill="#BFF2E6"/>
<path d="M49.3439 11.7199C49.0555 11.8023 48.7533 11.6512 48.5336 11.8985C48.3001 11.7886 48.0804 11.6786 47.8744 11.5825C47.7508 10.7994 47.6821 10.0301 47.6821 9.24698C47.6821 8.931 47.5722 8.60128 47.5447 8.27157C47.5173 8.01054 47.737 7.83194 47.7095 7.57092C47.6821 7.3511 47.6134 7.09008 47.8194 6.87027C47.9018 6.78784 47.8332 6.56802 47.8332 6.40317C47.8332 5.53766 47.8332 4.68589 47.8332 3.80664C48.2589 3.80664 48.6435 3.80664 49.083 3.80664C48.9594 4.30122 49.2478 4.75458 49.2203 5.24915C49.1928 5.72999 49.2478 6.21083 49.2066 6.69167C49.1379 7.5297 49.4126 8.32652 49.3576 9.16455C49.3164 10.0026 49.3439 10.8406 49.3439 11.7199Z" fill="#BFF2E6"/>
<path d="M31.3795 10.0982C30.9263 10.0982 30.5417 10.0982 30.1984 10.0982C29.9374 9.60365 29.9924 9.0816 29.9924 8.57328C29.9924 6.54003 29.9924 4.50677 29.9924 2.48726C30.061 2.41857 30.1297 2.34987 30.1847 2.29492C30.4868 2.29492 30.7752 2.29492 31.0499 2.29492C31.1186 2.36361 31.1598 2.40483 31.2422 2.48726C31.2422 3.86108 31.2284 5.24864 31.2559 6.6362C31.2559 6.85601 31.0774 6.99339 31.1048 7.24068C31.1048 7.26815 31.146 7.30937 31.1872 7.37806C31.3383 7.66656 31.5718 7.94132 31.2559 8.2573C31.2697 8.84805 31.1048 9.46627 31.3795 10.0982Z" fill="#BFF2E6"/>
<path d="M50.7174 2.21241C50.7174 2.52839 50.7174 2.84437 50.7174 3.16035C50.4839 3.40763 50.168 3.38016 49.8659 3.38016C48.7946 3.38016 47.7233 3.38016 46.6383 3.38016C46.5559 3.05044 46.6795 2.70698 46.4735 2.40474C46.3774 2.25362 46.5559 2.11624 46.6658 2.00633C47.119 2.00633 47.5997 1.91017 48.0255 2.03381C48.5611 2.17119 49.083 2.12998 49.6187 2.14372C49.8247 2.14372 50.0444 2.21241 50.2642 2.02007C50.4015 1.89643 50.5938 2.04755 50.7174 2.21241Z" fill="#BFF2E6"/>
<path d="M40.8287 4.96055C40.6364 5.04298 40.7737 5.34522 40.5952 5.35896C40.1694 5.60625 39.8673 5.18037 39.4553 5.34522C39.4553 5.05672 39.4415 4.80943 39.4553 4.56215C39.4965 4.15 39.3317 3.83402 39.0295 3.57299C38.8922 3.44935 38.7686 3.31197 38.6312 3.17458C38.6312 2.91356 38.6312 2.63879 38.6312 2.32282C38.7274 2.25412 38.851 2.15796 39.0295 2.00684C39.1669 2.00684 39.3866 2.00684 39.6613 2.00684C40.2244 2.2816 40.4578 2.87234 40.7875 3.3944C40.8561 3.5043 40.8149 3.61421 40.8287 3.72411C40.8424 4.15 40.8287 4.54841 40.8287 4.96055Z" fill="#BFF2E6"/>
<path d="M29.9788 11.6094C29.9788 11.1973 29.9788 10.8263 29.9788 10.4691C29.9925 10.4554 30.0062 10.4279 30.02 10.4142C30.0337 10.4005 30.0612 10.3867 30.0749 10.3867C31.256 10.3867 32.4372 10.3867 33.6321 10.3867C33.7969 10.8126 33.6046 11.1973 33.4947 11.6232C33.3024 11.6232 33.0964 11.6094 32.9042 11.6232C32.6295 11.6506 32.3548 11.5819 32.0664 11.7331C31.8603 11.843 31.5033 11.8155 31.2835 11.7193C31.0775 11.6232 30.899 11.6369 30.7067 11.6232C30.4595 11.6094 30.226 11.6094 29.9788 11.6094Z" fill="#BFF2E6"/>
<path d="M52.9147 7.08989C52.9147 7.0212 52.9147 6.95251 52.9147 6.88382C52.8186 6.8426 52.7361 6.80139 52.64 6.76017C52.8872 6.32055 52.7362 5.83971 52.7911 5.38635C52.8323 5.31766 52.901 5.31766 53.0246 5.3314C53.1207 5.92214 53.0383 6.51289 53.0658 7.11737C53.0108 7.08989 52.9696 7.08989 52.9147 7.08989Z" fill="#BFF2E6"/>
</svg>
