<svg width="65" height="23" viewBox="0 0 65 23" fill="none" xmlns="http://www.w3.org/2000/svg">
<path d="M33.8861 0.143555H33.2771V22.2967H33.8861V18.0335H42.0318V15.4452H35.7893V12.4762H41.1182V9.88788H35.7893V6.99504H42.0318V4.4067H33.8861V0.143555Z" fill="#BFF2E6"/>
<path d="M8.61169 12.7813L6.32786 9.05101L3.35889 4.48335V4.40723H0.84668V18.0341H3.58727V9.66003L5.64272 12.9335L8.9162 18.0341H11.3523V4.40723H8.61169V12.7813Z" fill="#BFF2E6"/>
<path d="M12.8749 18.0341H21.8579V15.4457H15.6155V12.4767H20.9444V9.88841H15.6155V6.99556H21.8579V4.40723H12.8749V18.0341Z" fill="#BFF2E6"/>
<path d="M22.9998 6.99556H26.121V18.0341H28.8616V6.99556H31.9828V4.40723H22.9998V6.99556Z" fill="#BFF2E6"/>
<path d="M51.1671 12.7813L48.8833 9.05101L45.9143 4.48335H43.4021V18.1102H46.1427V9.73616L48.1981 13.0096L51.4716 18.1102H53.9077V4.40723H51.1671V12.7813Z" fill="#BFF2E6"/>
<path d="M55.0496 4.40723V6.99556H58.1708V18.0341H60.9114V7.07169H64.0326V4.40723H55.0496Z" fill="#BFF2E6"/>
</svg>
