<svg width="90" height="27" viewBox="0 0 90 27" fill="none" xmlns="http://www.w3.org/2000/svg">
<path fill-rule="evenodd" clip-rule="evenodd" d="M6.86146 9.07936L15.4476 0.387695L24.0337 9.07936L15.4476 17.771L6.86146 9.07936ZM15.4405 3.60396L9.96512 9.07936L15.4405 14.5548L20.9159 9.07936L15.4405 3.60396ZM15.4475 5.22925L11.5978 9.07892L15.4475 12.9286L19.2971 9.07892L15.4475 5.22925ZM16.2779 9.91641C15.926 10.2894 15.6375 10.7187 15.4404 11.1903C15.2786 10.7539 15.0252 10.3598 14.7015 10.022C14.3355 9.58564 13.864 9.2619 13.322 9.07188C13.8006 8.88186 14.237 8.59331 14.5959 8.23438C14.9618 7.87545 15.2504 7.43911 15.4334 6.96054C15.6234 7.43911 15.912 7.86842 16.2709 8.23438C16.6368 8.59331 17.0732 8.88186 17.5447 9.07188C17.0591 9.24078 16.6157 9.52933 16.2779 9.91641ZM6.96005 12.6961L0.393799 19.3327L6.96005 26.0046L13.5404 19.3539L6.96005 12.6961ZM2.58255 19.3327L6.96005 14.9552L11.3446 19.3327L6.96005 23.7173L2.58255 19.3327ZM23.928 12.6961L17.3477 19.3468L23.928 25.9975L30.4942 19.3468L23.928 12.6961ZM19.5364 19.3327L23.9209 14.9552L28.2984 19.3327L23.9209 23.7173L19.5364 19.3327ZM23.9279 16.5808L21.1691 19.3325L23.9279 22.0914L26.6797 19.3325L23.9279 16.5808ZM24.5754 19.9871C24.3009 20.2686 24.0828 20.5993 23.9279 20.9583C23.8013 20.6205 23.6042 20.3178 23.3579 20.0574C23.0764 19.7267 22.7104 19.4733 22.3022 19.3255C22.6682 19.1848 22.9989 18.9595 23.2734 18.678C23.5549 18.4036 23.7801 18.0728 23.9279 17.7068C24.0757 18.0728 24.3009 18.4036 24.5754 18.678C24.8499 18.9595 25.1807 19.1777 25.5466 19.3255C25.1666 19.4592 24.8358 19.6844 24.5754 19.9871ZM4.20841 19.3325L6.96018 16.5808L9.71899 19.3325L6.96018 22.0914L4.20841 19.3325ZM6.96018 20.9583C7.12205 20.5993 7.34022 20.2686 7.6147 19.9871C7.87509 19.6844 8.21291 19.4592 8.58591 19.3325C8.21994 19.1848 7.88917 18.9666 7.6147 18.6851C7.33318 18.4106 7.11501 18.0798 6.96018 17.7139C6.6646 18.4528 6.08046 19.0299 5.34149 19.3325C6.08046 19.6281 6.6646 20.2193 6.96018 20.9583ZM20.3461 26.1246L15.4478 21.163L10.5424 26.1246H20.3461Z" fill="#BFF2E6"/>
<path d="M77.6125 19.8928H76.7577V22.7478H76.3176V19.8928H75.4627V19.5237H77.621L77.6125 19.8928ZM71.3239 22.7478H71.781V20.3448L74.4979 22.8758V19.5237H74.0493V21.9041L71.3239 19.373V22.7478ZM70.0967 22.7478H68.15V19.5237H70.0967V19.8928H68.6071V20.7892H70.0628V21.1583H68.6071V22.3787H70.0967V22.7478ZM64.8491 22.808L65.941 20.616L66.3641 22.7478H66.8297L66.0933 19.3881L64.8407 21.9192L63.5965 19.3881L62.8601 22.7478H63.3256L63.7488 20.616L64.8491 22.808ZM59.0683 22.7478H58.6282V19.373L61.3451 21.9041V19.5237H61.8021V22.8758L59.0683 20.3373V22.7478ZM57.4518 19.5237H57.0116V22.7478H57.4518V19.5237ZM54.3201 20.2695L53.6769 21.5726H54.9719L54.3201 20.2695ZM55.5559 22.7478L55.1411 21.9418H53.4822L53.0675 22.7478H52.5851L54.3117 19.3881L56.0383 22.7478H55.5559ZM50.9431 19.8928H51.7979V19.5237H49.6312V19.8928H50.486V22.7478H50.9431V19.8928ZM47.2529 19.8928H47.109V21.0604H47.2529C47.7184 21.0604 48.2601 20.9776 48.2601 20.4653C48.2601 19.9531 47.6761 19.8853 47.219 19.8853L47.2529 19.8928ZM48.6663 20.4502C48.6748 20.9022 48.3024 21.2864 47.7945 21.3467L48.9372 22.7478H48.3955L47.329 21.3843H47.1174V22.7478H46.6604V19.5237H47.2021C47.5322 19.5011 47.8623 19.5463 48.1585 19.6668C48.4547 19.8326 48.6409 20.1263 48.6325 20.4427L48.6663 20.4502ZM43.3172 22.7553H45.2639V22.3862H43.7742V21.1583H45.2131V20.7892H43.7742V19.8928H45.2639V19.5237H43.3172V22.7553ZM42.31 19.9003H41.4552V22.7553H40.9981V19.9003H40.0502V19.5312H42.2169L42.31 19.9003ZM32.8644 22.7553H34.8026V22.3862H33.313V21.1583H34.7687V20.7892H33.313V19.8928H34.8026V19.5237H32.8644V22.7553ZM35.996 22.7553H36.453V20.3523L39.1699 22.8834V19.5312H38.7129V21.9116L35.996 19.3806V22.7553Z" fill="#BFF2E6"/>
<path d="M89.9072 14.6295H85.2637V5.75741H89.9072V6.79046H86.3314V9.27325H89.797V10.3063H86.3314V13.6572H89.9072V14.6295ZM78.4088 14.8118L81.0016 8.76975L82.01 14.6295H83.12L81.3745 5.42752L78.4088 12.4158L75.4431 5.42752L73.6722 14.6729H74.7822L75.7905 8.81316L78.4088 14.8118ZM68.3085 7.80615L66.7664 11.3828H69.7998L68.3085 7.80615ZM71.2742 14.6295L70.2659 12.4071H66.3003L65.292 14.6295H64.2159L68.3509 5.38412L72.4689 14.6295H71.2742ZM59.6741 10.1587V11.1918H61.9196C61.7501 12.6676 60.5384 13.7961 59.081 13.8222C57.1999 13.7267 55.7171 12.138 55.7171 10.2021C55.6917 8.24888 57.2169 6.64288 59.1234 6.60815C59.1403 6.60815 59.1573 6.60815 59.1742 6.60815C60.2503 6.62552 61.2587 7.16375 61.8942 8.0579L62.6483 7.31132C61.0807 5.33203 58.2421 5.02819 56.3102 6.64288C54.3783 8.24888 54.0817 11.1571 55.6578 13.1363C56.4797 14.1781 57.7083 14.7944 59.0132 14.8378C61.2417 14.8726 63.0804 13.0495 63.1143 10.7664C63.1143 10.6883 63.1143 10.6101 63.1143 10.532V10.1761L59.6741 10.1587ZM53.6072 6.7731H51.5905V14.6295H50.506V6.7731H48.4893V5.74004H53.6835L53.6072 6.7731ZM42.3291 14.6295H46.9726V13.5964H43.3968V10.2455H46.8624V9.20381H43.3968V6.72101H46.9726V5.68796H42.3291V14.6295ZM32.8644 14.6295H33.949V8.01449L40.4481 14.9854V5.75741H39.3635V12.3116L32.8644 5.33203V14.6295Z" fill="#BFF2E6"/>
</svg>
