<svg width="73" height="20" viewBox="0 0 73 20" fill="none" xmlns="http://www.w3.org/2000/svg">
<path d="M17.4188 16.3297C17.1221 16.3297 16.8254 16.478 16.677 16.7005C16.4545 16.9972 16.3803 17.3681 16.4545 17.6648C16.4545 18.5549 16.7512 18.9999 17.4188 18.9999C17.7896 18.9999 18.0863 18.9257 18.383 18.7774V19.4449C18.0122 19.5933 17.6413 19.6675 17.2704 19.6675C16.7512 19.6675 16.3062 19.5191 15.9353 19.1483C15.6386 18.7032 15.4161 18.184 15.4903 17.6648C15.4903 17.2939 15.5644 16.9231 15.7128 16.6264C15.8611 16.3297 16.0837 16.1071 16.3803 15.8846C16.677 15.7363 17.0479 15.6621 17.3446 15.6621C17.7155 15.6621 18.1605 15.7363 18.4572 15.9588L18.1605 16.6264C18.0122 16.5522 17.8638 16.478 17.7155 16.478C17.7155 16.4038 17.5671 16.3297 17.4188 16.3297Z" fill="#BFF2E6"/>
<path d="M28.8413 19.5933H29.6572V15.6621H28.8413V19.5933Z" fill="#BFF2E6"/>
<path d="M41.8218 19.5933H40.9317V16.3297H39.8932V15.6621H42.8602V16.3297H41.8218" fill="#BFF2E6"/>
<path d="M54.2828 17.2939L55.0988 15.6621H55.9888L54.6537 18.0356V19.5191H53.8378V18.0356L52.5027 15.5879H53.3928" fill="#BFF2E6"/>
<path d="M56.1372 5.27834H55.2471C55.0988 5.27834 55.0988 5.27834 55.0246 5.12999C54.9504 4.75913 54.8762 4.38826 54.7279 4.09157C54.4312 3.34983 53.7636 2.83062 52.9477 2.75645C52.5027 2.68227 51.9835 2.75645 51.5384 2.90479C50.8709 3.12731 50.4258 3.57235 50.1291 4.16574C49.9808 4.46243 49.9066 4.75913 49.9066 5.05582V5.12999C49.9066 5.20417 49.8325 5.20417 49.8325 5.20417H47.7556C47.6814 5.20417 47.6814 5.12999 47.6814 5.12999C47.6814 5.05582 47.6073 4.90747 47.6073 4.75913C47.5331 4.38826 47.3847 3.94322 47.1622 3.64653C46.7172 3.12731 46.0496 2.75645 45.3821 2.75645C45.0854 2.75645 44.7145 2.75645 44.4178 2.83062C43.6761 2.97897 43.0085 3.57235 42.7118 4.31409C42.5635 4.61078 42.5635 4.8333 42.4893 5.12999C42.4893 5.27834 42.4893 5.27834 42.2668 5.27834H40.4124C40.3383 5.27834 40.2641 5.27834 40.2641 5.12999C40.2641 4.98165 40.2641 4.90747 40.3383 4.75913C40.4866 3.94322 40.7833 3.20149 41.2284 2.45975C41.8217 1.56968 42.8602 0.827943 44.0469 0.605423C44.4178 0.605423 44.7887 0.53125 45.1595 0.53125C46.0496 0.53125 46.9397 0.827943 47.6814 1.42133C48.0523 1.71802 48.349 2.01472 48.5715 2.31141L48.7199 2.45975C48.7199 2.53393 48.794 2.53393 48.794 2.45975L48.9424 2.23724C49.3132 2.01472 49.6099 1.71802 49.9808 1.42133C50.7225 0.827943 51.6126 0.53125 52.5027 0.53125C53.0961 0.53125 53.6895 0.605423 54.2087 0.75377C55.0988 1.05046 55.9147 1.64385 56.4339 2.45975C56.8789 3.12731 57.1014 3.86905 57.2498 4.61078C57.2498 4.75913 57.324 4.90747 57.324 5.05582C57.324 5.20417 57.3239 5.20417 57.1756 5.20417H56.6564" fill="#BFF2E6"/>
<path d="M12.6716 5.9459H13.6358C13.7842 5.9459 13.7842 5.9459 13.7842 6.09425C13.7842 6.24259 13.7842 6.46511 13.7842 6.61346C13.7842 6.98433 13.8583 7.35519 14.0067 7.72606C14.3776 8.76448 15.416 9.50622 16.5286 9.65456C17.0478 9.72874 17.567 9.65456 18.0862 9.58039C19.1988 9.35787 20.0889 8.46779 20.3856 7.35519C20.4598 7.13267 20.4598 6.83598 20.4598 6.61346C20.4598 6.39094 20.4598 6.24259 20.4598 6.02007C20.4598 5.79755 20.4598 5.9459 20.5339 5.9459H22.5366C22.6108 5.9459 22.6108 5.9459 22.6108 6.09425C22.685 6.76181 22.6108 7.42937 22.4624 8.02275C22.3141 8.76449 21.9432 9.43204 21.4982 10.0254C20.9048 10.7672 20.0889 11.3605 19.1988 11.6572C18.6054 11.8798 17.9379 11.9539 17.3445 11.9539C16.6769 11.9539 16.0094 11.8798 15.3418 11.7314C13.7842 11.3605 12.5232 10.3221 11.9298 8.83866C11.7073 8.31945 11.559 7.72606 11.4848 7.13267C11.4848 6.76181 11.4848 6.46511 11.4848 6.09425C11.4848 6.02007 11.4848 6.02007 11.559 6.02007L12.6716 5.9459Z" fill="#BFF2E6"/>
<path d="M20.5339 5.27788C20.5339 5.20371 20.4597 5.12953 20.4597 5.05536C20.3113 4.09111 19.6438 3.2752 18.6795 2.97851C18.3087 2.90433 17.8636 2.75599 17.4928 2.75599C16.8994 2.75599 16.3802 2.75599 15.8609 2.90433C15.1192 3.12685 14.5258 3.49772 14.155 4.16528C13.9324 4.46197 13.8583 4.83284 13.7841 5.20371C13.7841 5.35205 13.7841 5.35205 13.6358 5.35205H11.7072C11.5589 5.35205 11.5589 5.35205 11.5589 5.20371C11.5589 5.05536 11.6331 4.90701 11.6331 4.75867C11.7814 4.01693 12.1523 3.2752 12.5973 2.60764C13.2649 1.71756 14.155 1.12418 15.1934 0.827483C15.7126 0.679137 16.2318 0.604963 16.751 0.604963C17.4928 0.53079 18.1603 0.604963 18.9021 0.827483C19.7921 1.05 20.6822 1.56922 21.2756 2.23678C21.7948 2.83016 22.2399 3.49772 22.4624 4.31363C22.5365 4.53615 22.6107 4.83284 22.6107 5.05536C22.6107 5.12953 22.6107 5.20371 22.6107 5.27788C22.6107 5.35205 22.6107 5.42623 22.4624 5.42623L20.5339 5.27788Z" fill="#BFF2E6"/>
<path d="M2.65821 0.605423C3.2516 0.605423 3.84498 0.605423 4.51254 0.605423C4.88341 0.605423 5.32845 0.679597 5.69932 0.75377C6.44105 0.902116 7.10861 1.27298 7.70199 1.71802C8.5179 2.38558 9.03711 3.27566 9.18546 4.23991C9.25963 4.46243 9.25963 4.68495 9.25963 4.98165C9.25963 5.05582 9.25963 5.12999 9.25963 5.12999C9.25963 5.27834 9.25963 5.27834 9.11129 5.27834H7.18278C7.10861 5.27834 7.10861 5.27834 7.10861 5.20417C7.10861 5.05582 7.10861 4.8333 7.03444 4.68495C6.96026 4.31409 6.81192 3.94322 6.5894 3.64653C6.21853 3.20149 5.69932 2.90479 5.1801 2.75645C4.95758 2.75645 4.73506 2.75645 4.58672 2.75645H2.58404C2.50987 2.75645 2.50987 2.75645 2.50987 2.83062V5.05582C2.50987 5.27834 2.50987 5.27834 2.28735 5.27834H0.358841C0.358841 5.27834 0.284668 5.27834 0.284668 5.20417C0.284668 5.12999 0.284668 5.05582 0.284668 5.05582V0.827943C0.284668 0.53125 0.284668 0.53125 0.581361 0.53125L2.65821 0.605423Z" fill="#BFF2E6"/>
<path d="M28.6188 11.8801H25.281C25.2068 11.8801 25.2068 11.8801 25.2068 11.8059C25.2068 11.7318 25.2068 11.6576 25.2068 11.6576V6.16876C25.2068 5.87207 25.2068 5.87207 25.5035 5.87207H27.3579C27.432 5.87207 27.432 5.87207 27.432 5.94624C27.432 6.02042 27.432 6.09459 27.432 6.16876V9.28404C27.432 9.58073 27.432 9.58073 27.7287 9.58073H31.8083C32.105 9.58073 32.105 9.58073 32.105 9.87743V11.5092C32.105 11.5834 32.105 11.6576 32.105 11.7318C32.105 11.8059 32.105 11.8059 32.0308 11.8059L28.6188 11.8801Z" fill="#BFF2E6"/>
<path d="M68.4499 0.53125H72.0844C72.1586 0.53125 72.1586 0.53125 72.1586 0.605423C72.1586 0.679597 72.1586 0.679597 72.1586 0.75377V2.53393C72.1586 2.6081 72.1586 2.6081 72.1586 2.68228C72.1586 2.75645 72.1586 2.75645 72.0844 2.75645H69.8592C69.6367 2.75645 69.6367 2.75645 69.6367 2.97897V5.20417C69.6367 5.27834 69.6367 5.35251 69.4883 5.35251H67.4857C67.4115 5.35251 67.4115 5.35251 67.4115 5.27834C67.4115 5.20417 67.4115 5.12999 67.4115 5.05582V3.12731C67.4115 3.05314 67.4115 2.97897 67.4115 2.97897C67.4115 2.83062 67.4115 2.83062 67.2631 2.83062H65.1863C64.7413 2.75645 64.8154 2.83062 64.8154 2.38558V0.827943C64.8154 0.75377 64.8154 0.679597 64.8154 0.605423C64.8154 0.605423 64.8154 0.53125 64.8896 0.53125H68.4499Z" fill="#BFF2E6"/>
<path d="M59.9941 8.91317V6.09459C59.9941 5.87207 59.9941 5.87207 60.2166 5.87207H62.1451C62.2193 5.87207 62.2193 5.87207 62.2193 5.94624C62.2193 6.02042 62.2193 6.02042 62.2193 6.09459V11.6576C62.2193 11.8801 62.2193 11.8801 61.9968 11.8801H60.0683C59.9941 11.8801 59.9199 11.8801 59.9199 11.7318C59.9199 11.6576 59.9199 11.5834 59.9199 11.5092L59.9941 8.91317Z" fill="#BFF2E6"/>
<path d="M55.0988 8.91224V6.16783C55.0988 5.94531 55.0988 5.94531 55.3213 5.94531H57.2498C57.2498 5.94531 57.324 5.94531 57.324 6.01949C57.324 6.09366 57.324 6.16783 57.324 6.24201V11.6567C57.324 11.7308 57.324 11.7308 57.324 11.805C57.324 11.8792 57.324 11.8792 57.1757 11.8792H55.173C55.173 11.8792 55.0988 11.8792 55.0988 11.805C55.0988 11.7308 55.0988 11.6567 55.0988 11.5825V8.91224Z" fill="#BFF2E6"/>
<path d="M49.9065 8.91317V11.6576C49.9065 11.9543 49.9065 11.8801 49.684 11.8801H47.7555C47.7555 11.8801 47.6813 11.8801 47.6813 11.8059V6.16876C47.6813 5.87207 47.6813 5.87207 47.9039 5.87207H49.8324C49.8324 5.87207 49.9065 5.87207 49.9065 5.94624V8.91317Z" fill="#BFF2E6"/>
<path d="M34.9978 8.91317V6.09459C34.9978 5.87207 34.9978 5.87207 35.2203 5.87207H37.1488C37.223 5.87207 37.223 5.87207 37.223 5.94624V11.6576C37.223 11.8059 37.223 11.8059 37.0747 11.8059H35.1461C35.072 11.8059 34.9978 11.8059 34.9978 11.6576C34.9978 11.5834 34.9978 11.5092 34.9978 11.4351V8.91317Z" fill="#BFF2E6"/>
<path d="M2.50985 11.7318C2.43568 11.7318 2.3615 11.7318 2.3615 11.7318H0.432999C0.358826 11.7318 0.358826 11.7318 0.358826 11.6576V6.24294C0.358826 6.16876 0.358826 6.09459 0.358826 6.02042C0.358826 5.94624 0.358826 5.94624 0.507172 5.87207H2.50985C2.58402 5.87207 2.58402 5.87207 2.58402 5.94624C2.58402 6.02042 2.58402 6.09459 2.58402 6.16876V11.5092C2.50985 11.5834 2.50985 11.6576 2.50985 11.7318Z" fill="#BFF2E6"/>
<path d="M9.33384 8.91229V11.7309C9.33384 11.8792 9.33384 11.8792 9.18549 11.8792H7.18282C7.18282 11.8792 7.10864 11.8792 7.10864 11.805V6.24205C7.10864 6.01953 7.10864 6.01953 7.33116 6.01953H9.18549C9.25967 6.01953 9.33384 6.01953 9.33384 6.16788V8.91229Z" fill="#BFF2E6"/>
<path d="M40.2641 8.91224V6.24201C40.2641 6.16783 40.2641 6.09366 40.2641 6.01949C40.2641 5.94531 40.2641 5.94531 40.3383 5.94531H42.341C42.4151 5.94531 42.4151 5.94531 42.4893 6.01949V11.6567C42.4893 11.7308 42.4893 11.7308 42.4893 11.805C42.4893 11.8792 42.4893 11.8792 42.4151 11.8792H40.4124C40.2641 11.8792 40.2641 11.8792 40.2641 11.7308V8.91224Z" fill="#BFF2E6"/>
<path d="M69.6367 8.91244V11.5827C69.6367 11.8794 69.6367 11.8052 69.4142 11.8052H67.5598C67.4857 11.8052 67.4857 11.8052 67.4857 11.731C67.4857 11.6569 67.4857 11.5827 67.4857 11.5827V6.2422C67.4857 5.87133 67.4857 5.94551 67.7824 5.94551H69.5625C69.6367 5.94551 69.6367 5.94551 69.6367 6.01968V8.91244Z" fill="#BFF2E6"/>
<path d="M62.2196 2.90479V5.12999C62.2196 5.27834 62.2196 5.27834 62.0712 5.27834H60.1427C59.9944 5.27834 59.9944 5.27834 59.9944 5.12999V0.605423C59.9944 0.53125 59.9944 0.53125 60.1427 0.53125H62.0712C62.2196 0.53125 62.2196 0.53125 62.2196 0.679597V2.90479Z" fill="#BFF2E6"/>
<path d="M34.9978 2.90479V0.75377C34.9978 0.53125 34.9978 0.53125 35.2203 0.53125H37.1488C37.1488 0.53125 37.223 0.53125 37.223 0.605423C37.223 0.679597 37.223 0.75377 37.223 0.75377V5.05582C37.223 5.35251 37.223 5.27834 37.0005 5.27834H35.072C34.9978 5.27834 34.9978 5.27834 34.9978 5.20417V2.90479Z" fill="#BFF2E6"/>
<path d="M27.432 2.90479V5.05582C27.432 5.27834 27.432 5.27834 27.2095 5.27834H25.281C25.2068 5.27834 25.2068 5.27834 25.2068 5.20417V0.827943C25.2068 0.53125 25.2068 0.53125 25.5035 0.53125H27.3579C27.432 0.53125 27.432 0.53125 27.432 0.605423V2.90479Z" fill="#BFF2E6"/>
</svg>
