<svg width="92" height="24" viewBox="0 0 92 24" fill="none" xmlns="http://www.w3.org/2000/svg">
<path d="M0.954346 0.0205078V0.102236C0.954346 0.919513 0.954346 1.65506 1.03607 2.47234C1.1178 3.28962 1.19953 4.02517 1.28126 4.76071C1.36298 5.49626 1.60817 6.31354 1.77162 7.04909C1.93508 7.78464 2.18026 8.60192 2.42544 9.33747C2.67063 10.073 2.91581 10.8086 3.24272 11.4624V11.5441L3.32445 11.6258C3.65136 12.4431 4.06 13.1787 4.46864 13.9142C4.79555 14.568 5.20419 15.1401 5.61282 15.794L5.85801 16.2026C6.34837 16.9381 6.83874 17.6737 7.41083 18.3275L7.57429 18.491L7.81947 18.8179C8.14638 19.2265 8.55502 19.6352 8.88193 20.0438C9.12712 20.289 9.3723 20.5342 9.61748 20.7793L10.1078 21.188L10.5982 21.5966C11.1703 22.087 11.7424 22.5774 12.3145 22.986L12.3962 23.0677L12.478 23.1494L12.5597 23.0677L12.6414 22.986C13.2135 22.5774 13.7856 22.087 14.3577 21.5966L14.8481 21.1063L15.2567 20.6976C15.5019 20.4524 15.7471 20.2073 15.9922 19.9621C16.4009 19.5534 16.7278 19.1448 17.1364 18.7362L17.3816 18.491L17.5451 18.3275C18.1172 17.6737 18.6075 16.9381 19.0979 16.2026L19.4248 15.7122C19.8334 15.1401 20.1604 14.6498 20.4873 14.0777L20.6507 13.7508C20.9776 13.1787 21.3045 12.6066 21.5497 11.9528L21.6315 11.7893H8.71848L8.80021 11.9528C9.20884 12.6066 9.61748 13.2604 10.0261 13.9142L10.1896 14.1594H17.5451C17.3816 14.4863 17.1364 14.7315 16.8912 15.0584C16.6461 15.3853 16.4009 15.794 16.074 16.2026C15.9105 16.4478 15.6653 16.693 15.5019 16.9381C15.3384 17.1833 14.9298 17.6737 14.6029 18.0006C14.4394 18.1641 14.276 18.3275 14.1125 18.491L14.0308 18.5727C13.5404 19.0631 12.9683 19.6352 12.3962 20.0438C11.8241 19.5534 11.3338 19.0631 10.8434 18.491L10.6799 18.3275C10.5165 18.1641 10.353 18.0006 10.2713 17.8371C9.94439 17.5102 9.61748 17.1016 9.3723 16.7747C9.12712 16.6112 8.96366 16.366 8.71848 16.1209C8.47329 15.8757 8.22811 15.3853 7.98293 15.0584C7.73775 14.7315 7.41083 14.2411 7.16565 13.8325C6.67528 13.0969 6.34837 12.3614 5.93974 11.5441C5.85801 11.3807 5.77628 11.1355 5.69455 10.972C5.44937 10.3999 5.20419 9.82783 4.959 9.25574C4.63209 8.52019 4.38691 7.78464 4.22345 6.96736C4.06 6.15009 3.81482 5.49626 3.73309 4.67899C3.65136 3.86171 3.4879 3.28962 3.40618 2.55407H21.3045C21.2228 3.28962 21.1411 4.02517 20.9776 4.67899C20.8142 5.33281 20.7324 6.23181 20.569 6.88563H6.67528L6.75701 7.04909C7.0022 7.78464 7.24738 8.52019 7.57429 9.17401L7.65602 9.33747H22.6122V9.17401C22.8574 8.43846 23.1026 7.78464 23.266 7.04909C23.4295 6.31354 23.5929 5.49626 23.7564 4.76071C23.9198 4.02517 23.8381 3.20789 23.9198 2.47234C24.0016 1.73679 24.0016 0.919513 24.0016 0.183963V0.0205078H0.954346Z" fill="#BFF2E6"/>
<path d="M34.7895 8.68382C34.7895 9.01073 34.7078 9.41937 34.5443 9.66455C34.3809 9.99146 34.054 10.2366 33.8088 10.4001C33.4002 10.5636 32.9915 10.727 32.5011 10.6453H31.5204V12.9337H29.9676V6.64062H32.5011C32.9098 6.64062 33.4002 6.72235 33.8088 6.88581C34.1357 7.04926 34.4626 7.29445 34.6261 7.62136C34.7078 7.94827 34.7895 8.35691 34.7895 8.68382ZM32.3377 9.50109C32.5829 9.50109 32.8281 9.41937 32.9915 9.25591C33.155 9.09246 33.2367 8.929 33.2367 8.68382C33.2367 8.43863 33.155 8.27518 32.9915 8.11172C32.8281 7.94827 32.5829 7.86654 32.3377 7.86654H31.5204V9.50109H32.3377Z" fill="#BFF2E6"/>
<path d="M36.8327 6.64062V10.4001C36.8327 10.727 36.9144 11.0539 37.1596 11.2991C37.4048 11.5443 37.6499 11.626 37.9769 11.626C38.3038 11.626 38.5489 11.5443 38.7941 11.2991C39.0393 11.0539 39.121 10.727 39.121 10.4001V6.64062H40.6739V10.4001C40.6739 10.8905 40.5921 11.3808 40.347 11.8712C40.1018 12.2798 39.7749 12.525 39.3662 12.7702C38.9576 13.0154 38.4672 13.0971 37.9769 13.0971C37.4865 13.0971 37.0779 13.0154 36.6692 12.7702C36.2606 12.6067 35.9337 12.2798 35.7702 11.8712C35.525 11.4626 35.4433 10.8905 35.4433 10.4001V6.64062H36.8327Z" fill="#BFF2E6"/>
<path d="M43.6979 13.0968C43.2893 13.0968 42.8806 13.0151 42.472 12.8516C42.1451 12.6882 41.8182 12.443 41.573 12.1978C41.3278 11.8709 41.2461 11.544 41.2461 11.1353H42.8806C42.8806 11.2988 42.9624 11.544 43.1258 11.7074C43.2893 11.8709 43.4527 11.8709 43.6979 11.8709C43.8614 11.8709 44.1066 11.7892 44.27 11.7074C44.4335 11.6257 44.4335 11.4623 44.4335 11.2988C44.4335 11.1353 44.3517 10.9719 44.27 10.8902C44.1883 10.8084 44.0248 10.7267 43.8614 10.645C43.6162 10.5633 43.4527 10.4815 43.2076 10.3998C42.8806 10.3181 42.5537 10.1546 42.2268 9.99116C41.9816 9.8277 41.7365 9.66425 41.573 9.41906C41.4096 9.17388 41.2461 8.76524 41.2461 8.43833C41.2461 7.86624 41.4913 7.37587 41.8999 7.04896C42.3903 6.72205 42.9624 6.55859 43.5345 6.55859C44.1066 6.55859 44.7604 6.72205 45.2508 7.04896C45.6594 7.37587 45.9046 7.86624 45.9046 8.43833H44.27C44.27 8.27488 44.1883 8.11142 44.0248 7.94796C43.8614 7.86624 43.6979 7.78451 43.5345 7.78451C43.371 7.78451 43.2076 7.86624 43.0441 7.94796C42.7989 8.19315 42.7989 8.52006 43.0441 8.76524C43.0441 8.76524 43.1258 8.84697 43.2076 8.84697C43.4527 9.01043 43.7797 9.17388 44.1066 9.25561C44.4335 9.33734 44.7604 9.50079 45.0873 9.66425C45.3325 9.8277 45.5777 9.99116 45.7411 10.2363C45.9046 10.4815 46.068 10.8084 45.9863 11.1353C45.9863 11.4623 45.9046 11.7892 45.7411 12.1161C45.5777 12.443 45.2508 12.6882 44.9238 12.8516C44.5152 13.0151 44.1066 13.0968 43.6979 13.0968Z" fill="#BFF2E6"/>
<path d="M52.1974 6.64062V13.0154H50.6446V10.4001H48.2745V13.0154H46.7217V6.64062H48.2745V9.09246H50.6446V6.64062H52.1974Z" fill="#BFF2E6"/>
<path d="M59.5531 8.68382C59.4713 8.43863 59.3079 8.27518 59.0627 8.19345C58.8175 8.03 58.5723 8.03 58.3271 8.03C57.8368 8.03 57.4281 8.19345 57.1012 8.52036C56.7743 8.84727 56.6109 9.33764 56.6109 9.82801C56.6109 10.3184 56.7743 10.8087 57.1012 11.2174C57.4281 11.5443 57.9185 11.7077 58.4089 11.7077C58.7358 11.7077 59.0627 11.626 59.3896 11.3808C59.6348 11.1356 59.88 10.8905 59.9617 10.5636H58.0002V9.41937H61.4328V10.8905C61.1876 11.7077 60.6155 12.3616 59.7982 12.7702C59.3896 13.0154 58.8992 13.0971 58.3271 13.0971C57.755 13.0971 57.183 12.9337 56.6109 12.6885C56.1205 12.4433 55.7119 12.0347 55.4667 11.5443C54.8946 10.4818 54.8946 9.25591 55.4667 8.19345C55.7119 7.70308 56.1205 7.29445 56.6109 7.04926C57.1012 6.80408 57.6733 6.64062 58.2454 6.64062C58.8992 6.64062 59.6348 6.80408 60.2069 7.21272C60.6972 7.53963 61.1059 8.11172 61.2693 8.76554L59.5531 8.68382Z" fill="#BFF2E6"/>
<path d="M65.9278 11.8712H63.5577L63.149 13.0154H61.5145L63.8846 6.64062H65.6826L67.971 13.0154H66.3364L65.9278 11.8712ZM65.5191 10.6453L64.7018 8.35691L63.9663 10.6453H65.5191Z" fill="#BFF2E6"/>
<path d="M75.5716 6.64062V13.0154H74.0188V9.17418L72.6294 13.0154H71.4035L69.9324 9.17418V13.0154H68.3796V6.64062H70.1776L71.9756 11.0539L73.7736 6.64062H75.5716Z" fill="#BFF2E6"/>
<path d="M77.9418 6.64062V13.0154H76.389V6.64062H77.9418Z" fill="#BFF2E6"/>
<path d="M84.48 13.0154H82.9272L80.3119 9.09246V13.0154H78.7591V6.64062H80.3119L82.9272 10.5636V6.64062H84.48V13.0154Z" fill="#BFF2E6"/>
<path d="M89.5471 8.68382C89.4653 8.43863 89.3019 8.27518 89.0567 8.19345C88.8115 8.03 88.5663 8.03 88.3212 8.03C87.8308 8.03 87.4222 8.19345 87.0952 8.52036C86.7683 8.84727 86.6049 9.33764 86.6049 9.82801C86.6049 10.3184 86.7683 10.8087 87.0952 11.2174C87.4222 11.5443 87.9125 11.7077 88.4029 11.7077C88.7298 11.7077 89.0567 11.626 89.3836 11.3808C89.6288 11.2174 89.874 10.8905 89.9557 10.5636H87.9942V9.41937H91.3451V10.8905C91.2634 11.2991 91.0182 11.626 90.773 11.9529C90.5278 12.2798 90.1192 12.6067 89.7105 12.7702C89.3019 13.0154 88.8115 13.0971 88.2394 13.0971C87.6673 13.0971 87.0952 12.9337 86.5231 12.6885C86.0328 12.4433 85.6241 12.0347 85.379 11.5443C84.8069 10.4818 84.8069 9.25591 85.379 8.19345C85.6241 7.70308 86.0328 7.29445 86.5231 7.04926C87.0135 6.80408 87.5856 6.64062 88.1577 6.64062C88.8115 6.64062 89.5471 6.80408 90.0374 7.21272C90.5278 7.53963 90.9364 8.11172 91.0999 8.76554L89.5471 8.68382Z" fill="#BFF2E6"/>
</svg>
