<svg width="92" height="25" viewBox="0 0 92 25" fill="none" xmlns="http://www.w3.org/2000/svg">
<path d="M16.0377 0H1.91515C1.43479 0 1.0505 0.192144 0.666212 0.48036C0.377996 0.768577 0.185852 1.24894 0.185852 1.63323V23.2494C0.185852 23.7298 0.377996 24.1141 0.666212 24.4023C1.0505 24.7866 1.43479 24.9787 1.91515 24.9787H16.0377C16.5181 24.9787 16.9024 24.7866 17.1906 24.4984C17.4788 24.2102 17.671 23.7298 17.671 23.3455V1.63323C17.671 1.15287 17.4788 0.768577 17.1906 0.48036C16.9024 0.192144 16.5181 0 16.0377 0ZM14.7888 13.354C14.7888 14.2187 14.5006 15.1794 13.9242 15.8519L11.6184 18.8301L14.2124 21.2319C14.3084 21.328 14.3084 21.328 14.3084 21.4241C14.3084 21.5201 14.3084 21.6162 14.3084 21.6162C14.3084 21.7123 14.2124 21.7123 14.1163 21.8084C14.0202 21.8084 14.0202 21.9044 13.9242 21.9044H10.7538C10.5616 21.9044 10.3695 21.8084 10.2734 21.7123L9.79306 21.328L9.50484 21.0398L7.77555 19.5026C7.67948 19.3105 7.67948 19.2144 7.67948 19.2144C7.67948 19.1183 7.67948 19.0223 7.77555 18.9262L11.3302 14.3147C11.7145 13.8344 11.9066 13.1619 11.9066 12.5854V8.64649C12.0027 7.97398 11.7145 7.20541 11.2341 6.72505C9.79306 5.95647 8.15984 5.95647 6.81483 6.72505C6.33447 7.20541 6.14232 7.97398 6.14232 8.64649V12.7776C6.14232 13.0658 6.23839 13.4501 6.33447 13.7383C6.43054 14.0265 6.71875 14.3147 6.9109 14.5069L8.06376 15.5637C8.15984 15.6598 8.15984 15.7558 8.15984 15.7558C8.15984 15.8519 8.15984 15.948 8.06376 16.044L6.62268 17.8694L6.52661 17.9655H6.43054C6.33447 17.9655 6.33447 17.9655 6.33447 17.8694L4.70124 16.3323C3.83659 15.5637 3.35623 14.4108 3.35623 13.2579V7.39755C3.06801 6.24469 3.54838 5.09182 4.41302 4.32324C5.08553 3.74681 6.43054 3.17038 9.02448 3.17038C11.6184 3.17038 12.9634 3.65074 13.6359 4.32324C14.5006 5.09182 14.981 6.24469 14.7888 7.39755V13.354Z" fill="#BFF2E6"/>
<path d="M90.0133 13.2578V21.6161L85.9782 14.4107C85.4979 13.546 85.1136 13.2578 84.5371 13.2578C83.9607 13.2578 83.4803 13.7382 83.4803 14.5067V23.7297H84.9214V15.3714L88.9565 22.5768C89.4368 23.4415 89.8211 23.7297 90.3975 23.7297C90.974 23.7297 91.4543 23.2493 91.4543 22.4807V13.2578H90.0133Z" fill="#BFF2E6"/>
<path d="M61.4798 13.2578H59.5583L55.6194 17.3889V13.2578H54.1783V23.7297H55.6194V19.4064L56.0037 18.9261L59.6544 23.6336H61.4798L56.9644 17.8693L61.4798 13.2578Z" fill="#BFF2E6"/>
<path d="M76.3712 13.9303C75.6027 13.45 74.6419 13.2578 73.7773 13.2578H71.0873V23.7297H72.5284V20.0789H73.6812C74.5459 20.0789 75.5066 19.8868 76.2752 19.4064C77.8123 18.3496 78.1966 16.236 77.1398 14.6989C77.0437 14.4107 76.7555 14.1225 76.3712 13.9303ZM75.6027 18.2536C75.0262 18.6378 74.4498 18.83 73.7773 18.7339H72.6244V14.5067H73.7773C74.4498 14.5067 75.1223 14.6028 75.6027 14.9871C76.083 15.3714 76.3712 15.9478 76.3712 16.6203C76.3712 16.9086 76.2752 17.1968 76.1791 17.485C76.083 17.8693 75.8909 18.0614 75.6027 18.2536Z" fill="#BFF2E6"/>
<path d="M29.5841 22.4809C29.7762 22.2888 29.9683 22.0006 30.0644 21.7124C30.3526 21.0399 30.4487 20.1752 30.4487 19.4066V17.3891C30.4487 16.6205 30.3526 15.852 30.0644 15.0834C29.488 13.8344 28.143 12.9698 26.7019 13.0659C25.2608 13.0659 23.9158 13.8344 23.3394 15.0834C23.0511 15.7559 22.9551 16.6205 22.9551 17.3891V19.4066C22.9551 20.1752 23.0511 20.9438 23.3394 21.7124C23.9158 23.0574 25.2608 23.8259 26.7019 23.8259C27.2783 23.8259 27.8548 23.7299 28.3351 23.5377L29.488 24.9788H31.5055L29.5841 22.4809ZM29.0076 19.5988C29.0076 20.1752 29.0076 20.7516 28.8155 21.232C28.239 22.3849 26.894 22.8652 25.7412 22.2888C25.2608 22.0966 24.8765 21.7124 24.6844 21.232C24.4922 20.6556 24.3962 20.0791 24.4922 19.5027V17.5813C24.4922 17.0048 24.4922 16.4284 24.6844 15.852C25.2608 14.6991 26.6058 14.2187 27.7587 14.7952C28.239 14.9873 28.6233 15.3716 28.8155 15.852C29.0076 16.4284 29.1037 17.0048 29.0076 17.5813V19.5988Z" fill="#BFF2E6"/>
<path d="M48.126 14.9869C49.0867 14.2184 50.2396 14.2184 51.9689 14.6026V13.6419C51.2964 13.3537 50.5278 13.1616 49.7592 13.1616C48.7985 13.0655 47.7417 13.3537 46.9732 14.0262C46.1085 14.8909 45.6281 16.0437 45.5321 17.1966C45.436 18.0612 45.436 19.022 45.5321 19.8866C45.5321 21.1356 46.1085 22.1923 46.9732 23.057C47.7417 23.7295 48.7025 24.0177 49.7592 23.9216C50.5278 23.9216 51.2964 23.7295 51.9689 23.4413V22.4806C50.2396 22.8648 49.0867 22.7688 48.126 22.0963C47.1653 21.4238 46.9732 19.9827 46.9732 18.5416C46.9732 17.1005 47.1653 15.7555 48.126 14.9869Z" fill="#BFF2E6"/>
<path d="M66.9559 14.3149C67.7245 14.3149 68.397 14.4109 69.1656 14.507V13.4502C68.2049 13.162 67.2442 13.0659 66.2834 13.162C65.707 13.162 65.1306 13.2581 64.5541 13.3541C63.9777 13.4502 63.4013 13.8345 63.113 14.3149C62.8248 14.7952 62.7288 15.3717 62.9209 15.852L63.017 15.9481C63.3052 16.7167 63.7856 17.2931 64.2659 17.8695C64.9384 18.542 66.1874 19.791 66.7638 20.4635C67.1481 20.8478 67.5324 21.4242 67.3402 21.9046C67.1481 22.3849 66.1874 22.7692 64.9384 22.7692C64.1698 22.7692 63.4973 22.6731 62.7288 22.5771V23.7299C63.6895 24.0182 64.6502 24.1142 65.6109 24.0182C67.6284 23.9221 68.397 23.4417 68.7813 22.8653C68.9734 22.5771 69.0695 22.2889 69.0695 21.9046C69.0695 21.8085 69.0695 21.8085 69.0695 21.7124C69.0695 21.0399 68.6852 20.4635 68.2049 19.9831C67.4363 19.1185 65.9952 17.7735 65.3227 17.101L65.1306 16.9088C64.6502 16.4285 64.1698 15.852 64.362 15.2756C64.5541 14.6992 65.8991 14.3149 66.9559 14.3149Z" fill="#BFF2E6"/>
<path d="M43.5144 13.2578H42.0733V23.7297H43.5144V13.2578Z" fill="#BFF2E6"/>
<path d="M81.1747 13.2578H79.7336V23.7297H81.1747V13.2578Z" fill="#BFF2E6"/>
<path d="M33.8111 13.2578H32.37V20.175C32.37 21.4239 32.7543 23.9218 36.0207 23.9218C39.2872 23.9218 39.6715 21.4239 39.6715 20.175V13.2578H38.2304V20.175C38.2304 22.3847 36.6932 22.6729 36.0207 22.6729C35.3482 22.6729 33.8111 22.3847 33.8111 20.175V13.2578Z" fill="#BFF2E6"/>
</svg>
