<svg width="92" height="18" viewBox="0 0 92 18" fill="none" xmlns="http://www.w3.org/2000/svg">
<path d="M1.21994 0.898438H8.71765C9.17206 0.898438 9.55073 0.974172 10.0051 1.04991C12.7316 1.80725 15.0036 3.77635 16.2154 6.35132C16.2911 6.50279 16.4426 6.65426 16.2911 6.80573C16.1396 6.9572 15.9882 6.72999 15.8367 6.65426C15.0036 6.12412 14.0948 5.82118 13.186 5.74544C10.6868 5.59398 8.26325 5.74544 5.83974 5.66971C5.53681 5.66971 5.46107 5.82118 5.46107 6.12412C5.46107 6.57852 5.68827 6.65426 6.06695 6.65426H13.5647C13.8676 6.65426 14.1705 6.65426 14.4735 6.72999C15.6095 6.9572 16.3668 7.86601 16.3668 9.00203V16.7269C16.3668 17.4086 16.3668 17.4086 15.6852 17.4086C13.4132 17.4086 11.2169 17.4086 9.02059 17.4086C5.46107 17.2571 2.20449 15.1365 0.765534 11.8799C0.689799 11.6527 0.53833 11.5013 0.614065 11.4255C0.689799 11.3498 0.917002 11.4255 1.06847 11.5013C1.97729 12.1071 3.03757 12.4101 4.17359 12.4858C6.44562 12.4858 8.71765 12.4858 10.9897 12.4858C11.2926 12.4858 11.5198 12.4101 11.5198 12.0314C11.5198 11.6527 11.2926 11.577 10.9897 11.577C8.94486 11.5013 6.82429 11.577 4.77946 11.577C4.09785 11.577 3.34051 11.6527 2.6589 11.577C1.44714 11.4255 0.53833 10.441 0.53833 9.22923C0.53833 6.65426 0.53833 4.07929 0.53833 1.50431C0.53833 1.20138 0.841268 0.898438 1.21994 0.898438Z" fill="#BFF2E6"/>
<path d="M30.4534 15.8185V8.8509C30.4534 8.69943 30.4534 8.47223 30.6806 8.54796C30.9078 8.6237 30.9078 8.69943 30.9078 8.8509V9.45678C30.9078 9.45678 30.9835 9.45678 31.0592 9.45678C31.8166 8.54796 33.1041 8.16929 34.1644 8.6237C35.1489 9.00237 35.8305 9.98692 35.9062 11.0472C35.982 11.8803 35.7548 12.7891 35.2246 13.4707C34.3916 14.531 32.0438 14.6067 31.135 13.395C31.0592 13.3192 30.9835 13.2435 30.9078 13.2435V15.8942L30.4534 15.8185ZM33.1798 8.77517C32.0438 8.69943 31.0592 9.53251 30.9078 10.6685C30.832 11.0472 30.832 11.3501 30.9078 11.7288C30.9835 12.9406 32.0438 13.8494 33.2555 13.7736C33.4827 13.7736 33.7099 13.6979 33.9371 13.6222C34.9974 13.2435 35.5276 12.1075 35.3004 10.6685C35.2246 9.53251 34.2401 8.77517 33.1798 8.77517ZM27.7269 8.24503C27.7269 8.3965 27.8027 8.6237 27.5755 8.6237C27.3482 8.6237 27.2725 8.47223 27.2725 8.32076C27.1968 7.56342 26.5909 6.88181 25.8336 6.80607C25.0762 6.6546 24.2431 6.6546 23.4858 6.80607C23.1071 6.88181 22.7284 7.10901 22.5012 7.41195C22.1226 8.01782 22.274 8.77517 22.8799 9.15384C22.9556 9.22957 23.1071 9.30531 23.1829 9.30531C23.713 9.53251 24.3189 9.60825 24.849 9.75972C25.6064 9.91118 26.3637 10.0627 27.0453 10.3656C27.6512 10.6685 28.0299 11.1987 28.0299 11.8803C28.1056 12.4862 27.7269 13.092 27.1968 13.395C25.7578 14.1523 24.0159 14.1523 22.577 13.3192C21.8954 12.9406 21.5167 12.1832 21.6682 11.4259C21.6682 11.2744 21.6682 11.1987 21.8954 11.1987C22.1226 11.1987 22.1226 11.2744 22.1226 11.4259C22.1226 11.5773 22.1226 11.8045 22.1983 11.956C22.3498 12.5619 22.8042 13.092 23.4101 13.2435C24.4703 13.6222 25.6821 13.6222 26.7424 13.1678C27.424 12.9406 27.8027 12.259 27.6512 11.5016C27.5755 11.1229 27.2725 10.7443 26.8938 10.5928C26.2122 10.3656 25.5306 10.2141 24.849 10.0627C24.2431 9.91119 23.713 9.75972 23.1071 9.60825C22.1983 9.30531 21.7439 8.32076 22.0468 7.41195C22.0468 7.33621 22.0468 7.33621 22.1226 7.26048C22.274 6.80607 22.6527 6.50313 23.1071 6.27593C23.4101 6.2002 23.9402 6.2002 24.6218 6.2002C27.121 6.2002 27.6512 7.56342 27.7269 8.24503ZM57.642 9.30531C58.1722 8.69943 59.0053 8.3965 59.8383 8.54796C60.3685 8.6237 60.8229 8.8509 61.1258 9.30531C61.2016 9.45678 61.2773 9.45678 61.353 9.30531C61.8832 8.3965 63.5493 8.32076 64.3067 8.77517C64.8368 9.07811 65.064 9.60825 65.064 10.2141C65.064 11.4259 65.064 12.6376 65.064 13.8494C65.064 14.0008 65.064 14.2281 64.8368 14.2281C64.6096 14.2281 64.6096 14.0766 64.6096 13.8494V10.5928C64.6096 9.60825 64.1552 9.00237 63.3221 8.92664C62.4133 8.77517 61.5045 9.30531 61.353 10.2141C61.353 10.2899 61.353 10.2899 61.353 10.3656C61.2016 11.4259 61.353 12.5619 61.2773 13.6979C61.2773 13.7736 61.2773 13.8494 61.2773 13.8494C61.2773 14.0008 61.2773 14.1523 61.0501 14.1523C60.8229 14.1523 60.8229 14.0766 60.8229 13.8494C60.8229 13.4707 60.8229 13.0163 60.8229 12.6376V10.5171C60.8229 9.60825 60.52 9.15384 59.8383 9.00237C59.081 8.77517 58.1722 9.07811 57.7935 9.83545C57.642 10.2141 57.4906 10.5928 57.5663 10.9715V13.7736C57.5663 13.9251 57.642 14.1523 57.3391 14.1523C57.0362 14.1523 57.1119 13.9251 57.1119 13.7736V9.07811C57.1119 8.92664 57.0362 8.6237 57.3391 8.6237C57.642 8.6237 57.5663 8.8509 57.5663 9.07811C57.5663 9.30531 57.5663 9.15384 57.642 9.30531ZM70.6684 11.5773H68.4721C68.2449 11.5773 68.1691 11.6531 68.1691 11.8803C68.1691 12.9406 69.0779 13.7736 70.1382 13.7736H70.214C71.1985 13.9251 72.1073 13.4707 72.5617 12.5619C72.6375 12.4104 72.7889 12.3347 72.9404 12.4104C73.1676 12.4862 73.0161 12.6376 72.9404 12.7891C72.5617 13.6222 71.8044 14.1523 70.8956 14.2281C70.5169 14.3038 70.0625 14.3038 69.6838 14.2281C68.8507 14.0766 68.1691 13.5464 67.9419 12.7134C67.4875 11.5773 67.7147 10.2141 68.5478 9.30531C69.4566 8.47223 70.7441 8.32076 71.8044 8.77517C72.7889 9.22957 73.3191 10.2141 73.2433 11.2744C73.2433 11.5016 73.0919 11.5773 72.9404 11.5773H70.6684ZM70.3654 11.0472H72.1073C72.6375 11.0472 72.7132 10.9715 72.5617 10.4413C72.1831 9.22957 70.8956 8.54796 69.6838 8.92664C68.8507 9.15384 68.2449 9.91118 68.0934 10.7443C68.0934 10.9715 68.1691 11.0472 68.3963 11.0472C69.0779 11.1229 69.7596 11.1229 70.3654 11.0472ZM88.2388 9.53251C88.2388 9.22957 88.2388 9.00237 88.2388 8.77517C88.2388 8.54796 88.2388 8.39649 88.466 8.39649C88.6932 8.39649 88.6932 8.54796 88.6932 8.77517C88.6932 9.45678 88.6932 10.1384 88.6932 10.7443C88.6932 11.7288 88.6932 12.7134 88.6932 13.6979C88.6932 13.8494 88.7689 14.0766 88.466 14.0766C88.163 14.0766 88.2388 13.8494 88.2388 13.6979C88.2388 13.5464 88.2388 13.3192 88.2388 13.092C88.0873 13.092 88.0116 13.2435 87.9358 13.3192C87.1028 14.228 85.7395 14.4553 84.6035 13.9251C83.9976 13.6222 83.5432 13.1678 83.3918 12.5619C83.0131 11.6531 83.0888 10.5928 83.619 9.68398C84.452 8.3965 86.1182 8.01782 87.4057 8.8509C87.5572 9.00237 87.7844 9.07811 87.8601 9.22957C88.0116 9.38104 88.0873 9.45678 88.2388 9.53251ZM85.891 8.92664C85.2094 8.8509 84.5278 9.15384 84.1491 9.75972C83.5432 10.6685 83.4675 11.8045 83.9219 12.7134C84.1491 13.3192 84.755 13.6979 85.3609 13.7736C86.5726 14.0766 87.7844 13.3192 88.0873 12.1075C88.163 11.956 88.163 11.7288 88.163 11.5016C88.3145 9.98692 87.4057 8.8509 85.891 8.92664ZM51.659 14.2281C50.1443 14.3038 48.9326 13.1678 48.7811 11.6531C48.7811 11.5016 48.7811 11.4259 48.7811 11.2744C48.7054 9.75972 49.8414 8.47223 51.3561 8.39649C51.4318 8.39649 51.5833 8.39649 51.659 8.39649C53.1737 8.32076 54.3855 9.53251 54.4612 10.9715C54.4612 11.0472 54.4612 11.1987 54.4612 11.2744C54.6127 12.7134 53.4766 14.0766 52.0377 14.1523C51.962 14.2281 51.8105 14.2281 51.659 14.2281ZM51.659 8.92664C50.3715 8.8509 49.3113 9.83545 49.2355 11.0472C49.2355 11.1229 49.2355 11.1987 49.2355 11.3501C49.1598 12.6376 50.0686 13.7736 51.3561 13.8494C51.4318 13.8494 51.5075 13.8494 51.5833 13.8494C52.8708 13.9251 53.931 13.0163 54.0068 11.7288C54.0068 11.6531 54.0068 11.5016 54.0068 11.4259C54.1583 10.2141 53.2494 9.07811 51.962 8.92664C51.8862 8.92664 51.8105 8.92664 51.659 8.92664ZM76.3485 9.38104C77.0301 8.6237 78.0903 8.24503 79.0749 8.54796C79.9837 8.69943 80.6653 9.53251 80.5896 10.4413V13.6222C80.5896 13.6979 80.5896 13.8494 80.5896 13.9251C80.5896 14.0008 80.4381 14.1523 80.3624 14.0766C80.2867 14.0766 80.2109 14.0008 80.2109 13.9251C80.2109 13.8494 80.2109 13.6979 80.2109 13.6222V10.7443C80.2866 9.75972 79.605 8.92664 78.6205 8.8509C78.3176 8.8509 78.0146 8.8509 77.7874 9.00237C76.8786 9.30531 76.2727 10.1384 76.3485 11.1229C76.3485 11.956 76.3485 12.7891 76.3485 13.5464C76.3485 13.6222 76.3485 13.7736 76.3485 13.8494C76.3485 13.9251 76.3485 14.1523 76.1213 14.1523C75.8941 14.1523 75.8941 14.0008 75.8941 13.8494C75.8941 13.6979 75.8941 13.6222 75.8941 13.5464V8.8509C75.8941 8.69943 75.8941 8.54796 76.1213 8.54796C76.3485 8.54796 76.3485 8.69943 76.3485 8.8509C76.2727 9.00237 76.2727 9.15384 76.3485 9.38104ZM42.0407 9.30531C42.8738 8.16929 45.1458 8.24503 45.8275 9.07811C46.1304 9.38104 46.2819 9.75972 46.2819 10.2141C46.2819 11.4259 46.2819 12.6376 46.2819 13.8494C46.2819 14.0008 46.2819 14.1523 46.0547 14.1523C45.8275 14.1523 45.8275 14.0008 45.8275 13.8494C45.8275 12.7891 45.7517 11.7288 45.8275 10.5928C45.9032 9.68398 45.2216 8.92664 44.3128 8.92664C44.1613 8.92664 44.0856 8.92664 43.9341 8.92664C42.8738 8.92664 41.965 9.75972 41.965 10.8957C41.965 10.9715 41.965 11.0472 41.965 11.1229V13.7736C41.965 13.9251 42.0407 14.1523 41.7378 14.1523C41.4349 14.1523 41.5106 13.9251 41.5106 13.7736C41.5106 12.1832 41.5106 10.5928 41.5106 9.00237C41.5106 8.8509 41.5106 8.69943 41.7378 8.69943C41.965 8.69943 41.965 8.8509 41.965 9.00237C41.965 9.15384 42.0407 9.15384 42.0407 9.30531ZM91.3439 10.2899V7.03327C91.3439 6.88181 91.3439 6.80607 91.3439 6.73034C91.3439 6.57887 91.4196 6.50313 91.4954 6.50313C91.4954 6.50313 91.4953 6.50313 91.5711 6.50313C91.6468 6.50313 91.7983 6.57887 91.7983 6.6546C91.7983 6.73034 91.7983 6.88181 91.7983 6.95754V13.5464C91.7983 13.5464 91.7983 13.6222 91.7983 13.6979C91.7983 13.8494 91.874 14.1523 91.5711 14.1523C91.2681 14.1523 91.3439 13.9251 91.3439 13.7736C91.3439 12.5619 91.3439 11.4259 91.3439 10.2899ZM39.0114 13.6222C39.0114 13.7736 39.0114 14.0008 38.7842 14.0008C38.5569 14.0008 38.557 13.7736 38.557 13.6222C38.557 12.0317 38.557 10.4413 38.557 8.8509C38.557 8.69943 38.5569 8.47223 38.7842 8.47223C39.0114 8.47223 39.0114 8.69943 39.0114 8.8509C39.0114 9.60825 39.0114 12.7891 39.0114 13.6222Z" fill="#BFF2E6"/>
</svg>
