<svg width="92" height="17" viewBox="0 0 92 17" fill="none" xmlns="http://www.w3.org/2000/svg">
<path d="M6.32938 5.42516L0.367559 5.61217C0.262834 5.61591 0.16559 5.66079 0.0982672 5.73933C0.0272041 5.81788 -0.00645745 5.91886 0.00102287 6.01985L0.109487 7.64308C0.124448 7.84505 0.292755 8.00213 0.494724 7.99839L2.11421 7.97969L2.48075 15.6021C2.48449 15.7031 2.53311 15.8004 2.60792 15.8677C2.68646 15.935 2.78744 15.9724 2.88843 15.9649L4.71737 15.8415C4.92308 15.8266 5.08016 15.6545 5.07268 15.4488L4.85949 7.93855L6.46402 7.91985C6.56875 7.91985 6.66599 7.87497 6.73705 7.79642C6.80812 7.71788 6.84552 7.6169 6.83804 7.51217L6.72209 5.78048C6.71087 5.57851 6.53508 5.42142 6.32938 5.42516ZM13.2711 5.9226L11.4684 5.82536C11.2589 5.82162 11.0943 5.98245 11.0831 6.18815L11.0569 10.1639L10.2715 10.3323L10.0733 5.82162C10.0658 5.61965 9.89749 5.45882 9.69552 5.45882L7.91894 5.50371C7.81422 5.50371 7.71698 5.54485 7.64591 5.61591C7.57111 5.69071 7.53371 5.78796 7.53371 5.89268L7.8591 15.9201C7.86284 16.1258 8.03115 16.2941 8.23686 16.2978L10.0134 16.2529C10.1182 16.2529 10.2154 16.2155 10.2865 16.1407C10.3575 16.0697 10.3987 15.9687 10.3987 15.8677L10.2042 12.509L10.8999 12.5576L11.0233 15.5647C11.0195 15.6695 11.0569 15.7704 11.128 15.8453C11.1991 15.9201 11.2963 15.9649 11.401 15.9649L13.2562 16.0921C13.2636 16.0921 13.2711 16.0921 13.2786 16.0921C13.4768 16.0846 13.6339 15.9238 13.6414 15.7218L13.6489 6.31906C13.6526 6.21434 13.6152 6.11709 13.5441 6.04229C13.4731 5.96749 13.3758 5.9226 13.2711 5.9226ZM19.9548 5.08107L18.3129 5.20449C18.1146 5.21945 17.9613 5.38402 17.9613 5.58225C17.9613 5.58225 17.9762 11.8582 17.9538 12.6773C17.9388 13.1636 18.0062 13.9827 17.4713 14.0051C17.1048 14.0201 16.9776 13.4852 16.9701 12.726C16.9627 11.8732 17.0337 6.03481 17.0337 5.97497C17.0375 5.77674 16.8878 5.61217 16.6934 5.58973L14.8308 5.3915C14.7223 5.38028 14.6138 5.41394 14.5353 5.48874C14.453 5.56355 14.4081 5.66827 14.4119 5.77674C14.4119 5.77674 14.4829 13.1299 14.4867 13.388C14.5091 14.3417 15.2422 16.051 17.3105 15.9949C19.6294 15.9313 20.0483 14.5512 20.1904 12.9391C20.2503 12.2697 20.3587 6.13953 20.3662 5.45882C20.3662 5.35036 20.3213 5.24937 20.2465 5.17831C20.1717 5.10725 20.0595 5.06985 19.9548 5.08107ZM27.1621 5.48126L25.4603 5.56355C25.3593 5.56729 25.2621 5.61591 25.1947 5.69071C25.1274 5.76926 25.0938 5.87024 25.0975 5.97122L25.378 10.6801L23.6164 5.81414C23.5566 5.64957 23.392 5.54859 23.2199 5.56729L21.5144 5.7543C21.3199 5.77674 21.1703 5.9413 21.1741 6.13953L21.4546 15.4226C21.4546 15.6208 21.6117 15.7891 21.8099 15.8004L23.5192 15.9275C23.6276 15.935 23.7361 15.8976 23.8146 15.8191C23.8932 15.7443 23.9343 15.6358 23.9306 15.5273L23.665 11.4655L25.1424 15.6844C25.1947 15.8265 25.3257 15.9238 25.479 15.935H27.278C27.293 15.935 27.3042 15.935 27.3192 15.935C27.4089 15.9313 27.4987 15.8939 27.566 15.8303C27.6408 15.7555 27.6857 15.6545 27.6857 15.5498L27.5772 5.86276C27.5772 5.75804 27.5323 5.66079 27.4575 5.58973C27.3678 5.51119 27.2668 5.47378 27.1621 5.48126ZM29.4436 5.28304C29.3239 5.28304 29.2042 5.28304 29.0808 5.28678C28.8788 5.29052 28.7142 5.45508 28.7105 5.65705L28.4038 15.3029C28.3963 15.5086 28.5534 15.6807 28.7554 15.6956C28.7629 15.6956 28.9798 15.7143 29.3201 15.7143C30.517 15.7143 33.3782 15.4974 34.0365 13.4852C34.5863 11.8134 34.4965 9.52812 34.3581 8.43973C34.0851 6.31532 32.4768 5.28304 29.4436 5.28304ZM31.9906 11.6376C31.7887 13.2683 31.2763 13.3693 30.7152 13.5638L30.977 7.50469C31.1715 7.55705 31.4184 7.54957 31.7325 7.96847C32.1963 8.58186 32.1889 10.0443 31.9906 11.6376ZM39.9385 13.9976L37.7018 14.1734L37.5971 12.0864L39.0446 12.0041C39.2316 11.9929 39.3812 11.847 39.3999 11.6638L39.5345 10.3809C39.5457 10.2687 39.5083 10.1565 39.4335 10.0779C39.355 9.99564 39.2465 9.9545 39.1343 9.95824L37.5635 10.0405V7.77024H39.8824H39.8861C40.0993 7.77398 40.2676 7.5982 40.2676 7.38875C40.2676 7.35882 40.2639 7.33264 40.2601 7.30272L40.1292 5.9413C40.1105 5.73934 39.9422 5.59347 39.7365 5.59721L35.4877 5.70193C35.2782 5.70941 35.1137 5.88146 35.1174 6.08717L35.252 15.6283C35.2558 15.8378 35.4241 16.0061 35.6335 16.0061H39.931C40.1367 16.0061 40.3087 15.8415 40.3125 15.6358L40.3461 14.3903C40.3499 14.2819 40.305 14.1771 40.2265 14.1023C40.1554 14.0275 40.0469 13.9901 39.9385 13.9976ZM46.8877 8.40233C46.7942 7.06335 46.3304 5.28678 43.4168 5.28678C42.7922 5.28678 42.0591 5.36906 41.2363 5.52989C41.0568 5.56355 40.9259 5.72437 40.9296 5.91138L41.0643 15.2468C41.068 15.4451 41.2213 15.6059 41.4158 15.6208L42.7548 15.7256C42.8595 15.7368 42.9643 15.6994 43.0428 15.6246C43.1213 15.5535 43.1662 15.4525 43.1662 15.3441V12.3332L43.8469 12.2958L44.6024 15.5199C44.6361 15.7031 44.7969 15.8303 44.9765 15.8303C44.9877 15.8303 44.9952 15.8303 45.0064 15.8303L46.3454 15.7256C46.4538 15.7181 46.5511 15.6657 46.6184 15.5797C46.6857 15.4937 46.7119 15.3852 46.6932 15.2805L45.7432 11.6937C46.4052 11.1813 47.0223 10.2612 46.8877 8.40233ZM44.4715 9.71887C44.1274 10.0891 43.5365 10.2013 43.1625 10.2313V7.47851C43.2822 7.45233 43.4093 7.43737 43.529 7.43737C44.0414 7.43737 44.666 7.66552 44.7483 8.76139C44.782 9.16906 44.6922 9.48324 44.4715 9.71887ZM51.9893 11.1364C52.5428 10.4071 53.9416 8.7165 53.7958 5.75804C53.792 5.65705 53.7434 5.55981 53.6686 5.49248C53.5938 5.42516 53.4928 5.38776 53.3881 5.39524L51.7985 5.49996C51.5891 5.51493 51.4282 5.69445 51.4432 5.90764C51.4993 6.74544 50.9458 8.53324 50.1491 9.65902L50.2651 6.01985C50.2688 5.91512 50.2277 5.81414 50.1529 5.74308C50.078 5.66827 49.9808 5.62713 49.8761 5.63087L47.8265 5.66079C47.7255 5.66079 47.6282 5.70567 47.5572 5.77674C47.4861 5.85154 47.4487 5.94878 47.4524 6.04977L47.6582 15.7106C47.6619 15.8191 47.7068 15.9201 47.7928 15.9911C47.8751 16.0622 47.9873 16.0958 48.092 16.0809L49.6891 15.8677C49.8761 15.8415 50.0182 15.6844 50.0219 15.4937L50.0481 12.6624C50.3735 12.8569 51.3235 14.2332 51.4843 15.5947C51.5068 15.7891 51.6714 15.935 51.8658 15.9313L53.5489 15.9238C53.5564 15.9238 53.5639 15.9238 53.5714 15.9238C53.6649 15.9163 53.7546 15.8789 53.8182 15.8078C53.8893 15.733 53.9304 15.6358 53.9267 15.5311C53.9117 15.1945 53.3395 12.2248 51.9893 11.1364ZM56.7542 5.19701L54.9328 5.43264C54.742 5.45508 54.5999 5.61965 54.5999 5.8104L54.5849 15.2767C54.5849 15.3815 54.6298 15.4862 54.7084 15.5573C54.7832 15.6283 54.8842 15.6657 54.9851 15.6582C54.9889 15.6582 54.9926 15.6582 54.9964 15.6582L56.9786 15.5124C57.1806 15.4974 57.334 15.3291 57.334 15.1271L57.1918 5.57477C57.1881 5.4663 57.1432 5.36158 57.0609 5.29052C56.9749 5.21571 56.8627 5.18205 56.7542 5.19701ZM60.629 5.47378C60.0755 5.51119 58.2653 5.83284 58.1157 8.50331C58.097 8.84367 58.0783 9.16532 58.0596 9.47202C57.9511 11.286 57.8725 12.5988 58.1044 13.7358C58.2466 14.4165 58.8113 15.9911 61.0592 15.9911C61.1975 15.9911 61.3434 15.9836 61.4893 15.9724C62.4281 15.8939 63.1237 15.5947 63.5538 15.0785C64.171 14.3454 64.0887 13.4067 64.0438 12.9017L64.0363 12.8008C64.0214 12.5951 63.8456 12.4417 63.6399 12.4492L62.2223 12.5128C62.1139 12.5165 62.0129 12.5689 61.9418 12.6549C61.8745 12.7409 61.8446 12.8494 61.8596 12.9578C61.8895 13.1486 61.9231 13.7545 61.6763 14.0537C61.6127 14.1285 61.4968 14.2332 61.2312 14.237H61.2125C61.0068 14.237 60.8534 14.1771 60.7338 14.0462C60.5281 13.8293 60.2962 13.2945 60.3597 11.9966C60.3747 11.6937 60.3897 11.3421 60.4046 10.9681C60.442 9.99564 60.4869 8.88855 60.5767 8.19662L60.5804 8.17418C60.6477 7.64682 60.7487 7.42241 61.1901 7.40371C61.5042 7.38875 61.7249 7.45233 61.8409 7.59445C61.9905 7.77398 61.9718 8.07694 61.9531 8.17792C61.9306 8.29013 61.9605 8.40607 62.0316 8.49209C62.1027 8.58186 62.2111 8.63422 62.3233 8.63422L64.0326 8.65666C64.2346 8.65666 64.4103 8.49583 64.4178 8.28639C64.4216 8.2415 64.4477 7.20174 63.6623 6.38638C63.0003 5.69445 61.9755 5.38402 60.629 5.47378ZM71.9879 15.1533C71.9617 15.0411 71.2249 12.1462 69.7251 10.7773C70.4582 10.0854 71.958 8.7165 71.4568 5.60469C71.4231 5.40272 71.2399 5.26433 71.0379 5.28678L69.0631 5.50745C68.9584 5.51867 68.8649 5.57477 68.8013 5.65705C68.7377 5.73934 68.7115 5.84406 68.7302 5.94878C68.734 5.97871 69.1379 8.22654 67.6082 9.57674L67.6456 5.74308C67.6456 5.63461 67.6007 5.52989 67.5184 5.45508C67.4361 5.38402 67.3277 5.34662 67.2192 5.36158L65.2444 5.58225C65.0462 5.60469 64.9003 5.773 64.904 5.97122L65.1359 15.5685C65.1397 15.6732 65.1846 15.7779 65.2668 15.8453C65.3416 15.9088 65.4352 15.9425 65.5324 15.9388C65.5436 15.9388 65.5511 15.9388 65.5623 15.935L67.2304 15.748C67.4174 15.7256 67.5596 15.576 67.5708 15.389L67.7092 12.3893C68.2328 12.9354 69.1192 14.3305 69.2613 15.5012C69.2875 15.7106 69.4745 15.8565 69.684 15.834L71.655 15.6134C71.7635 15.6021 71.8607 15.5423 71.9243 15.4563C71.9916 15.3702 72.0103 15.258 71.9879 15.1533Z" fill="#BFF2E6"/>
<path d="M90.2174 11.529L90.7335 7.92721L88.5755 3.40909L87.1093 3.91028L85.1981 1.86067L81.8207 0.0205078L81.0802 2.75083L80.5566 1.31834L77.9609 3.85417L76.5097 6.39L76.4461 9.01934L75.425 8.53312L76.1207 12.7445L77.7028 15.4562L81.4317 16.7353L84.4875 16.8475L89.7536 14.9213L91.2684 11.1737L90.2174 11.529ZM87.9396 9.528L84.955 9.61028L84.8465 12.9689L84.6857 14.9587L82.0825 14.9325V13.025L81.8694 9.69256L78.7501 9.82721L78.6416 6.60319L83.2382 6.57701L87.9957 6.44237L88.078 6.87248L87.9396 9.528Z" fill="#BFF2E6"/>
</svg>
