<svg width="24" height="24" viewBox="0 0 24 24" fill="none" xmlns="http://www.w3.org/2000/svg">
<g clip-path="url(#clip0_1827_65611)">
<path d="M12 24C18.6274 24 24 18.6274 24 12C24 5.37258 18.6274 0 12 0C5.37258 0 0 5.37258 0 12C0 18.6274 5.37258 24 12 24Z" fill="#F0F0F0"/>
<path d="M11.9999 0C7.24238 0 3.13163 2.76867 1.19063 6.78263H22.8091C20.8682 2.76867 16.7574 0 11.9999 0Z" fill="#FF9811"/>
<path d="M11.9999 23.9999C16.7574 23.9999 20.8682 21.2312 22.8092 17.2173H1.19063C3.13163 21.2312 7.24238 23.9999 11.9999 23.9999Z" fill="#6DA544"/>
<path d="M12 16.174C14.3051 16.174 16.1739 14.3052 16.1739 12.0001C16.1739 9.69489 14.3051 7.82617 12 7.82617C9.6948 7.82617 7.82608 9.69489 7.82608 12.0001C7.82608 14.3052 9.6948 16.174 12 16.174Z" fill="#0052B4"/>
<path d="M12.0001 14.609C13.4408 14.609 14.6088 13.441 14.6088 12.0003C14.6088 10.5595 13.4408 9.3916 12.0001 9.3916C10.5594 9.3916 9.39142 10.5595 9.39142 12.0003C9.39142 13.441 10.5594 14.609 12.0001 14.609Z" fill="#F0F0F0"/>
<path d="M11.9999 8.78076L12.8047 10.606L14.7877 10.3903L13.6095 11.9998L14.7877 13.6094L12.8047 13.3937L11.9999 15.2189L11.1951 13.3937L9.2121 13.6093L10.3904 11.9998L9.2121 10.3903L11.1951 10.606L11.9999 8.78076Z" fill="#0052B4"/>
</g>
<defs>
<clipPath id="clip0_1827_65611">
<rect width="24" height="24" fill="white"/>
</clipPath>
</defs>
</svg>
