<svg width="56" height="56" viewBox="0 0 56 56" fill="none" xmlns="http://www.w3.org/2000/svg">
<path d="M0 28C0 12.536 12.536 0 28 0C43.464 0 56 12.536 56 28C56 43.464 43.464 56 28 56C12.536 56 0 43.464 0 28Z" fill="white"/>
<path d="M28.0001 20.5583C30.2784 20.5583 31.8153 21.5424 32.6916 22.3648L36.1159 19.0214C34.0128 17.0666 31.2761 15.8667 28.0001 15.8667C23.2546 15.8667 19.1562 18.59 17.1609 22.5535L21.0841 25.6003C22.0682 22.6748 24.7915 20.5583 28.0001 20.5583Z" fill="#EA4335"/>
<path d="M39.648 28.2697C39.648 27.272 39.5671 26.544 39.3919 25.7891H28V30.2919H34.6868C34.552 31.4108 33.824 33.096 32.2062 34.2285L36.035 37.1944C38.3268 35.0778 39.648 31.9636 39.648 28.2697Z" fill="#4285F4"/>
<path d="M21.0976 30.3999C20.8414 29.645 20.6931 28.8361 20.6931 28.0002C20.6931 27.1644 20.8414 26.3555 21.0841 25.6005L17.161 22.5537C16.3386 24.1985 15.8668 26.0454 15.8668 28.0002C15.8668 29.955 16.3386 31.802 17.161 33.4467L21.0976 30.3999Z" fill="#FBBC05"/>
<path d="M28.0001 40.1335C31.2761 40.1335 34.0264 39.055 36.0351 37.1946L32.2064 34.2286C31.1818 34.9432 29.8066 35.442 28.0001 35.442C24.7915 35.442 22.0683 33.3254 21.0976 30.3999L17.1745 33.4467C19.1698 37.4103 23.2546 40.1335 28.0001 40.1335Z" fill="#34A853"/>
</svg>
