<svg width="56" height="56" viewBox="0 0 56 56" fill="none" xmlns="http://www.w3.org/2000/svg">
<path d="M28 0C12.537 0 0 12.537 0 28C0 43.4644 12.537 56 28 56C43.4644 56 56 43.4658 56 28C56 12.537 43.4644 0 28 0Z" fill="white"/>
<g clip-path="url(#clip0_1480_47337)">
<path d="M49.4269 16.8239L49.4265 16.8242H49.4271C49.1543 17.2326 49.0553 17.7244 48.9722 18.237C48.8702 18.8612 48.7628 19.4604 48.54 20.0478C48.2723 20.7519 47.8227 21.5364 47.0402 22.1505C46.2269 19.9689 45.0431 17.9657 43.5653 16.2138C44.4978 15.8445 45.4129 15.8503 46.1654 15.9732C46.7904 16.0757 47.3678 16.2831 47.9647 16.5078C48.454 16.6929 48.9335 16.8539 49.4269 16.8239Z" fill="#FAB60F"/>
<path d="M40.3474 7.8291L40.3471 7.82956L40.3478 7.82941C40.3175 8.3181 40.4799 8.79302 40.6667 9.27808C40.8934 9.86926 41.1028 10.4414 41.2064 11.0606C41.3305 11.8066 41.3361 12.7144 40.9625 13.6389C39.1916 12.1769 37.1668 11.0068 34.963 10.2041C35.5842 9.42251 36.3796 8.97424 37.0935 8.70794C37.6864 8.48721 38.2912 8.38078 38.9216 8.27965C39.4387 8.19744 39.9352 8.09949 40.3474 7.8291Z" fill="#FAB60F"/>
<path d="M47.9965 25.6816C48.9833 25.8262 49.7686 26.2822 50.3554 26.7591C50.8447 27.1576 51.2401 27.6232 51.6437 28.1136C51.9739 28.516 52.308 28.893 52.7502 29.1114H48.2947C48.2934 27.9421 48.1907 26.7965 47.9965 25.6816Z" fill="#FAB60F"/>
<path d="M15.5419 7.82925L15.5422 7.82956V7.8291C15.9545 8.09934 16.4509 8.19729 16.9682 8.2798C17.5982 8.38078 18.2031 8.48721 18.796 8.70778C19.5099 8.97408 20.3054 9.42251 20.9264 10.2041C18.7223 11.0067 16.6979 12.1769 14.927 13.6389C14.5534 12.7144 14.5589 11.8066 14.6832 11.0604C14.7867 10.4414 14.996 9.86911 15.2228 9.27777C15.4095 8.79302 15.5721 8.31795 15.5419 7.82925Z" fill="#FAB60F"/>
<path d="M6.46265 16.8247L6.46311 16.8248L6.46295 16.8244C6.95622 16.8542 7.43574 16.6933 7.92519 16.5083C8.52191 16.2836 9.09938 16.0762 9.72422 15.9736C10.4768 15.8508 11.392 15.8452 12.3243 16.2143C10.8465 17.9662 9.6631 19.9695 8.84954 22.151C8.067 21.5368 7.61743 20.7525 7.34971 20.0483C7.12691 19.4609 7.01949 18.8617 6.91756 18.2373C6.83443 17.7249 6.73541 17.233 6.46265 16.8247Z" fill="#FAB60F"/>
<path d="M3.13965 29.1118C3.58188 28.8933 3.91562 28.5165 4.2463 28.1139C4.64956 27.6237 5.04504 27.158 5.53433 26.7597C6.12128 26.2827 6.90596 25.8266 7.89311 25.6821C7.69889 26.7968 7.59635 27.9424 7.59513 29.1118H3.13965Z" fill="#FAB60F"/>
<path d="M27.9446 4.53662V4.53707L27.9449 4.53662C28.1654 4.9749 28.5459 5.30569 28.9522 5.6333C29.447 6.03283 29.9172 6.42463 30.3192 6.90939C30.8036 7.49452 31.267 8.27812 31.4097 9.26475C30.2833 9.07324 29.1261 8.97241 27.9447 8.97241C26.7634 8.97241 25.606 9.07324 24.4796 9.26475C24.6223 8.27828 25.0857 7.49452 25.5701 6.90954C25.9723 6.42463 26.4423 6.03283 26.9371 5.63315C27.3434 5.30584 27.7239 4.9749 27.9446 4.53662Z" fill="#FAB60F"/>
<path d="M23.8065 29.1165L25.3377 29.1121C25.5388 27.8309 25.1454 26.8444 23.8372 27.0798C22.7348 27.2781 21.5507 28.3632 20.8351 29.1121L22.8539 29.1033C23.0788 28.9568 23.5191 28.7896 23.6998 28.9141C23.7675 28.9607 23.8028 29.0269 23.8065 29.1165Z" fill="#D52736"/>
<path d="M30.6921 29.1122H32.6022C32.6931 26.8774 32.3297 24.5695 31.281 22.5728C30.3271 20.7561 28.7505 19.5212 26.7092 19.2228C23.7294 18.7873 20.7227 20.037 18.1807 21.825C15.4131 23.7717 13.1285 26.4156 11.1321 29.1122L13.6554 29.1086C15.9271 25.9186 21.1521 21.0757 24.9958 21.0441C26.2207 21.0341 27.4661 21.3189 28.3869 22.1327C29.0541 22.7226 29.8629 23.8678 29.8233 24.7974C29.7998 25.3486 29.3061 25.5176 28.8327 25.3468C28.4649 25.2142 28.2051 24.8811 27.9477 24.5309C27.1114 23.3934 25.8069 22.8367 24.376 23.0306C22.6694 23.2618 20.5539 24.5747 19.1894 25.7687C18.0128 26.7985 16.9326 27.9255 15.9137 29.1122H18.6266C19.621 27.9229 20.6709 26.9087 22.0207 26.0758C22.4478 25.8122 22.9738 25.5335 23.5266 25.3451C24.9213 24.8702 26.3093 24.9904 26.9256 26.7108C27.1678 27.3873 27.2034 27.9806 27.1328 29.0679L27.1327 29.1122H28.9774L28.9821 29.0564C28.9835 28.4609 28.9704 28.0597 29.0246 27.4696C29.0712 26.9611 29.2307 26.4341 29.7075 26.3714C30.7208 26.1611 30.6722 28.3945 30.6921 29.1122Z" fill="#D52736"/>
<path d="M34.6107 29.1123H36.5367C36.6299 27.0388 36.4505 24.5824 35.7734 22.4374C35.6397 22.0143 35.487 21.6036 35.3136 21.2115C34.9036 20.2845 34.352 19.4455 33.6943 18.67C32.9632 17.8086 32.0922 17.0341 31.1103 16.424C30.8205 16.244 30.5201 16.0777 30.2099 15.9276V15.9273C29.902 15.7781 29.5837 15.6448 29.2561 15.5295L29.2549 15.5291C25.5041 14.2097 21.7106 15.148 18.5285 16.8627C17.9081 17.1971 17.3111 17.5608 16.7426 17.9427C16.1743 18.3244 15.6332 18.7254 15.1244 19.1343H15.1242L15.1233 19.1353C14.5192 19.6206 13.7635 20.2848 13.0154 21.0697C12.8681 21.2243 12.7227 21.3818 12.5812 21.5409C12.2027 21.966 11.6194 22.562 11.7925 23.1782C11.9296 23.6669 12.566 23.5229 12.7878 23.3546C13.1281 23.1736 13.5018 22.8869 13.8217 22.6188C14.2547 22.2556 14.6638 21.8646 15.0926 21.4964C16.827 20.0068 18.6347 18.8581 20.4154 18.0807C20.8036 17.9113 21.1921 17.7588 21.5794 17.6241C21.9652 17.4898 22.3491 17.3735 22.7296 17.2756L22.7314 17.2751C26.0448 16.4228 29.6453 16.9749 31.9506 19.652C34.1714 22.2305 34.5768 25.6822 34.6107 29.1123ZM10.7131 26.1973C10.92 26.0059 11.1308 25.7562 11.3506 25.4798C11.658 25.0935 11.6889 24.7194 11.5674 24.4493C11.5222 24.3484 11.4554 24.2617 11.3743 24.1945C11.2937 24.1279 11.1987 24.0803 11.0962 24.057C10.8455 24.0002 10.5459 24.0891 10.2915 24.3958C10.0037 24.7425 9.60641 25.3357 9.52527 25.8603C9.51014 25.9585 9.50602 26.054 9.51626 26.1437C9.52619 26.2309 9.54972 26.3138 9.5893 26.3895L9.5896 26.3903L9.58976 26.3901C9.65455 26.5134 9.76381 26.5783 9.90959 26.5838C9.94 26.5848 9.97285 26.5835 10.0078 26.5797C10.0419 26.5759 10.0789 26.5692 10.1182 26.5601L10.1183 26.5604L10.1202 26.56C10.3164 26.5134 10.5126 26.3826 10.7131 26.1973Z" fill="#D52736"/>
<path d="M39.4285 29.1128L39.4423 29.1125H39.4492C39.6507 29.1234 40.0005 29.0315 40.2022 28.6943C40.2424 28.627 40.2769 28.5499 40.3031 28.4624C40.3298 28.3734 40.3483 28.2724 40.3561 28.159H40.3563L40.3576 28.1357C40.5107 22.8361 38.8723 18.4489 36.0907 15.4683C35.5505 14.8895 34.9663 14.363 34.3432 13.8929C33.7205 13.4231 33.0597 13.0103 32.3661 12.6581L32.366 12.6583L32.355 12.6528L32.3547 12.6525C30.0167 11.4688 27.3651 11.0142 24.7625 11.2326C24.2547 11.2752 23.7501 11.3431 23.2515 11.4359C22.7516 11.5291 22.2559 11.6473 21.7675 11.7901L21.7607 11.7922C19.084 12.5765 16.5932 14.1336 14.5635 16.1766C14.1681 16.5746 13.7904 16.9905 13.4331 17.4221C13.2554 17.6365 13.0824 17.8551 12.9148 18.0771C14.3382 16.8603 15.8654 15.793 17.4627 14.9451C17.8224 14.7542 18.1843 14.5748 18.5472 14.4085C18.9106 14.2418 19.2786 14.0864 19.6504 13.9431L19.6514 13.9427L19.6525 13.9422C21.0637 13.3989 22.4549 13.0524 23.8464 12.8975C25.2378 12.7426 26.6302 12.7794 28.0442 13.0021C29.0505 13.1608 30.0327 13.4218 30.9175 13.7869C31.0891 13.8578 31.2581 13.933 31.4234 14.0125C31.5866 14.0909 31.7474 14.1742 31.9048 14.2623H31.9051L31.9075 14.2635L31.9074 14.2636C35.0226 15.9536 37.1868 19.4214 38.1401 23.3367C38.3259 24.1003 38.4658 24.8803 38.5577 25.666C38.6495 26.4515 38.6935 27.2457 38.688 28.0382V28.0385L38.6876 28.0841C38.7035 28.5081 38.8502 28.8628 39.1015 29.0226C39.1483 29.0522 39.199 29.0754 39.253 29.0904H39.2533C39.3083 29.106 39.3668 29.1137 39.4285 29.1128Z" fill="#D52736"/>
<path d="M33.8586 11.4502C41.3485 13.9011 46.7613 20.879 46.7928 29.1122H43.0868C43.3321 21.9203 40.1639 15.4286 33.8586 11.4502Z" fill="#FAB60F"/>
<path d="M12.1118 34.8869H10.6128L10.2416 36.1809H9.04675L10.6276 31.2254H12.1415L13.7667 36.1809H12.52L12.1118 34.8869ZM10.7834 34.0487H11.9336C11.632 33.0805 11.4365 32.4164 11.3475 32.056H11.3325L11.095 32.9972L10.7834 34.0487ZM17.6182 34.8869H16.119L15.7479 36.1809H14.5531L16.1338 31.2254H17.6478L19.2731 36.1809H18.0263L17.6182 34.8869ZM16.2896 34.0487H17.44C17.1382 33.0805 16.9428 32.4164 16.8537 32.056H16.8388L16.6014 32.9972L16.2896 34.0487ZM20.4155 36.1589V31.2915C20.9103 31.2179 21.4396 31.1812 22.0037 31.1812C23.07 31.1812 23.8356 31.4017 24.2995 31.8441C24.7633 32.2865 24.9946 32.8649 24.9946 33.5781C24.9946 34.4212 24.7312 35.0743 24.2029 35.5376C23.6748 36.0007 22.8597 36.2323 21.7589 36.2323C21.2492 36.2323 20.8015 36.2078 20.4155 36.1589ZM21.5659 32.1002V35.3281C21.6302 35.3428 21.7688 35.35 21.9815 35.35C22.5529 35.35 22.9957 35.2006 23.3087 34.9028C23.6216 34.605 23.7775 34.1786 23.7775 33.6222C23.7775 33.1125 23.6352 32.724 23.3495 32.4568C23.0637 32.1897 22.6519 32.056 22.1151 32.056C21.89 32.056 21.7069 32.0709 21.5659 32.1002ZM26.2261 31.2254H27.3765V33.1296H29.3431V31.2254H30.4935V36.1809H29.3431V34.1148H27.3765V36.1809H26.2261V31.2254ZM34.6638 34.8869H33.1648L32.7937 36.1809H31.5988L33.1796 31.2254H34.6936L36.3189 36.1809H35.0721L34.6638 34.8869ZM33.3355 34.0487H34.4858C34.184 33.0805 33.9886 32.4164 33.8995 32.056H33.8847L33.6472 32.9972L33.3355 34.0487ZM40.1702 34.8869H38.671L38.2999 36.1809H37.1051L38.6858 31.2254H40.1998L41.8251 36.1809H40.5783L40.1702 34.8869ZM38.8417 34.0487H39.992C39.6902 33.0805 39.4948 32.4164 39.4057 32.056H39.3909L39.1534 32.9972L38.8417 34.0487ZM42.9675 36.1809V31.2915C43.3882 31.2179 43.9052 31.1812 44.5187 31.1812C45.2757 31.1812 45.8199 31.305 46.1513 31.5525C46.4829 31.8 46.6486 32.1541 46.6486 32.615C46.6486 32.8895 46.5657 33.137 46.3987 33.3588C46.2319 33.5806 46.0153 33.7374 45.7507 33.8281V33.8575C46.0624 33.9727 46.2875 34.2767 46.4259 34.7691C46.6808 35.6564 46.8193 36.127 46.8416 36.1809H45.6691C45.57 35.9971 45.4513 35.6124 45.3127 35.0265C45.2435 34.7325 45.1495 34.5266 45.0308 34.409C44.912 34.2913 44.7215 34.2325 44.4593 34.2325H44.1031V36.1809H42.9675ZM44.1031 32.056V33.4163H44.578C44.865 33.4163 45.0913 33.3514 45.2571 33.2227C45.4229 33.0941 45.5057 32.9212 45.5057 32.7031C45.5057 32.4849 45.4316 32.3158 45.2818 32.197C45.1322 32.0781 44.9194 32.0194 44.6449 32.0194C44.3752 32.0194 44.1946 32.0317 44.1031 32.056Z" fill="#D52736"/>
</g>
<defs>
<clipPath id="clip0_1480_47337">
<rect width="50.4" height="32.2" fill="white" transform="translate(2.80005 4.2002)"/>
</clipPath>
</defs>
</svg>
