<svg width="56" height="56" viewBox="0 0 56 56" fill="none" xmlns="http://www.w3.org/2000/svg">
<path d="M28 54.3649C42.5609 54.3649 54.3648 42.5609 54.3648 28.0001C54.3648 13.4392 42.5609 1.63525 28 1.63525C13.4391 1.63525 1.63519 13.4392 1.63519 28.0001C1.63519 42.5609 13.4391 54.3649 28 54.3649Z" fill="white"/>
<path d="M28 0C12.537 0 0 12.537 0 28C0 43.4644 12.537 56 28 56C43.4644 56 56 43.4658 56 28C56 12.537 43.4644 0 28 0ZM31.6582 19.719L31.605 19.7596V23.4248H37.2344L36.8032 27.7242H31.6078V42.5712H25.0012V27.7256H21.5404V23.4262H24.9998V19.7862V19.7176H25.011C25.0082 19.2962 25.0404 16.5928 26.3158 15.519C28.0322 13.4456 30.9134 13.4484 30.9134 13.4484C30.9134 13.4484 32.8622 13.3756 34.384 13.489C36.3006 13.6332 37.884 13.9678 37.884 13.9678L36.9768 18.613C36.9768 18.613 34.5044 17.9956 33.1184 18.3176C31.7212 18.6046 31.5952 19.7134 31.5952 19.7134H31.6582V19.719Z" fill="#3F88E8"/>
</svg>
